LXGWWenKaiMono-Bold.ufo
<glyph name="exclam" format="2">
  <advance height="1000" width="500"/>
  <unicode hex="0021"/>
  <outline>
    <contour>
      <point x="248" y="-15" type="qcurve"/>
      <point x="224" y="-15"/>
      <point x="189" y="27"/>
      <point x="189" y="51" type="qcurve"/>
      <point x="189" y="74"/>
      <point x="218" y="107"/>
      <point x="248" y="107" type="qcurve"/>
      <point x="270" y="107"/>
      <point x="306" y="62"/>
      <point x="306" y="37" type="qcurve"/>
      <point x="306" y="-15"/>
    </contour>
    <contour>
      <point x="260" y="159" type="qcurve"/>
      <point x="246" y="159"/>
      <point x="212" y="173"/>
      <point x="212" y="188" type="qcurve"/>
      <point x="214" y="208"/>
      <point x="214" y="227" type="qcurve"/>
      <point x="208" y="636"/>
      <point x="203" y="695" type="qcurve"/>
      <point x="208" y="718"/>
      <point x="235" y="718" type="qcurve"/>
      <point x="254" y="718"/>
      <point x="300" y="698"/>
      <point x="300" y="681" type="qcurve"/>
      <point x="294" y="609" type="line"/>
      <point x="282" y="223"/>
      <point x="282" y="172" type="qcurve"/>
      <point x="282" y="159"/>
    </contour>
  </outline>
</glyph>
<glyph name="quotedbl" format="2">
  <advance height="1000" width="500"/>
  <unicode hex="0022"/>
  <outline>
    <contour>
      <point x="176" y="470" type="qcurve"/>
      <point x="139" y="470"/>
      <point x="139" y="492" type="qcurve"/>
      <point x="133" y="703" type="line"/>
      <point x="133" y="718"/>
      <point x="162" y="731"/>
      <point x="176" y="731" type="qcurve"/>
      <point x="191" y="731"/>
      <point x="219" y="718"/>
      <point x="219" y="703" type="qcurve"/>
      <point x="213" y="492" type="line"/>
      <point x="213" y="470"/>
    </contour>
    <contour>
      <point x="324" y="470" type="qcurve"/>
      <point x="287" y="470"/>
      <point x="287" y="492" type="qcurve"/>
      <point x="281" y="703" type="line"/>
      <point x="281" y="718"/>
      <point x="310" y="731"/>
      <point x="324" y="731" type="qcurve"/>
      <point x="339" y="731"/>
      <point x="367" y="718"/>
      <point x="367" y="703" type="qcurve"/>
      <point x="361" y="492" type="line"/>
      <point x="361" y="470"/>
    </contour>
  </outline>
</glyph>
<glyph name="numbersign" format="2">
  <advance height="1000" width="500"/>
  <unicode hex="0023"/>
  <outline>
    <contour>
      <point x="287" y="274" type="line"/>
      <point x="309" y="459" type="line"/>
      <point x="212" y="459" type="line"/>
      <point x="190" y="274" type="line"/>
    </contour>
    <contour>
      <point x="287" y="-13" type="qcurve"/>
      <point x="251" y="-13"/>
      <point x="251" y="7" type="qcurve"/>
      <point x="254" y="27" type="line"/>
      <point x="262" y="53"/>
      <point x="263" y="74" type="qcurve"/>
      <point x="279" y="204" type="line"/>
      <point x="181" y="204" type="line"/>
      <point x="166" y="72"/>
      <point x="160" y="9" type="qcurve"/>
      <point x="159" y="-1"/>
      <point x="133" y="-13"/>
      <point x="118" y="-13" type="qcurve"/>
      <point x="81" y="-13"/>
      <point x="81" y="9" type="qcurve"/>
      <point x="83" y="24"/>
      <point x="90" y="56"/>
      <point x="93" y="74" type="qcurve"/>
      <point x="108" y="204" type="line"/>
      <point x="65" y="204"/>
      <point x="47" y="201" type="qcurve"/>
      <point x="19" y="201"/>
      <point x="19" y="250" type="qcurve"/>
      <point x="19" y="276"/>
      <point x="43" y="276" type="qcurve"/>
      <point x="74" y="274"/>
      <point x="117" y="274" type="qcurve"/>
      <point x="139" y="459" type="line"/>
      <point x="89" y="459"/>
      <point x="71" y="456" type="qcurve"/>
      <point x="55" y="456"/>
      <point x="42" y="487"/>
      <point x="42" y="501" type="qcurve"/>
      <point x="42" y="531"/>
      <point x="65" y="531" type="qcurve"/>
      <point x="96" y="529"/>
      <point x="148" y="529" type="qcurve"/>
      <point x="166" y="679"/>
      <point x="168" y="705" type="qcurve"/>
      <point x="168" y="723"/>
      <point x="198" y="723" type="qcurve"/>
      <point x="213" y="723"/>
      <point x="244" y="709"/>
      <point x="244" y="693" type="qcurve"/>
      <point x="243" y="688"/>
      <point x="238" y="670"/>
      <point x="221" y="529" type="qcurve"/>
      <point x="318" y="529" type="line"/>
      <point x="335" y="681"/>
      <point x="337" y="705" type="qcurve"/>
      <point x="337" y="723"/>
      <point x="368" y="723" type="qcurve"/>
      <point x="384" y="723"/>
      <point x="414" y="709"/>
      <point x="414" y="693" type="qcurve"/>
      <point x="408" y="671"/>
      <point x="406" y="660" type="qcurve"/>
      <point x="390" y="529" type="line"/>
      <point x="411" y="529"/>
      <point x="450" y="532" type="qcurve"/>
      <point x="478" y="532"/>
      <point x="478" y="489" type="qcurve"/>
      <point x="478" y="458"/>
      <point x="454" y="458" type="qcurve"/>
      <point x="434" y="459"/>
      <point x="381" y="459" type="qcurve"/>
      <point x="359" y="274" type="line"/>
      <point x="390" y="274"/>
      <point x="426" y="277" type="qcurve"/>
      <point x="455" y="277"/>
      <point x="455" y="234" type="qcurve"/>
      <point x="455" y="203"/>
      <point x="431" y="203" type="qcurve"/>
      <point x="412" y="204"/>
      <point x="351" y="204" type="qcurve"/>
      <point x="335" y="72"/>
      <point x="330" y="9" type="qcurve"/>
      <point x="328" y="-1"/>
      <point x="303" y="-13"/>
    </contour>
  </outline>
</glyph>
<glyph name="dollar" format="2">
  <advance height="1000" width="500"/>
  <unicode hex="0024"/>
  <outline>
    <contour>
      <point x="294" y="332" type="qcurve"/>
      <point x="294" y="59" type="line"/>
      <point x="354" y="74"/>
      <point x="378" y="130" type="qcurve"/>
      <point x="391" y="158"/>
      <point x="391" y="184" type="qcurve"/>
      <point x="391" y="303"/>
    </contour>
    <contour>
      <point x="219" y="433" type="qcurve"/>
      <point x="219" y="638" type="line"/>
      <point x="182" y="630"/>
      <point x="132" y="564"/>
      <point x="132" y="524" type="qcurve"/>
      <point x="132" y="486"/>
      <point x="169" y="447"/>
    </contour>
    <contour>
      <point x="271" y="-129" type="qcurve"/>
      <point x="255" y="-129"/>
      <point x="217" y="-112"/>
      <point x="217" y="-98" type="qcurve"/>
      <point x="219" y="-21" type="line"/>
      <point x="113" y="-16"/>
      <point x="34" y="89" type="qcurve"/>
      <point x="27" y="97"/>
      <point x="27" y="108" type="qcurve"/>
      <point x="27" y="126"/>
      <point x="53" y="165"/>
      <point x="69" y="165" type="qcurve"/>
      <point x="84" y="165"/>
      <point x="88" y="154" type="qcurve"/>
      <point x="142" y="65"/>
      <point x="219" y="54" type="qcurve"/>
      <point x="219" y="355" type="line"/>
      <point x="187" y="365" type="line"/>
      <point x="51" y="407"/>
      <point x="51" y="526" type="qcurve"/>
      <point x="51" y="617"/>
      <point x="132" y="679" type="qcurve"/>
      <point x="171" y="708"/>
      <point x="218" y="714" type="qcurve"/>
      <point x="216" y="741"/>
      <point x="216" y="761" type="qcurve"/>
      <point x="216" y="776"/>
      <point x="243" y="776" type="qcurve"/>
      <point x="260" y="776"/>
      <point x="296" y="761"/>
      <point x="296" y="747" type="qcurve"/>
      <point x="295" y="715" type="line"/>
      <point x="368" y="704"/>
      <point x="416" y="656" type="qcurve"/>
      <point x="438" y="634"/>
      <point x="438" y="611" type="qcurve"/>
      <point x="438" y="594"/>
      <point x="424" y="556"/>
      <point x="407" y="556" type="qcurve"/>
      <point x="395" y="556"/>
      <point x="378" y="578" type="qcurve"/>
      <point x="356" y="608"/>
      <point x="315" y="628" type="qcurve"/>
      <point x="297" y="638"/>
      <point x="294" y="638" type="qcurve"/>
      <point x="294" y="410" type="line"/>
      <point x="472" y="363"/>
      <point x="472" y="192" type="qcurve"/>
      <point x="472" y="112"/>
      <point x="381" y="-6"/>
      <point x="295" y="-19" type="qcurve"/>
      <point x="297" y="-115" type="line"/>
      <point x="297" y="-129"/>
    </contour>
  </outline>
</glyph>
<glyph name="percent" format="2">
  <advance height="1000" width="500"/>
  <unicode hex="0025"/>
  <outline>
    <contour>
      <point x="366" y="37" type="qcurve"/>
      <point x="409" y="37"/>
      <point x="409" y="156" type="qcurve"/>
      <point x="409" y="203"/>
      <point x="387" y="269"/>
      <point x="368" y="269" type="qcurve"/>
      <point x="354" y="269"/>
      <point x="325" y="216"/>
      <point x="325" y="152" type="qcurve"/>
      <point x="325" y="121"/>
      <point x="334" y="68"/>
      <point x="353" y="37"/>
    </contour>
    <contour>
      <point x="139" y="428" type="qcurve"/>
      <point x="180" y="428"/>
      <point x="180" y="547" type="qcurve"/>
      <point x="180" y="594"/>
      <point x="159" y="660"/>
      <point x="140" y="660" type="qcurve"/>
      <point x="127" y="660"/>
      <point x="96" y="604"/>
      <point x="96" y="543" type="qcurve"/>
      <point x="96" y="428"/>
    </contour>
    <contour>
      <point x="140" y="361" type="qcurve"/>
      <point x="83" y="361"/>
      <point x="29" y="464"/>
      <point x="29" y="543" type="qcurve"/>
      <point x="29" y="636"/>
      <point x="67" y="688" type="qcurve"/>
      <point x="74" y="700"/>
      <point x="86" y="700" type="qcurve"/>
      <point x="93" y="700"/>
      <point x="93" y="702" type="qcurve"/>
      <point x="93" y="703" type="line"/>
      <point x="110" y="727"/>
      <point x="142" y="727" type="qcurve"/>
      <point x="178" y="727"/>
      <point x="224" y="676"/>
      <point x="247" y="593"/>
      <point x="247" y="543" type="qcurve"/>
      <point x="247" y="496"/>
      <point x="225" y="414"/>
      <point x="178" y="361"/>
    </contour>
    <contour>
      <point x="138" y="-37" type="qcurve"/>
      <point x="121" y="-37"/>
      <point x="92" y="-7"/>
      <point x="92" y="9" type="qcurve"/>
      <point x="92" y="15"/>
      <point x="119" y="80" type="qcurve"/>
      <point x="316" y="651" type="line"/>
      <point x="326" y="679"/>
      <point x="338" y="729" type="qcurve"/>
      <point x="342" y="745"/>
      <point x="359" y="745" type="qcurve"/>
      <point x="371" y="745"/>
      <point x="393" y="728"/>
      <point x="408" y="708"/>
      <point x="408" y="698" type="qcurve"/>
      <point x="361" y="568"/>
      <point x="183" y="55" type="qcurve"/>
      <point x="171" y="20"/>
      <point x="160" y="-20" type="qcurve"/>
      <point x="155" y="-37"/>
    </contour>
    <contour>
      <point x="368" y="-30" type="qcurve"/>
      <point x="310" y="-30"/>
      <point x="257" y="73"/>
      <point x="257" y="152" type="qcurve"/>
      <point x="257" y="245"/>
      <point x="295" y="297" type="qcurve"/>
      <point x="303" y="309"/>
      <point x="315" y="309" type="qcurve"/>
      <point x="322" y="309"/>
      <point x="322" y="311" type="qcurve"/>
      <point x="321" y="312" type="line"/>
      <point x="339" y="336"/>
      <point x="370" y="336" type="qcurve"/>
      <point x="439" y="336"/>
      <point x="464" y="243" type="qcurve"/>
      <point x="475" y="202"/>
      <point x="475" y="152" type="qcurve"/>
      <point x="475" y="105"/>
      <point x="453" y="23"/>
      <point x="405" y="-30"/>
    </contour>
  </outline>
</glyph>
<glyph name="ampersand" format="2">
  <advance height="1000" width="500"/>
  <unicode hex="0026"/>
  <outline>
    <contour>
      <point x="180" y="48" type="qcurve"/>
      <point x="239" y="48"/>
      <point x="285" y="123" type="qcurve"/>
      <point x="201" y="253"/>
      <point x="161" y="330" type="qcurve"/>
      <point x="103" y="267"/>
      <point x="103" y="155" type="qcurve"/>
      <point x="103" y="110"/>
      <point x="143" y="48"/>
    </contour>
    <contour>
      <point x="187" y="449" type="qcurve"/>
      <point x="264" y="516"/>
      <point x="264" y="583" type="qcurve"/>
      <point x="264" y="622"/>
      <point x="240" y="646"/>
      <point x="218" y="646" type="qcurve"/>
      <point x="197" y="646"/>
      <point x="165" y="603"/>
      <point x="165" y="556" type="qcurve"/>
      <point x="165" y="511"/>
    </contour>
    <contour>
      <point x="182" y="-23" type="qcurve"/>
      <point x="107" y="-23"/>
      <point x="30" y="79"/>
      <point x="30" y="153" type="qcurve"/>
      <point x="30" y="306"/>
      <point x="129" y="399" type="qcurve"/>
      <point x="89" y="495"/>
      <point x="89" y="557" type="qcurve"/>
      <point x="89" y="626"/>
      <point x="161" y="717"/>
      <point x="218" y="717" type="qcurve"/>
      <point x="271" y="717"/>
      <point x="339" y="649"/>
      <point x="339" y="587" type="qcurve"/>
      <point x="339" y="547"/>
      <point x="303" y="473"/>
      <point x="245" y="409"/>
      <point x="216" y="382" type="qcurve"/>
      <point x="270" y="275"/>
      <point x="323" y="195" type="qcurve"/>
      <point x="358" y="274"/>
      <point x="371" y="361" type="qcurve"/>
      <point x="376" y="399"/>
      <point x="403" y="399" type="qcurve"/>
      <point x="411" y="399"/>
      <point x="433" y="389"/>
      <point x="450" y="373"/>
      <point x="450" y="362" type="qcurve"/>
      <point x="450" y="355"/>
      <point x="444" y="328" type="qcurve"/>
      <point x="423" y="231"/>
      <point x="369" y="125" type="qcurve"/>
      <point x="419" y="46"/>
      <point x="495" y="7"/>
      <point x="495" y="-8" type="qcurve"/>
      <point x="495" y="-22"/>
      <point x="464" y="-22" type="qcurve"/>
      <point x="380" y="-22"/>
      <point x="327" y="58" type="qcurve"/>
      <point x="270" y="-23"/>
    </contour>
  </outline>
</glyph>
<glyph name="quotesingle" format="2">
  <advance height="1000" width="500"/>
  <unicode hex="0027"/>
  <outline>
    <contour>
      <point x="250" y="470" type="qcurve"/>
      <point x="216" y="470"/>
      <point x="213" y="492" type="qcurve"/>
      <point x="207" y="703" type="line"/>
      <point x="207" y="718"/>
      <point x="236" y="731"/>
      <point x="250" y="731" type="qcurve"/>
      <point x="293" y="731"/>
      <point x="293" y="703" type="qcurve"/>
      <point x="287" y="492" type="line"/>
      <point x="287" y="470"/>
    </contour>
  </outline>
</glyph>
<glyph name="parenleft" format="2">
  <advance height="1000" width="500"/>
  <unicode hex="0028"/>
  <outline>
    <contour>
      <point x="376" y="-165" type="qcurve"/>
      <point x="365" y="-165"/>
      <point x="339" y="-144" type="qcurve"/>
      <point x="280" y="-101"/>
      <point x="210" y="11" type="qcurve"/>
      <point x="134" y="135"/>
      <point x="134" y="286" type="qcurve"/>
      <point x="134" y="442"/>
      <point x="209" y="588" type="qcurve"/>
      <point x="277" y="718"/>
      <point x="340" y="772" type="qcurve"/>
      <point x="369" y="797"/>
      <point x="381" y="797" type="qcurve"/>
      <point x="406" y="797"/>
      <point x="406" y="774" type="qcurve"/>
      <point x="406" y="763"/>
      <point x="398" y="755" type="qcurve"/>
      <point x="315" y="668"/>
      <point x="272" y="531" type="qcurve"/>
      <point x="228" y="389"/>
      <point x="228" y="286" type="qcurve"/>
      <point x="228" y="188"/>
      <point x="311" y="-50"/>
      <point x="384" y="-115" type="qcurve"/>
      <point x="396" y="-125"/>
      <point x="396" y="-140" type="qcurve"/>
      <point x="396" y="-150"/>
      <point x="384" y="-165"/>
    </contour>
  </outline>
</glyph>
<glyph name="parenright" format="2">
  <advance height="1000" width="500"/>
  <unicode hex="0029"/>
  <outline>
    <contour>
      <point x="124" y="-165" type="qcurve"/>
      <point x="115" y="-165"/>
      <point x="104" y="-150"/>
      <point x="104" y="-140" type="qcurve"/>
      <point x="104" y="-125"/>
      <point x="115" y="-115" type="qcurve"/>
      <point x="189" y="-50"/>
      <point x="272" y="188"/>
      <point x="272" y="286" type="qcurve"/>
      <point x="272" y="389"/>
      <point x="229" y="531" type="qcurve"/>
      <point x="185" y="668"/>
      <point x="102" y="755" type="qcurve"/>
      <point x="94" y="763"/>
      <point x="94" y="774" type="qcurve"/>
      <point x="94" y="797"/>
      <point x="119" y="797" type="qcurve"/>
      <point x="132" y="797"/>
      <point x="161" y="772" type="qcurve"/>
      <point x="221" y="718"/>
      <point x="291" y="588" type="qcurve"/>
      <point x="366" y="440"/>
      <point x="366" y="286" type="qcurve"/>
      <point x="366" y="137"/>
      <point x="291" y="11" type="qcurve"/>
      <point x="222" y="-101"/>
      <point x="162" y="-144" type="qcurve"/>
      <point x="134" y="-165"/>
    </contour>
  </outline>
</glyph>
<glyph name="asterisk" format="2">
  <advance height="1000" width="500"/>
  <unicode hex="002A"/>
  <outline>
    <contour>
      <point x="253" y="61" type="qcurve"/>
      <point x="237" y="61"/>
      <point x="212" y="78"/>
      <point x="212" y="94" type="qcurve"/>
      <point x="215" y="147"/>
      <point x="218" y="294" type="qcurve"/>
      <point x="146" y="233"/>
      <point x="132" y="220" type="qcurve"/>
      <point x="99" y="189"/>
      <point x="87" y="189" type="qcurve"/>
      <point x="69" y="189"/>
      <point x="46" y="231"/>
      <point x="46" y="248" type="qcurve"/>
      <point x="46" y="264"/>
      <point x="56" y="271" type="qcurve"/>
      <point x="195" y="369" type="line"/>
      <point x="60" y="466" type="line"/>
      <point x="49" y="476"/>
      <point x="49" y="493" type="qcurve"/>
      <point x="49" y="512"/>
      <point x="70" y="553"/>
      <point x="86" y="553" type="qcurve"/>
      <point x="95" y="553"/>
      <point x="102" y="546" type="qcurve"/>
      <point x="219" y="444" type="line"/>
      <point x="217" y="563" type="line"/>
      <point x="213" y="624"/>
      <point x="213" y="640" type="qcurve"/>
      <point x="213" y="657"/>
      <point x="243" y="676"/>
      <point x="260" y="676" type="qcurve"/>
      <point x="299" y="676"/>
      <point x="299" y="643" type="qcurve"/>
      <point x="294" y="444" type="line"/>
      <point x="347" y="489"/>
      <point x="370" y="510" type="qcurve"/>
      <point x="411" y="550"/>
      <point x="424" y="550" type="qcurve"/>
      <point x="441" y="550"/>
      <point x="465" y="508"/>
      <point x="465" y="490" type="qcurve"/>
      <point x="465" y="475"/>
      <point x="453" y="466" type="qcurve"/>
      <point x="410" y="436"/>
      <point x="320" y="369" type="qcurve"/>
      <point x="392" y="315"/>
      <point x="432" y="287"/>
      <point x="453" y="272" type="qcurve"/>
      <point x="462" y="263"/>
      <point x="462" y="246" type="qcurve"/>
      <point x="462" y="227"/>
      <point x="442" y="185"/>
      <point x="425" y="185" type="qcurve"/>
      <point x="416" y="185"/>
      <point x="376" y="224" type="qcurve"/>
      <point x="356" y="241"/>
      <point x="341" y="252" type="qcurve"/>
      <point x="293" y="294" type="line"/>
      <point x="299" y="97" type="line"/>
      <point x="299" y="80"/>
      <point x="269" y="61"/>
    </contour>
  </outline>
</glyph>
<glyph name="plus" format="2">
  <advance height="1000" width="500"/>
  <unicode hex="002B"/>
  <outline>
    <contour>
      <point x="251" y="85" type="qcurve"/>
      <point x="236" y="85"/>
      <point x="210" y="102"/>
      <point x="210" y="117" type="qcurve"/>
      <point x="213" y="162"/>
      <point x="213" y="310" type="qcurve"/>
      <point x="90" y="310"/>
      <point x="73" y="307" type="qcurve"/>
      <point x="54" y="307"/>
      <point x="40" y="337"/>
      <point x="40" y="351" type="qcurve"/>
      <point x="41" y="382"/>
      <point x="68" y="382" type="qcurve"/>
      <point x="96" y="380"/>
      <point x="213" y="380" type="qcurve"/>
      <point x="213" y="538"/>
      <point x="211" y="569" type="qcurve"/>
      <point x="211" y="595"/>
      <point x="243" y="595" type="qcurve"/>
      <point x="257" y="595"/>
      <point x="286" y="579"/>
      <point x="286" y="564" type="qcurve"/>
      <point x="283" y="518"/>
      <point x="283" y="380" type="qcurve"/>
      <point x="372" y="380"/>
      <point x="425" y="383" type="qcurve"/>
      <point x="443" y="383"/>
      <point x="457" y="355"/>
      <point x="457" y="341" type="qcurve"/>
      <point x="457" y="309"/>
      <point x="430" y="309" type="qcurve"/>
      <point x="410" y="309"/>
      <point x="392" y="310" type="qcurve"/>
      <point x="283" y="310" type="line"/>
      <point x="283" y="172"/>
      <point x="284" y="153" type="qcurve"/>
      <point x="284" y="111" type="line"/>
      <point x="284" y="85"/>
    </contour>
  </outline>
</glyph>
<glyph name="comma" format="2">
  <advance height="1000" width="500"/>
  <unicode hex="002C"/>
  <outline>
    <contour>
      <point x="179" y="-131" type="qcurve"/>
      <point x="156" y="-131"/>
      <point x="156" y="-108" type="qcurve"/>
      <point x="156" y="-91"/>
      <point x="167" y="-86" type="qcurve"/>
      <point x="187" y="-72"/>
      <point x="224" y="-27"/>
      <point x="230" y="-13" type="qcurve"/>
      <point x="209" y="-4" type="line"/>
      <point x="175" y="25"/>
      <point x="175" y="61" type="qcurve"/>
      <point x="175" y="93"/>
      <point x="221" y="129"/>
      <point x="251" y="129" type="qcurve"/>
      <point x="280" y="129"/>
      <point x="320" y="81"/>
      <point x="324" y="46" type="qcurve"/>
      <point x="324" y="6"/>
      <point x="307" y="-24" type="qcurve"/>
      <point x="272" y="-85"/>
      <point x="220" y="-116" type="qcurve"/>
      <point x="195" y="-131"/>
    </contour>
  </outline>
</glyph>
<glyph name="slash" format="2">
  <advance height="1000" width="500"/>
  <unicode hex="002F"/>
  <outline>
    <contour>
      <point x="85" y="-77" type="qcurve"/>
      <point x="69" y="-77"/>
      <point x="40" y="-43"/>
      <point x="40" y="-29" type="qcurve"/>
      <point x="40" y="-22"/>
      <point x="43" y="-17" type="qcurve"/>
      <point x="58" y="8"/>
      <point x="70" y="34" type="qcurve"/>
      <point x="367" y="704" type="line"/>
      <point x="399" y="781" type="line"/>
      <point x="403" y="796"/>
      <point x="420" y="796" type="qcurve"/>
      <point x="431" y="796"/>
      <point x="454" y="778"/>
      <point x="468" y="756"/>
      <point x="468" y="747" type="qcurve"/>
      <point x="468" y="742"/>
      <point x="466" y="740" type="qcurve"/>
      <point x="444" y="704"/>
      <point x="430" y="673" type="qcurve"/>
      <point x="130" y="1" type="line"/>
      <point x="115" y="-33"/>
      <point x="104" y="-64" type="qcurve"/>
      <point x="100" y="-77"/>
    </contour>
  </outline>
</glyph>
<glyph name="zero" format="2">
  <advance height="1000" width="500"/>
  <unicode hex="0030"/>
  <outline>
    <contour>
      <point x="131" y="184" type="qcurve"/>
      <point x="334" y="599" type="line"/>
      <point x="308" y="644"/>
      <point x="258" y="644" type="qcurve"/>
      <point x="216" y="644"/>
      <point x="171" y="568" type="qcurve"/>
      <point x="120" y="481"/>
      <point x="120" y="339" type="qcurve"/>
      <point x="120" y="226"/>
    </contour>
    <contour>
      <point x="248" y="51" type="qcurve"/>
      <point x="293" y="51"/>
      <point x="353" y="131"/>
      <point x="382" y="273"/>
      <point x="382" y="360" type="qcurve"/>
      <point x="382" y="452"/>
      <point x="369" y="506" type="qcurve"/>
      <point x="166" y="93" type="line"/>
      <point x="196" y="51"/>
    </contour>
    <contour>
      <point x="250" y="-24" type="qcurve"/>
      <point x="173" y="-24"/>
      <point x="120" y="32" type="qcurve"/>
      <point x="99" y="54"/>
      <point x="84" y="85" type="qcurve"/>
      <point x="37" y="184"/>
      <point x="37" y="339" type="qcurve"/>
      <point x="37" y="467"/>
      <point x="72" y="568" type="qcurve"/>
      <point x="105" y="665"/>
      <point x="137" y="665" type="qcurve"/>
      <point x="154" y="665"/>
      <point x="156" y="661" type="qcurve"/>
      <point x="201" y="719"/>
      <point x="262" y="719" type="qcurve"/>
      <point x="336" y="719"/>
      <point x="382" y="664" type="qcurve"/>
      <point x="464" y="566"/>
      <point x="464" y="354" type="qcurve"/>
      <point x="464" y="202"/>
      <point x="414" y="91" type="qcurve"/>
      <point x="357" y="-24"/>
    </contour>
  </outline>
</glyph>
<glyph name="one" format="2">
  <advance height="1000" width="500"/>
  <unicode hex="0031"/>
  <outline>
    <contour>
      <point x="97" y="-12" type="qcurve"/>
      <point x="77" y="-12"/>
      <point x="57" y="30"/>
      <point x="57" y="45" type="qcurve"/>
      <point x="57" y="69"/>
      <point x="78" y="69" type="qcurve"/>
      <point x="118" y="68" type="line"/>
      <point x="212" y="69" type="line"/>
      <point x="214" y="157"/>
      <point x="214" y="598" type="qcurve"/>
      <point x="181" y="578"/>
      <point x="117" y="536"/>
      <point x="105" y="536" type="qcurve"/>
      <point x="88" y="536"/>
      <point x="64" y="571"/>
      <point x="64" y="585" type="qcurve"/>
      <point x="64" y="600"/>
      <point x="75" y="605" type="qcurve"/>
      <point x="204" y="679" type="line"/>
      <point x="208" y="682"/>
      <point x="221" y="699"/>
      <point x="240" y="716"/>
      <point x="250" y="716" type="qcurve"/>
      <point x="265" y="716"/>
      <point x="303" y="688"/>
      <point x="303" y="671" type="qcurve"/>
      <point x="303" y="659"/>
      <point x="298" y="623"/>
      <point x="298" y="600" type="qcurve"/>
      <point x="298" y="128"/>
      <point x="299" y="107" type="qcurve"/>
      <point x="299" y="69" type="line"/>
      <point x="407" y="71" type="line"/>
      <point x="426" y="71"/>
      <point x="445" y="27"/>
      <point x="445" y="12" type="qcurve"/>
      <point x="445" y="-11"/>
      <point x="425" y="-11" type="qcurve"/>
      <point x="390" y="-5"/>
      <point x="304" y="-5" type="qcurve"/>
      <point x="162" y="-5"/>
    </contour>
  </outline>
</glyph>
<glyph name="two" format="2">
  <advance height="1000" width="500"/>
  <unicode hex="0032"/>
  <outline>
    <contour>
      <point x="79" y="-10" type="qcurve"/>
      <point x="74" y="-10" type="line"/>
      <point x="53" y="-10"/>
      <point x="28" y="27"/>
      <point x="28" y="44" type="qcurve"/>
      <point x="28" y="53"/>
      <point x="37" y="70"/>
      <point x="48" y="83"/>
      <point x="52" y="90" type="qcurve"/>
      <point x="111" y="203"/>
      <point x="264" y="347" type="qcurve"/>
      <point x="381" y="452"/>
      <point x="381" y="547" type="qcurve"/>
      <point x="381" y="590"/>
      <point x="332" y="643"/>
      <point x="281" y="643" type="qcurve"/>
      <point x="180" y="643"/>
      <point x="148" y="550" type="qcurve"/>
      <point x="137" y="519"/>
      <point x="109" y="519" type="qcurve"/>
      <point x="95" y="519"/>
      <point x="75" y="540"/>
      <point x="65" y="563"/>
      <point x="65" y="570" type="qcurve"/>
      <point x="65" y="582"/>
      <point x="78" y="606" type="qcurve"/>
      <point x="104" y="659"/>
      <point x="185" y="700" type="qcurve"/>
      <point x="226" y="719"/>
      <point x="282" y="719" type="qcurve"/>
      <point x="368" y="719"/>
      <point x="466" y="623"/>
      <point x="466" y="547" type="qcurve"/>
      <point x="466" y="427"/>
      <point x="318" y="294" type="qcurve"/>
      <point x="186" y="174"/>
      <point x="129" y="71" type="qcurve"/>
      <point x="165" y="75"/>
      <point x="273" y="75" type="qcurve"/>
      <point x="381" y="74" type="line"/>
      <point x="440" y="75" type="line"/>
      <point x="458" y="75"/>
      <point x="480" y="34"/>
      <point x="480" y="17" type="qcurve"/>
      <point x="480" y="-7"/>
      <point x="457" y="-7" type="qcurve"/>
      <point x="447" y="-7"/>
      <point x="426" y="-4" type="qcurve"/>
      <point x="390" y="1"/>
      <point x="317" y="1" type="qcurve"/>
      <point x="173" y="1"/>
      <point x="133" y="-2" type="qcurve"/>
      <point x="109" y="-4"/>
    </contour>
  </outline>
</glyph>
<glyph name="three" format="2">
  <advance height="1000" width="500"/>
  <unicode hex="0033"/>
  <outline>
    <contour>
      <point x="222" y="-24" type="qcurve"/>
      <point x="108" y="-24"/>
      <point x="30" y="60" type="qcurve"/>
      <point x="22" y="70"/>
      <point x="22" y="84" type="qcurve"/>
      <point x="22" y="103"/>
      <point x="43" y="143"/>
      <point x="60" y="143" type="qcurve"/>
      <point x="70" y="143"/>
      <point x="78" y="134" type="qcurve"/>
      <point x="106" y="94"/>
      <point x="173" y="51"/>
      <point x="222" y="51" type="qcurve"/>
      <point x="281" y="51"/>
      <point x="355" y="96"/>
      <point x="388" y="173"/>
      <point x="388" y="217" type="qcurve"/>
      <point x="388" y="276"/>
      <point x="316" y="346"/>
      <point x="261" y="346" type="qcurve"/>
      <point x="229" y="346"/>
      <point x="188" y="337" type="qcurve"/>
      <point x="168" y="337"/>
      <point x="148" y="374"/>
      <point x="148" y="388" type="qcurve"/>
      <point x="148" y="411"/>
      <point x="167" y="411" type="qcurve"/>
      <point x="278" y="423"/>
      <point x="334" y="484" type="qcurve"/>
      <point x="360" y="513"/>
      <point x="360" y="551" type="qcurve"/>
      <point x="360" y="645"/>
      <point x="264" y="645" type="qcurve"/>
      <point x="184" y="645"/>
      <point x="121" y="568" type="qcurve"/>
      <point x="110" y="551"/>
      <point x="94" y="551" type="qcurve"/>
      <point x="89" y="551"/>
      <point x="69" y="565"/>
      <point x="54" y="587"/>
      <point x="54" y="600" type="qcurve"/>
      <point x="54" y="616"/>
      <point x="65" y="626" type="qcurve"/>
      <point x="145" y="719"/>
      <point x="262" y="719" type="qcurve"/>
      <point x="343" y="719"/>
      <point x="441" y="633"/>
      <point x="441" y="558" type="qcurve"/>
      <point x="441" y="434"/>
      <point x="347" y="398" type="qcurve"/>
      <point x="402" y="398"/>
      <point x="449" y="312" type="qcurve"/>
      <point x="470" y="272"/>
      <point x="470" y="218" type="qcurve"/>
      <point x="470" y="154"/>
      <point x="418" y="45"/>
      <point x="308" y="-24"/>
    </contour>
  </outline>
</glyph>
<glyph name="four" format="2">
  <advance height="1000" width="500"/>
  <unicode hex="0034"/>
  <outline>
    <contour>
      <point x="365" y="-17" type="qcurve"/>
      <point x="349" y="-17"/>
      <point x="308" y="1"/>
      <point x="308" y="17" type="qcurve"/>
      <point x="310" y="80"/>
      <point x="310" y="151" type="qcurve"/>
      <point x="97" y="138"/>
      <point x="82" y="135" type="qcurve"/>
      <point x="81" y="132"/>
      <point x="69" y="132" type="qcurve"/>
      <point x="50" y="132"/>
      <point x="19" y="166"/>
      <point x="19" y="185" type="qcurve"/>
      <point x="19" y="197"/>
      <point x="33" y="220"/>
      <point x="51" y="244"/>
      <point x="57" y="254" type="qcurve"/>
      <point x="263" y="613"/>
      <point x="292" y="705" type="qcurve"/>
      <point x="297" y="717"/>
      <point x="311" y="717" type="qcurve"/>
      <point x="323" y="717"/>
      <point x="348" y="696"/>
      <point x="365" y="669"/>
      <point x="365" y="657" type="qcurve"/>
      <point x="365" y="651"/>
      <point x="353" y="630" type="qcurve"/>
      <point x="337" y="604"/>
      <point x="330" y="590" type="qcurve"/>
      <point x="222" y="383"/>
      <point x="117" y="213" type="qcurve"/>
      <point x="310" y="223" type="line"/>
      <point x="310" y="428"/>
      <point x="309" y="470"/>
      <point x="307" y="515"/>
      <point x="307" y="525" type="qcurve"/>
      <point x="307" y="541"/>
      <point x="334" y="541" type="qcurve"/>
      <point x="351" y="541"/>
      <point x="392" y="523"/>
      <point x="392" y="507" type="qcurve"/>
      <point x="390" y="389"/>
      <point x="390" y="227" type="qcurve"/>
      <point x="416" y="231" type="line"/>
      <point x="444" y="233" type="line"/>
      <point x="463" y="233"/>
      <point x="482" y="190"/>
      <point x="482" y="175" type="qcurve"/>
      <point x="482" y="153"/>
      <point x="464" y="153" type="qcurve"/>
      <point x="390" y="155" type="line"/>
      <point x="390" y="103" type="line"/>
      <point x="393" y="57"/>
      <point x="393" y="-1" type="qcurve"/>
      <point x="393" y="-17"/>
    </contour>
  </outline>
</glyph>
<glyph name="five" format="2">
  <advance height="1000" width="500"/>
  <unicode hex="0035"/>
  <outline>
    <contour>
      <point x="228" y="-25" type="qcurve"/>
      <point x="118" y="-25"/>
      <point x="41" y="71" type="qcurve"/>
      <point x="33" y="81"/>
      <point x="33" y="95" type="qcurve"/>
      <point x="33" y="115"/>
      <point x="55" y="157"/>
      <point x="72" y="157" type="qcurve"/>
      <point x="86" y="157"/>
      <point x="90" y="146" type="qcurve"/>
      <point x="144" y="55"/>
      <point x="229" y="51" type="qcurve"/>
      <point x="281" y="51"/>
      <point x="347" y="96"/>
      <point x="382" y="178"/>
      <point x="382" y="223" type="qcurve"/>
      <point x="382" y="273"/>
      <point x="347" y="341"/>
      <point x="290" y="376"/>
      <point x="257" y="376" type="qcurve"/>
      <point x="208" y="376"/>
      <point x="146" y="336"/>
      <point x="116" y="303" type="qcurve"/>
      <point x="110" y="297"/>
      <point x="100" y="297" type="qcurve"/>
      <point x="84" y="297"/>
      <point x="57" y="330"/>
      <point x="57" y="351" type="qcurve"/>
      <point x="57" y="354"/>
      <point x="67" y="397" type="qcurve"/>
      <point x="103" y="649"/>
      <point x="103" y="679" type="qcurve"/>
      <point x="104" y="698"/>
      <point x="127" y="698" type="qcurve"/>
      <point x="146" y="698"/>
      <point x="165" y="687" type="qcurve"/>
      <point x="392" y="706"/>
      <point x="403" y="708" type="qcurve"/>
      <point x="422" y="708"/>
      <point x="442" y="668"/>
      <point x="442" y="653" type="qcurve"/>
      <point x="442" y="631"/>
      <point x="412" y="630"/>
      <point x="391" y="630" type="qcurve"/>
      <point x="175" y="612" type="line"/>
      <point x="144" y="412" type="line"/>
      <point x="189" y="448"/>
      <point x="267" y="448" type="qcurve"/>
      <point x="379" y="445"/>
      <point x="437" y="343" type="qcurve"/>
      <point x="463" y="294"/>
      <point x="463" y="224" type="qcurve"/>
      <point x="463" y="159"/>
      <point x="416" y="47"/>
      <point x="314" y="-25"/>
    </contour>
  </outline>
</glyph>
<glyph name="six" format="2">
  <advance height="1000" width="500"/>
  <unicode hex="0036"/>
  <outline>
    <contour>
      <point x="248" y="50" type="qcurve"/>
      <point x="315" y="50"/>
      <point x="387" y="147"/>
      <point x="387" y="224" type="qcurve"/>
      <point x="387" y="305"/>
      <point x="327" y="351" type="qcurve"/>
      <point x="299" y="370"/>
      <point x="262" y="370" type="qcurve"/>
      <point x="213" y="370"/>
      <point x="146" y="325"/>
      <point x="110" y="246"/>
      <point x="110" y="197" type="qcurve"/>
      <point x="110" y="131"/>
      <point x="182" y="50"/>
    </contour>
    <contour>
      <point x="248" y="-23" type="qcurve"/>
      <point x="180" y="-23"/>
      <point x="82" y="37"/>
      <point x="28" y="136"/>
      <point x="28" y="195" type="qcurve"/>
      <point x="28" y="261"/>
      <point x="51" y="332" type="qcurve"/>
      <point x="87" y="444"/>
      <point x="228" y="682" type="qcurve"/>
      <point x="232" y="692" type="line"/>
      <point x="241" y="720"/>
      <point x="274" y="720" type="qcurve"/>
      <point x="279" y="720"/>
      <point x="304" y="717"/>
      <point x="328" y="703"/>
      <point x="328" y="688" type="qcurve"/>
      <point x="328" y="677"/>
      <point x="318" y="665" type="qcurve"/>
      <point x="215" y="531"/>
      <point x="161" y="413" type="qcurve"/>
      <point x="175" y="442"/>
      <point x="265" y="442" type="qcurve"/>
      <point x="379" y="442"/>
      <point x="443" y="337" type="qcurve"/>
      <point x="469" y="288"/>
      <point x="469" y="227" type="qcurve"/>
      <point x="469" y="161"/>
      <point x="422" y="48"/>
      <point x="324" y="-23"/>
    </contour>
  </outline>
</glyph>
<glyph name="seven" format="2">
  <advance height="1000" width="500"/>
  <unicode hex="0037"/>
  <outline>
    <contour>
      <point x="185" y="-17" type="qcurve"/>
      <point x="133" y="-17"/>
      <point x="133" y="15" type="qcurve"/>
      <point x="133" y="47"/>
      <point x="231" y="296" type="qcurve"/>
      <point x="312" y="505"/>
      <point x="367" y="628" type="qcurve"/>
      <point x="125" y="604"/>
      <point x="97" y="600" type="qcurve"/>
      <point x="59" y="600"/>
      <point x="47" y="647" type="qcurve"/>
      <point x="42" y="665" type="line"/>
      <point x="42" y="680"/>
      <point x="57" y="680" type="qcurve"/>
      <point x="65" y="680"/>
      <point x="79" y="678"/>
      <point x="89" y="678" type="qcurve"/>
      <point x="377" y="701" type="line"/>
      <point x="387" y="702"/>
      <point x="406" y="708"/>
      <point x="420" y="708" type="qcurve"/>
      <point x="437" y="705"/>
      <point x="468" y="673"/>
      <point x="468" y="654" type="qcurve"/>
      <point x="453" y="621" type="line"/>
      <point x="443" y="605"/>
      <point x="423" y="559" type="qcurve"/>
      <point x="288" y="268"/>
      <point x="220" y="4" type="qcurve"/>
      <point x="216" y="-17"/>
    </contour>
  </outline>
</glyph>
<glyph name="eight" format="2">
  <advance height="1000" width="500"/>
  <unicode hex="0038"/>
  <outline>
    <contour>
      <point x="385" y="559" type="qcurve"/>
      <point x="374" y="563"/>
      <point x="366" y="576" type="qcurve"/>
      <point x="327" y="647"/>
      <point x="255" y="647" type="qcurve"/>
      <point x="201" y="647"/>
      <point x="138" y="586"/>
      <point x="138" y="544" type="qcurve"/>
      <point x="138" y="508"/>
      <point x="184" y="458"/>
      <point x="229" y="435" type="qcurve"/>
      <point x="292" y="480"/>
    </contour>
    <contour>
      <point x="235" y="52" type="qcurve"/>
      <point x="304" y="52"/>
      <point x="383" y="117"/>
      <point x="383" y="179" type="qcurve"/>
      <point x="383" y="227"/>
      <point x="351" y="287"/>
      <point x="286" y="331"/>
      <point x="239" y="353" type="qcurve"/>
      <point x="177" y="307"/>
      <point x="108" y="225"/>
      <point x="108" y="176" type="qcurve"/>
      <point x="108" y="144"/>
      <point x="135" y="87"/>
      <point x="191" y="52"/>
    </contour>
    <contour>
      <point x="299" y="401" type="qcurve"/>
      <point x="381" y="364"/>
      <point x="423" y="314" type="qcurve"/>
      <point x="465" y="262"/>
      <point x="465" y="182" type="qcurve"/>
      <point x="465" y="88"/>
      <point x="344" y="-23"/>
      <point x="235" y="-23" type="qcurve"/>
      <point x="171" y="-23"/>
      <point x="76" y="30"/>
      <point x="26" y="120"/>
      <point x="26" y="173" type="qcurve"/>
      <point x="26" y="289"/>
      <point x="168" y="391" type="qcurve"/>
      <point x="57" y="454"/>
      <point x="57" y="545" type="qcurve"/>
      <point x="57" y="636"/>
      <point x="148" y="694" type="qcurve"/>
      <point x="193" y="718"/>
      <point x="254" y="718" type="qcurve"/>
      <point x="337" y="718"/>
      <point x="390" y="666" type="qcurve"/>
      <point x="432" y="624"/>
      <point x="435" y="600" type="qcurve"/>
      <point x="445" y="606"/>
      <point x="450" y="606" type="qcurve"/>
      <point x="473" y="606"/>
      <point x="473" y="584" type="qcurve"/>
      <point x="473" y="571"/>
      <point x="452" y="546" type="qcurve"/>
      <point x="382" y="466"/>
    </contour>
  </outline>
</glyph>
<glyph name="nine" format="2">
  <advance height="1000" width="500"/>
  <unicode hex="0039"/>
  <outline>
    <contour>
      <point x="377" y="561" type="qcurve"/>
      <point x="376" y="561" type="line"/>
      <point x="360" y="561"/>
      <point x="353" y="578" type="qcurve"/>
      <point x="345" y="608"/>
      <point x="311" y="634" type="qcurve"/>
      <point x="293" y="644"/>
      <point x="265" y="644" type="qcurve"/>
      <point x="201" y="644"/>
      <point x="105" y="512"/>
      <point x="105" y="445" type="qcurve"/>
      <point x="105" y="391"/>
      <point x="145" y="331"/>
      <point x="183" y="331" type="qcurve"/>
      <point x="240" y="331"/>
      <point x="311" y="400"/>
      <point x="345" y="463" type="qcurve"/>
      <point x="368" y="509"/>
      <point x="375" y="551" type="qcurve"/>
      <point x="376" y="557"/>
    </contour>
    <contour>
      <point x="313" y="-19" type="qcurve"/>
      <point x="279" y="-19"/>
      <point x="279" y="9" type="qcurve"/>
      <point x="279" y="19"/>
      <point x="281" y="28" type="qcurve"/>
      <point x="335" y="323"/>
      <point x="335" y="329" type="qcurve"/>
      <point x="333" y="321" type="line"/>
      <point x="325" y="311"/>
      <point x="236" y="254"/>
      <point x="184" y="254" type="qcurve"/>
      <point x="139" y="254"/>
      <point x="67" y="300"/>
      <point x="25" y="385"/>
      <point x="25" y="442" type="qcurve"/>
      <point x="25" y="545"/>
      <point x="92" y="631" type="qcurve"/>
      <point x="166" y="718"/>
      <point x="261" y="718" type="qcurve"/>
      <point x="343" y="718"/>
      <point x="382" y="667" type="qcurve"/>
      <point x="394" y="653" type="line"/>
      <point x="395" y="656"/>
      <point x="396" y="668" type="qcurve"/>
      <point x="399" y="689"/>
      <point x="420" y="689" type="qcurve"/>
      <point x="444" y="687"/>
      <point x="467" y="665" type="qcurve"/>
      <point x="477" y="655"/>
      <point x="477" y="642" type="qcurve"/>
      <point x="457" y="582"/>
      <point x="408" y="306"/>
      <point x="370" y="48"/>
      <point x="365" y="8" type="qcurve"/>
      <point x="361" y="-17"/>
    </contour>
  </outline>
</glyph>
<glyph name="colon" format="2">
  <advance height="1000" width="500"/>
  <unicode hex="003A"/>
  <outline>
    <contour>
      <point x="249" y="83" type="qcurve"/>
      <point x="221" y="83"/>
      <point x="180" y="136"/>
      <point x="180" y="161" type="qcurve"/>
      <point x="180" y="193"/>
      <point x="219" y="225"/>
      <point x="249" y="225" type="qcurve"/>
      <point x="275" y="225"/>
      <point x="318" y="172"/>
      <point x="318" y="144" type="qcurve"/>
      <point x="318" y="83"/>
    </contour>
    <contour>
      <point x="249" y="454" type="qcurve"/>
      <point x="221" y="454"/>
      <point x="180" y="507"/>
      <point x="180" y="532" type="qcurve"/>
      <point x="180" y="564"/>
      <point x="219" y="596"/>
      <point x="249" y="596" type="qcurve"/>
      <point x="275" y="596"/>
      <point x="318" y="543"/>
      <point x="318" y="515" type="qcurve"/>
      <point x="318" y="454"/>
    </contour>
  </outline>
</glyph>
<glyph name="semicolon" format="2">
  <advance height="1000" width="500"/>
  <unicode hex="003B"/>
  <outline>
    <contour>
      <point x="261" y="454" type="qcurve"/>
      <point x="233" y="454"/>
      <point x="192" y="507"/>
      <point x="192" y="532" type="qcurve"/>
      <point x="192" y="564"/>
      <point x="232" y="596"/>
      <point x="261" y="596" type="qcurve"/>
      <point x="287" y="596"/>
      <point x="330" y="543"/>
      <point x="330" y="515" type="qcurve"/>
      <point x="330" y="489"/>
      <point x="297" y="454"/>
    </contour>
    <contour>
      <point x="194" y="-19" type="qcurve"/>
      <point x="182" y="-19"/>
      <point x="171" y="-4"/>
      <point x="171" y="4" type="qcurve"/>
      <point x="171" y="17"/>
      <point x="181" y="24" type="qcurve"/>
      <point x="204" y="39"/>
      <point x="242" y="84"/>
      <point x="246" y="101" type="qcurve"/>
      <point x="227" y="104"/>
      <point x="222" y="107" type="qcurve"/>
      <point x="211" y="117"/>
      <point x="190" y="147"/>
      <point x="190" y="169" type="qcurve"/>
      <point x="190" y="198"/>
      <point x="233" y="230"/>
      <point x="260" y="230" type="qcurve"/>
      <point x="287" y="230"/>
      <point x="323" y="184"/>
      <point x="327" y="152" type="qcurve"/>
      <point x="327" y="150"/>
      <point x="328" y="149" type="qcurve"/>
      <point x="328" y="141" type="line"/>
      <point x="328" y="98"/>
      <point x="258" y="8"/>
      <point x="204" y="-16" type="qcurve"/>
      <point x="204" y="-16"/>
      <point x="201" y="-19"/>
    </contour>
  </outline>
</glyph>
<glyph name="less" format="2">
  <advance height="1000" width="500"/>
  <unicode hex="003C"/>
  <outline>
    <contour>
      <point x="414" y="80" type="qcurve"/>
      <point x="409" y="80"/>
      <point x="401" y="85" type="qcurve"/>
      <point x="323" y="149"/>
      <point x="233" y="206" type="qcurve"/>
      <point x="106" y="286"/>
      <point x="93" y="288" type="qcurve"/>
      <point x="69" y="292"/>
      <point x="60" y="321" type="qcurve"/>
      <point x="54" y="337"/>
      <point x="54" y="351" type="qcurve"/>
      <point x="54" y="362"/>
      <point x="63" y="379"/>
      <point x="95" y="391"/>
      <point x="130" y="411" type="qcurve"/>
      <point x="323" y="527"/>
      <point x="401" y="595" type="qcurve"/>
      <point x="409" y="600"/>
      <point x="415" y="600" type="qcurve"/>
      <point x="431" y="600"/>
      <point x="445" y="564"/>
      <point x="445" y="547" type="qcurve"/>
      <point x="445" y="526"/>
      <point x="434" y="519" type="qcurve"/>
      <point x="375" y="482" type="line"/>
      <point x="246" y="396"/>
      <point x="142" y="338" type="qcurve"/>
      <point x="296" y="252"/>
      <point x="400" y="182" type="qcurve"/>
      <point x="414" y="173"/>
      <point x="440" y="155"/>
      <point x="440" y="129" type="qcurve"/>
      <point x="440" y="80"/>
    </contour>
  </outline>
</glyph>
<glyph name="equal" format="2">
  <advance height="1000" width="500"/>
  <unicode hex="003D"/>
  <outline>
    <contour>
      <point x="80" y="208" type="qcurve"/>
      <point x="51" y="208"/>
      <point x="51" y="253" type="qcurve"/>
      <point x="51" y="283"/>
      <point x="75" y="283" type="qcurve"/>
      <point x="105" y="281"/>
      <point x="253" y="281" type="qcurve"/>
      <point x="383" y="281"/>
      <point x="421" y="284" type="qcurve"/>
      <point x="451" y="284"/>
      <point x="451" y="238" type="qcurve"/>
      <point x="451" y="209"/>
      <point x="429" y="209" type="qcurve"/>
      <point x="409" y="209"/>
      <point x="371" y="211"/>
      <point x="252" y="211" type="qcurve"/>
      <point x="97" y="211"/>
    </contour>
    <contour>
      <point x="80" y="396" type="qcurve"/>
      <point x="51" y="396"/>
      <point x="51" y="441" type="qcurve"/>
      <point x="51" y="471"/>
      <point x="75" y="471" type="qcurve"/>
      <point x="105" y="469"/>
      <point x="253" y="469" type="qcurve"/>
      <point x="383" y="469"/>
      <point x="421" y="472" type="qcurve"/>
      <point x="451" y="472"/>
      <point x="451" y="426" type="qcurve"/>
      <point x="451" y="397"/>
      <point x="429" y="397" type="qcurve"/>
      <point x="409" y="397"/>
      <point x="371" y="399"/>
      <point x="252" y="399" type="qcurve"/>
      <point x="97" y="399"/>
    </contour>
  </outline>
</glyph>
<glyph name="greater" format="2">
  <advance height="1000" width="500"/>
  <unicode hex="003E"/>
  <outline>
    <contour>
      <point x="78" y="80" type="qcurve"/>
      <point x="62" y="80"/>
      <point x="48" y="116"/>
      <point x="48" y="133" type="qcurve"/>
      <point x="48" y="156"/>
      <point x="59" y="162" type="qcurve"/>
      <point x="117" y="198" type="line"/>
      <point x="264" y="296"/>
      <point x="351" y="342" type="qcurve"/>
      <point x="216" y="418"/>
      <point x="120" y="480" type="qcurve"/>
      <point x="78" y="509"/>
      <point x="64" y="516" type="qcurve"/>
      <point x="52" y="525"/>
      <point x="52" y="551" type="qcurve"/>
      <point x="52" y="600"/>
      <point x="78" y="600" type="qcurve"/>
      <point x="85" y="600"/>
      <point x="92" y="595" type="qcurve"/>
      <point x="169" y="531"/>
      <point x="260" y="475" type="qcurve"/>
      <point x="388" y="395"/>
      <point x="399" y="393" type="qcurve"/>
      <point x="425" y="388"/>
      <point x="433" y="360" type="qcurve"/>
      <point x="438" y="344"/>
      <point x="438" y="329" type="qcurve"/>
      <point x="438" y="318"/>
      <point x="431" y="302"/>
      <point x="397" y="289"/>
      <point x="359" y="267" type="qcurve"/>
      <point x="176" y="157"/>
      <point x="92" y="85" type="qcurve"/>
      <point x="85" y="80"/>
    </contour>
  </outline>
</glyph>
<glyph name="question" format="2">
  <advance height="1000" width="500"/>
  <unicode hex="003F"/>
  <outline>
    <contour>
      <point x="241" y="-15" type="qcurve"/>
      <point x="216" y="-15"/>
      <point x="184" y="28"/>
      <point x="184" y="51" type="qcurve"/>
      <point x="184" y="73"/>
      <point x="211" y="107"/>
      <point x="241" y="107" type="qcurve"/>
      <point x="263" y="107"/>
      <point x="296" y="61"/>
      <point x="296" y="37" type="qcurve"/>
      <point x="296" y="-15"/>
    </contour>
    <contour>
      <point x="250" y="162" type="qcurve"/>
      <point x="210" y="162"/>
      <point x="197" y="200"/>
      <point x="197" y="224" type="qcurve"/>
      <point x="197" y="337"/>
      <point x="271" y="398" type="qcurve"/>
      <point x="285" y="411" type="line"/>
      <point x="329" y="449"/>
      <point x="359" y="498" type="qcurve"/>
      <point x="374" y="527"/>
      <point x="374" y="568" type="qcurve"/>
      <point x="374" y="603"/>
      <point x="336" y="648"/>
      <point x="299" y="648" type="qcurve"/>
      <point x="168" y="648"/>
      <point x="127" y="518" type="qcurve"/>
      <point x="122" y="500"/>
      <point x="102" y="500" type="qcurve"/>
      <point x="84" y="500"/>
      <point x="51" y="531"/>
      <point x="51" y="548" type="qcurve"/>
      <point x="51" y="555"/>
      <point x="53" y="559" type="qcurve"/>
      <point x="96" y="643"/>
      <point x="216" y="719"/>
      <point x="298" y="719" type="qcurve"/>
      <point x="372" y="719"/>
      <point x="457" y="641"/>
      <point x="457" y="574" type="qcurve"/>
      <point x="457" y="481"/>
      <point x="396" y="420" type="qcurve"/>
      <point x="370" y="393"/>
      <point x="343" y="369" type="qcurve"/>
      <point x="276" y="312"/>
      <point x="276" y="254" type="qcurve"/>
      <point x="276" y="215"/>
      <point x="285" y="185" type="qcurve"/>
      <point x="285" y="162"/>
    </contour>
  </outline>
</glyph>
<glyph name="at" format="2">
  <advance height="1000" width="500"/>
  <unicode hex="0040"/>
  <outline>
    <contour>
      <point x="212" y="222" type="qcurve"/>
      <point x="244" y="222"/>
      <point x="279" y="345"/>
      <point x="282" y="400" type="qcurve"/>
      <point x="284" y="438" type="line"/>
      <point x="284" y="494"/>
      <point x="264" y="494" type="qcurve"/>
      <point x="225" y="494"/>
      <point x="204" y="401" type="qcurve"/>
      <point x="195" y="358"/>
      <point x="195" y="302" type="qcurve"/>
      <point x="195" y="253"/>
      <point x="203" y="222"/>
    </contour>
    <contour>
      <point x="306" y="547" type="line"/>
      <point x="308" y="557"/>
      <point x="323" y="557" type="qcurve"/>
      <point x="339" y="557"/>
      <point x="376" y="528"/>
      <point x="376" y="510" type="qcurve"/>
      <point x="365" y="448"/>
      <point x="350" y="268"/>
      <point x="350" y="233" type="qcurve"/>
      <point x="350" y="219"/>
      <point x="352" y="219" type="qcurve"/>
      <point x="356" y="219"/>
      <point x="376" y="260"/>
      <point x="393" y="348"/>
      <point x="393" y="412" type="qcurve"/>
      <point x="393" y="521"/>
      <point x="319" y="646"/>
      <point x="259" y="646" type="qcurve"/>
      <point x="201" y="646"/>
      <point x="101" y="456"/>
      <point x="101" y="313" type="qcurve"/>
      <point x="101" y="181"/>
      <point x="182" y="49"/>
      <point x="246" y="49" type="qcurve"/>
      <point x="297" y="49"/>
      <point x="385" y="124"/>
      <point x="416" y="185" type="qcurve"/>
      <point x="426" y="202"/>
      <point x="441" y="202" type="qcurve"/>
      <point x="464" y="202"/>
      <point x="464" y="178" type="qcurve"/>
      <point x="464" y="173"/>
      <point x="456" y="151" type="qcurve"/>
      <point x="440" y="104"/>
      <point x="391" y="44" type="qcurve"/>
      <point x="331" y="-23"/>
      <point x="246" y="-23" type="qcurve"/>
      <point x="115" y="-23"/>
      <point x="53" y="132" type="qcurve"/>
      <point x="25" y="205"/>
      <point x="25" y="306" type="qcurve"/>
      <point x="25" y="468"/>
      <point x="151" y="716"/>
      <point x="260" y="716" type="qcurve"/>
      <point x="329" y="716"/>
      <point x="422" y="636"/>
      <point x="468" y="502"/>
      <point x="468" y="415" type="qcurve"/>
      <point x="468" y="335"/>
      <point x="435" y="212"/>
      <point x="381" y="142"/>
      <point x="349" y="142" type="qcurve"/>
      <point x="283" y="142"/>
      <point x="283" y="180" type="qcurve"/>
      <point x="281" y="180"/>
      <point x="231" y="143"/>
      <point x="208" y="143" type="qcurve"/>
      <point x="166" y="143"/>
      <point x="118" y="227"/>
      <point x="118" y="298" type="qcurve"/>
      <point x="118" y="439"/>
      <point x="185" y="527" type="qcurve"/>
      <point x="217" y="566"/>
      <point x="258" y="566" type="qcurve"/>
      <point x="304" y="566"/>
      <point x="307" y="558" type="qcurve"/>
    </contour>
  </outline>
</glyph>
<glyph name="A" format="2">
  <advance height="1000" width="500"/>
  <unicode hex="0041"/>
  <outline>
    <contour>
      <point x="178" y="288" type="line"/>
      <point x="321" y="296" type="line"/>
      <point x="255" y="568" type="line"/>
    </contour>
    <contour>
      <point x="432" y="-14" type="qcurve"/>
      <point x="409" y="-14"/>
      <point x="398" y="2" type="qcurve"/>
      <point x="390" y="37"/>
      <point x="338" y="230" type="qcurve"/>
      <point x="160" y="219" type="line"/>
      <point x="151" y="186"/>
      <point x="124" y="97" type="qcurve"/>
      <point x="102" y="9" type="line"/>
      <point x="94" y="-13"/>
      <point x="56" y="-13" type="qcurve"/>
      <point x="42" y="-13"/>
      <point x="15" y="-1"/>
      <point x="15" y="12" type="qcurve"/>
      <point x="15" y="17"/>
      <point x="19" y="25" type="qcurve"/>
      <point x="53" y="101"/>
      <point x="84" y="211" type="qcurve"/>
      <point x="85" y="211"/>
      <point x="85" y="212" type="qcurve"/>
      <point x="81" y="212" type="line"/>
      <point x="69" y="212"/>
      <point x="55" y="234"/>
      <point x="46" y="259"/>
      <point x="46" y="270" type="qcurve"/>
      <point x="46" y="291"/>
      <point x="65" y="291" type="qcurve"/>
      <point x="106" y="285" type="line"/>
      <point x="204" y="626"/>
      <point x="211" y="683" type="qcurve"/>
      <point x="214" y="700"/>
      <point x="226" y="717"/>
      <point x="243" y="717" type="qcurve"/>
      <point x="260" y="717"/>
      <point x="302" y="697"/>
      <point x="306" y="686" type="qcurve"/>
      <point x="308" y="684"/>
      <point x="308" y="679" type="qcurve"/>
      <point x="308" y="674"/>
      <point x="305" y="663"/>
      <point x="305" y="659" type="qcurve"/>
      <point x="305" y="655"/>
      <point x="321" y="591" type="qcurve"/>
      <point x="442" y="92"/>
      <point x="481" y="28" type="qcurve"/>
      <point x="485" y="23"/>
      <point x="485" y="17" type="qcurve"/>
      <point x="485" y="2"/>
      <point x="449" y="-14"/>
    </contour>
  </outline>
</glyph>
<glyph name="B" format="2">
  <advance height="1000" width="500"/>
  <unicode hex="0042"/>
  <outline>
    <contour>
      <point x="138" y="45" type="line"/>
      <point x="311" y="45"/>
      <point x="372" y="139" type="qcurve"/>
      <point x="390" y="168"/>
      <point x="390" y="212" type="qcurve"/>
      <point x="390" y="265"/>
      <point x="368" y="295" type="qcurve"/>
      <point x="328" y="350"/>
      <point x="252" y="352" type="qcurve"/>
      <point x="189" y="352"/>
      <point x="138" y="346" type="qcurve"/>
    </contour>
    <contour>
      <point x="139" y="414" type="line"/>
      <point x="279" y="414"/>
      <point x="325" y="487" type="qcurve"/>
      <point x="345" y="519"/>
      <point x="345" y="556" type="qcurve"/>
      <point x="345" y="644"/>
      <point x="221" y="644" type="qcurve"/>
      <point x="180" y="644"/>
      <point x="138" y="629" type="qcurve"/>
      <point x="138" y="414" type="line"/>
    </contour>
    <contour>
      <point x="146" y="-16" type="qcurve"/>
      <point x="20" y="-16"/>
      <point x="20" y="17" type="qcurve"/>
      <point x="20" y="24"/>
      <point x="34" y="40"/>
      <point x="61" y="40"/>
      <point x="63" y="40" type="qcurve"/>
      <point x="63" y="622" type="line"/>
      <point x="54" y="626"/>
      <point x="31" y="656"/>
      <point x="31" y="668" type="qcurve"/>
      <point x="31" y="697"/>
      <point x="161" y="713" type="qcurve"/>
      <point x="199" y="717"/>
      <point x="230" y="717" type="qcurve"/>
      <point x="298" y="717"/>
      <point x="382" y="675"/>
      <point x="420" y="602"/>
      <point x="420" y="557" type="qcurve"/>
      <point x="420" y="515"/>
      <point x="389" y="449"/>
      <point x="340" y="405"/>
      <point x="332" y="401" type="qcurve"/>
      <point x="400" y="390"/>
      <point x="445" y="307" type="qcurve"/>
      <point x="465" y="266"/>
      <point x="465" y="215" type="qcurve"/>
      <point x="465" y="87"/>
      <point x="379" y="36" type="qcurve"/>
      <point x="299" y="-11"/>
      <point x="213" y="-13" type="qcurve"/>
      <point x="173" y="-16"/>
    </contour>
  </outline>
</glyph>
<glyph name="D" format="2">
  <advance height="1000" width="500"/>
  <unicode hex="0044"/>
  <outline>
    <contour>
      <point x="136" y="47" type="line"/>
      <point x="173" y="49"/>
      <point x="238" y="73" type="qcurve"/>
      <point x="275" y="86"/>
      <point x="308" y="120" type="qcurve"/>
      <point x="390" y="205"/>
      <point x="390" y="368" type="qcurve"/>
      <point x="390" y="473"/>
      <point x="338" y="593"/>
      <point x="250" y="642"/>
      <point x="200" y="642" type="qcurve"/>
      <point x="158" y="642"/>
      <point x="136" y="632" type="qcurve"/>
    </contour>
    <contour>
      <point x="129" y="-14" type="qcurve"/>
      <point x="74" y="-14"/>
      <point x="31" y="-6"/>
      <point x="20" y="11"/>
      <point x="20" y="16" type="qcurve"/>
      <point x="20" y="42"/>
      <point x="56" y="42" type="qcurve"/>
      <point x="56" y="625" type="line"/>
      <point x="49" y="628"/>
      <point x="32" y="656"/>
      <point x="32" y="669" type="qcurve"/>
      <point x="32" y="699"/>
      <point x="147" y="714" type="qcurve"/>
      <point x="178" y="718"/>
      <point x="209" y="718" type="qcurve"/>
      <point x="280" y="718"/>
      <point x="398" y="644"/>
      <point x="470" y="491"/>
      <point x="470" y="367" type="qcurve"/>
      <point x="470" y="258"/>
      <point x="409" y="106"/>
      <point x="312" y="18"/>
      <point x="224" y="-8"/>
      <point x="161" y="-13"/>
    </contour>
  </outline>
</glyph>
<glyph name="F" format="2">
  <advance height="1000" width="500"/>
  <unicode hex="0046"/>
  <outline>
    <contour>
      <point x="69" y="409" type="qcurve"/>
      <point x="69" y="649"/>
      <point x="68" y="662" type="qcurve"/>
      <point x="66" y="675"/>
      <point x="66" y="685" type="qcurve"/>
      <point x="66" y="705"/>
      <point x="86" y="705" type="qcurve"/>
      <point x="103" y="705"/>
      <point x="137" y="692" type="qcurve"/>
      <point x="361" y="707"/>
      <point x="381" y="710" type="qcurve"/>
      <point x="407" y="714"/>
      <point x="416" y="714" type="qcurve"/>
      <point x="434" y="714"/>
      <point x="455" y="674"/>
      <point x="455" y="656" type="qcurve"/>
      <point x="455" y="635"/>
      <point x="434" y="635" type="qcurve"/>
      <point x="370" y="635" type="line"/>
      <point x="358" y="635"/>
      <point x="149" y="621" type="qcurve"/>
      <point x="149" y="410" type="line"/>
      <point x="315" y="423"/>
      <point x="330" y="425" type="qcurve"/>
      <point x="357" y="429"/>
      <point x="365" y="429" type="qcurve"/>
      <point x="383" y="429"/>
      <point x="404" y="389"/>
      <point x="404" y="371" type="qcurve"/>
      <point x="404" y="350"/>
      <point x="383" y="350" type="qcurve"/>
      <point x="307" y="350"/>
      <point x="149" y="339" type="qcurve"/>
      <point x="149" y="149"/>
      <point x="151" y="1" type="qcurve"/>
      <point x="151" y="-15"/>
      <point x="124" y="-15" type="qcurve"/>
      <point x="107" y="-15"/>
      <point x="68" y="3"/>
      <point x="68" y="19" type="qcurve"/>
      <point x="69" y="81"/>
      <point x="69" y="342" type="qcurve"/>
      <point x="60" y="348"/>
      <point x="45" y="381"/>
      <point x="45" y="393" type="qcurve"/>
      <point x="46" y="410"/>
      <point x="65" y="410" type="qcurve"/>
      <point x="68" y="409"/>
    </contour>
  </outline>
</glyph>
<glyph name="G" format="2">
  <advance height="1000" width="500"/>
  <unicode hex="0047"/>
  <outline>
    <contour>
      <point x="250" y="-23" type="qcurve"/>
      <point x="182" y="-23"/>
      <point x="79" y="36"/>
      <point x="25" y="174"/>
      <point x="25" y="295" type="qcurve"/>
      <point x="25" y="463"/>
      <point x="97" y="589" type="qcurve"/>
      <point x="174" y="719"/>
      <point x="280" y="719" type="qcurve"/>
      <point x="360" y="719"/>
      <point x="400" y="679" type="qcurve"/>
      <point x="436" y="650"/>
      <point x="448" y="629" type="qcurve"/>
      <point x="449" y="618" type="line"/>
      <point x="449" y="602"/>
      <point x="422" y="560"/>
      <point x="406" y="560" type="qcurve"/>
      <point x="394" y="560"/>
      <point x="388" y="574" type="qcurve"/>
      <point x="360" y="643"/>
      <point x="280" y="643" type="qcurve"/>
      <point x="210" y="643"/>
      <point x="104" y="434"/>
      <point x="104" y="285" type="qcurve"/>
      <point x="104" y="196"/>
      <point x="140" y="93"/>
      <point x="205" y="53"/>
      <point x="250" y="53" type="qcurve"/>
      <point x="282" y="53"/>
      <point x="342" y="107"/>
      <point x="384" y="217"/>
      <point x="384" y="296" type="qcurve"/>
      <point x="383" y="302" type="line"/>
      <point x="332" y="296"/>
      <point x="273" y="287" type="qcurve"/>
      <point x="260" y="287"/>
      <point x="245" y="309"/>
      <point x="235" y="336"/>
      <point x="235" y="347" type="qcurve"/>
      <point x="235" y="367"/>
      <point x="253" y="367" type="qcurve"/>
      <point x="286" y="367"/>
      <point x="398" y="376" type="qcurve"/>
      <point x="413" y="380"/>
      <point x="425" y="380" type="qcurve"/>
      <point x="435" y="380"/>
      <point x="454" y="362"/>
      <point x="466" y="340"/>
      <point x="466" y="331" type="qcurve"/>
      <point x="466" y="324"/>
      <point x="463" y="315"/>
      <point x="463" y="94" type="qcurve"/>
      <point x="465" y="4" type="line"/>
      <point x="465" y="-15"/>
      <point x="434" y="-15" type="qcurve"/>
      <point x="417" y="-15"/>
      <point x="382" y="1"/>
      <point x="382" y="14" type="qcurve"/>
      <point x="385" y="45" type="line"/>
      <point x="383" y="40"/>
      <point x="303" y="-23"/>
    </contour>
  </outline>
</glyph>
<glyph name="K" format="2">
  <advance height="1000" width="500"/>
  <unicode hex="004B"/>
  <outline>
    <contour>
      <point x="109" y="-17" type="qcurve"/>
      <point x="92" y="-17"/>
      <point x="51" y="1"/>
      <point x="51" y="17" type="qcurve"/>
      <point x="51" y="29"/>
      <point x="53" y="84"/>
      <point x="53" y="351" type="qcurve"/>
      <point x="53" y="587"/>
      <point x="50" y="695" type="qcurve"/>
      <point x="50" y="711"/>
      <point x="77" y="711" type="qcurve"/>
      <point x="95" y="711"/>
      <point x="135" y="693"/>
      <point x="135" y="677" type="qcurve"/>
      <point x="135" y="665"/>
      <point x="133" y="614"/>
      <point x="133" y="438" type="qcurve"/>
      <point x="195" y="500"/>
      <point x="334" y="664"/>
      <point x="363" y="703" type="qcurve"/>
      <point x="370" y="711"/>
      <point x="384" y="711" type="qcurve"/>
      <point x="397" y="711"/>
      <point x="426" y="698"/>
      <point x="448" y="680"/>
      <point x="448" y="670" type="qcurve"/>
      <point x="448" y="661"/>
      <point x="415" y="634" type="qcurve"/>
      <point x="395" y="617"/>
      <point x="372" y="591" type="qcurve"/>
      <point x="297" y="502"/>
      <point x="198" y="400" type="qcurve"/>
      <point x="398" y="104"/>
      <point x="463" y="44" type="qcurve"/>
      <point x="483" y="27"/>
      <point x="483" y="20" type="qcurve"/>
      <point x="483" y="7"/>
      <point x="441" y="-15"/>
      <point x="419" y="-15" type="qcurve"/>
      <point x="392" y="-15"/>
      <point x="376" y="12" type="qcurve"/>
      <point x="363" y="32" type="line"/>
      <point x="342" y="58"/>
      <point x="146" y="345" type="qcurve"/>
      <point x="133" y="331" type="line"/>
      <point x="133" y="77"/>
      <point x="136" y="16"/>
      <point x="136" y="-1" type="qcurve"/>
      <point x="136" y="-17"/>
    </contour>
  </outline>
</glyph>
<glyph name="L" format="2">
  <advance height="1000" width="500"/>
  <unicode hex="004C"/>
  <outline>
    <contour>
      <point x="107" y="-15" type="qcurve"/>
      <point x="80" y="-15"/>
      <point x="65" y="17" type="qcurve"/>
      <point x="58" y="29"/>
      <point x="58" y="37" type="qcurve"/>
      <point x="58" y="46"/>
      <point x="64" y="59"/>
      <point x="64" y="70" type="qcurve"/>
      <point x="64" y="621"/>
      <point x="61" y="678"/>
      <point x="61" y="695" type="qcurve"/>
      <point x="61" y="711"/>
      <point x="89" y="711" type="qcurve"/>
      <point x="107" y="711"/>
      <point x="149" y="693"/>
      <point x="149" y="677" type="qcurve"/>
      <point x="149" y="665"/>
      <point x="147" y="614"/>
      <point x="147" y="66" type="qcurve"/>
      <point x="213" y="70"/>
      <point x="349" y="70" type="qcurve"/>
      <point x="411" y="70"/>
      <point x="424" y="71" type="qcurve"/>
      <point x="442" y="71"/>
      <point x="462" y="28"/>
      <point x="462" y="12" type="qcurve"/>
      <point x="462" y="-11"/>
      <point x="442" y="-11" type="qcurve"/>
      <point x="408" y="-5"/>
      <point x="331" y="-5" type="qcurve"/>
      <point x="142" y="-5"/>
    </contour>
  </outline>
</glyph>
<glyph name="M" format="2">
  <advance height="1000" width="500"/>
  <unicode hex="004D"/>
  <outline>
    <contour>
      <point x="64" y="-13" type="qcurve"/>
      <point x="27" y="-13"/>
      <point x="27" y="9" type="qcurve"/>
      <point x="35" y="84"/>
      <point x="39" y="159" type="qcurve"/>
      <point x="66" y="619"/>
      <point x="66" y="653" type="qcurve"/>
      <point x="65" y="661"/>
      <point x="65" y="674" type="qcurve"/>
      <point x="69" y="689"/>
      <point x="111" y="709"/>
      <point x="134" y="709" type="qcurve"/>
      <point x="148" y="706"/>
      <point x="151" y="701" type="qcurve"/>
      <point x="156" y="689"/>
      <point x="177" y="593" type="qcurve"/>
      <point x="242" y="268" type="line"/>
      <point x="278" y="425"/>
      <point x="342" y="673" type="qcurve"/>
      <point x="346" y="686"/>
      <point x="351" y="717"/>
      <point x="368" y="717" type="qcurve"/>
      <point x="378" y="717"/>
      <point x="411" y="705"/>
      <point x="441" y="686"/>
      <point x="441" y="676" type="qcurve"/>
      <point x="441" y="666"/>
      <point x="436" y="646"/>
      <point x="436" y="630" type="qcurve"/>
      <point x="445" y="514"/>
      <point x="466" y="93" type="qcurve"/>
      <point x="469" y="56"/>
      <point x="476" y="17" type="qcurve"/>
      <point x="476" y="2"/>
      <point x="445" y="-12"/>
      <point x="428" y="-12" type="qcurve"/>
      <point x="390" y="-12"/>
      <point x="390" y="11" type="qcurve"/>
      <point x="390" y="143"/>
      <point x="375" y="510" type="qcurve"/>
      <point x="334" y="350"/>
      <point x="310" y="250" type="qcurve"/>
      <point x="301" y="207"/>
      <point x="288" y="145"/>
      <point x="286" y="118"/>
      <point x="253" y="100"/>
      <point x="235" y="100" type="qcurve"/>
      <point x="201" y="100"/>
      <point x="199" y="129" type="qcurve"/>
      <point x="190" y="183"/>
      <point x="126" y="483" type="qcurve"/>
      <point x="122" y="392"/>
      <point x="117" y="230" type="qcurve"/>
      <point x="111" y="84"/>
      <point x="111" y="12" type="qcurve"/>
      <point x="108" y="-13"/>
    </contour>
  </outline>
</glyph>
<glyph name="N" format="2">
  <advance height="1000" width="500"/>
  <unicode hex="004E"/>
  <outline>
    <contour>
      <point x="102" y="-18" type="qcurve"/>
      <point x="86" y="-18"/>
      <point x="49" y="1"/>
      <point x="49" y="17" type="qcurve"/>
      <point x="49" y="29"/>
      <point x="51" y="81"/>
      <point x="51" y="641" type="qcurve"/>
      <point x="51" y="650"/>
      <point x="45" y="669"/>
      <point x="45" y="680" type="qcurve"/>
      <point x="50" y="696"/>
      <point x="91" y="714"/>
      <point x="111" y="714" type="qcurve"/>
      <point x="134" y="709"/>
      <point x="144" y="683" type="qcurve"/>
      <point x="251" y="414"/>
      <point x="371" y="154" type="qcurve"/>
      <point x="371" y="589" type="line"/>
      <point x="371" y="631"/>
      <point x="369" y="659" type="qcurve"/>
      <point x="368" y="695" type="line"/>
      <point x="368" y="703"/>
      <point x="385" y="712"/>
      <point x="395" y="712" type="qcurve"/>
      <point x="412" y="712"/>
      <point x="448" y="693"/>
      <point x="448" y="677" type="qcurve"/>
      <point x="448" y="665"/>
      <point x="447" y="614"/>
      <point x="447" y="88" type="qcurve"/>
      <point x="447" y="79"/>
      <point x="449" y="61" type="qcurve"/>
      <point x="451" y="33" type="line"/>
      <point x="451" y="16"/>
      <point x="407" y="-17"/>
      <point x="385" y="-17" type="qcurve"/>
      <point x="364" y="-17"/>
      <point x="341" y="35" type="qcurve"/>
      <point x="216" y="299"/>
      <point x="126" y="521" type="qcurve"/>
      <point x="126" y="105" type="line"/>
      <point x="126" y="74"/>
      <point x="129" y="16"/>
      <point x="129" y="-1" type="qcurve"/>
      <point x="129" y="-9"/>
      <point x="112" y="-18"/>
    </contour>
  </outline>
</glyph>
<glyph name="O" format="2">
  <advance height="1000" width="500"/>
  <unicode hex="004F"/>
  <outline>
    <contour>
      <point x="240" y="54" type="qcurve"/>
      <point x="391" y="54"/>
      <point x="391" y="371" type="qcurve"/>
      <point x="391" y="485"/>
      <point x="362" y="562" type="qcurve"/>
      <point x="331" y="645"/>
      <point x="267" y="645" type="qcurve"/>
      <point x="234" y="645"/>
      <point x="162" y="582"/>
      <point x="109" y="445"/>
      <point x="109" y="339" type="qcurve"/>
      <point x="109" y="259"/>
      <point x="134" y="130"/>
      <point x="190" y="54"/>
    </contour>
    <contour>
      <point x="244" y="-24" type="qcurve"/>
      <point x="170" y="-24"/>
      <point x="75" y="72"/>
      <point x="30" y="235"/>
      <point x="30" y="337" type="qcurve"/>
      <point x="30" y="457"/>
      <point x="64" y="557" type="qcurve"/>
      <point x="98" y="663"/>
      <point x="134" y="663" type="qcurve"/>
      <point x="149" y="663"/>
      <point x="152" y="660" type="qcurve"/>
      <point x="194" y="719"/>
      <point x="271" y="719" type="qcurve"/>
      <point x="336" y="719"/>
      <point x="426" y="625"/>
      <point x="471" y="464"/>
      <point x="471" y="363" type="qcurve"/>
      <point x="471" y="208"/>
      <point x="418" y="93" type="qcurve"/>
      <point x="359" y="-24"/>
    </contour>
  </outline>
</glyph>
<glyph name="P" format="2">
  <advance height="1000" width="500"/>
  <unicode hex="0050"/>
  <outline>
    <contour>
      <point x="138" y="372" type="line"/>
      <point x="395" y="391"/>
      <point x="395" y="541" type="qcurve"/>
      <point x="395" y="587"/>
      <point x="326" y="642"/>
      <point x="252" y="642" type="qcurve"/>
      <point x="191" y="642"/>
      <point x="136" y="624" type="qcurve"/>
      <point x="136" y="372" type="line"/>
    </contour>
    <contour>
      <point x="112" y="-17" type="qcurve"/>
      <point x="95" y="-17"/>
      <point x="55" y="1"/>
      <point x="55" y="17" type="qcurve"/>
      <point x="55" y="29"/>
      <point x="57" y="88"/>
      <point x="57" y="612" type="qcurve"/>
      <point x="47" y="612"/>
      <point x="17" y="652"/>
      <point x="17" y="666" type="qcurve"/>
      <point x="17" y="687"/>
      <point x="177" y="713" type="qcurve"/>
      <point x="204" y="717"/>
      <point x="254" y="717" type="qcurve"/>
      <point x="476" y="717"/>
      <point x="476" y="547" type="qcurve"/>
      <point x="476" y="370"/>
      <point x="303" y="330" type="qcurve"/>
      <point x="234" y="314"/>
      <point x="149" y="314" type="qcurve"/>
      <point x="135" y="314"/>
      <point x="135" y="312" type="qcurve"/>
      <point x="136" y="311" type="line"/>
      <point x="136" y="81"/>
      <point x="139" y="16"/>
      <point x="139" y="-1" type="qcurve"/>
      <point x="139" y="-17"/>
    </contour>
  </outline>
</glyph>
<glyph name="Q" format="2">
  <advance height="1000" width="500"/>
  <unicode hex="0051"/>
  <outline>
    <contour>
      <point x="240" y="54" type="qcurve"/>
      <point x="281" y="54"/>
      <point x="306" y="74" type="qcurve"/>
      <point x="251" y="156"/>
      <point x="244" y="163" type="qcurve"/>
      <point x="228" y="180"/>
      <point x="228" y="188" type="qcurve"/>
      <point x="228" y="201"/>
      <point x="261" y="217"/>
      <point x="278" y="217" type="qcurve"/>
      <point x="295" y="217"/>
      <point x="312" y="201"/>
      <point x="344" y="154"/>
      <point x="355" y="137" type="qcurve"/>
      <point x="391" y="205"/>
      <point x="391" y="371" type="qcurve"/>
      <point x="391" y="485"/>
      <point x="362" y="562" type="qcurve"/>
      <point x="331" y="645"/>
      <point x="267" y="645" type="qcurve"/>
      <point x="234" y="645"/>
      <point x="162" y="582"/>
      <point x="109" y="445"/>
      <point x="109" y="339" type="qcurve"/>
      <point x="109" y="259"/>
      <point x="134" y="130"/>
      <point x="190" y="54"/>
    </contour>
    <contour>
      <point x="466" y="-72" type="qcurve"/>
      <point x="461" y="-72" type="line"/>
      <point x="430" y="-64"/>
      <point x="388" y="-31" type="qcurve"/>
      <point x="366" y="-13"/>
      <point x="349" y="10" type="qcurve"/>
      <point x="310" y="-24"/>
      <point x="244" y="-24" type="qcurve"/>
      <point x="170" y="-24"/>
      <point x="76" y="72"/>
      <point x="30" y="235"/>
      <point x="30" y="337" type="qcurve"/>
      <point x="30" y="464"/>
      <point x="101" y="664"/>
      <point x="134" y="664" type="qcurve"/>
      <point x="148" y="664"/>
      <point x="152" y="660" type="qcurve"/>
      <point x="194" y="719"/>
      <point x="271" y="719" type="qcurve"/>
      <point x="336" y="719"/>
      <point x="426" y="625"/>
      <point x="471" y="464"/>
      <point x="471" y="363" type="qcurve"/>
      <point x="471" y="172"/>
      <point x="401" y="66" type="qcurve"/>
      <point x="478" y="-36" type="line"/>
      <point x="487" y="-44"/>
      <point x="487" y="-55" type="qcurve"/>
      <point x="487" y="-72"/>
    </contour>
  </outline>
</glyph>
<glyph name="R" format="2">
  <advance height="1000" width="500"/>
  <unicode hex="0052"/>
  <outline>
    <contour>
      <point x="153" y="394" type="qcurve"/>
      <point x="222" y="394"/>
      <point x="264" y="404" type="qcurve"/>
      <point x="333" y="420"/>
      <point x="364" y="480" type="qcurve"/>
      <point x="379" y="508"/>
      <point x="379" y="537" type="qcurve"/>
      <point x="379" y="585"/>
      <point x="319" y="643"/>
      <point x="260" y="643" type="qcurve"/>
      <point x="181" y="643"/>
      <point x="138" y="627" type="qcurve"/>
      <point x="138" y="404" type="line"/>
      <point x="137" y="400" type="line"/>
      <point x="137" y="394"/>
    </contour>
    <contour>
      <point x="467" y="-17" type="qcurve"/>
      <point x="396" y="-17"/>
      <point x="339" y="60" type="qcurve"/>
      <point x="232" y="214"/>
      <point x="152" y="315"/>
      <point x="138" y="319" type="qcurve"/>
      <point x="138" y="81"/>
      <point x="140" y="16"/>
      <point x="140" y="-1" type="qcurve"/>
      <point x="140" y="-17"/>
      <point x="113" y="-17" type="qcurve"/>
      <point x="96" y="-17"/>
      <point x="58" y="1"/>
      <point x="58" y="17" type="qcurve"/>
      <point x="58" y="29"/>
      <point x="60" y="88"/>
      <point x="60" y="610" type="qcurve"/>
      <point x="43" y="610"/>
      <point x="25" y="646" type="qcurve"/>
      <point x="19" y="660"/>
      <point x="19" y="668" type="qcurve"/>
      <point x="19" y="682"/>
      <point x="33" y="684" type="qcurve"/>
      <point x="51" y="688"/>
      <point x="96" y="694"/>
      <point x="131" y="703" type="qcurve"/>
      <point x="173" y="715"/>
      <point x="262" y="715" type="qcurve"/>
      <point x="337" y="715"/>
      <point x="424" y="663"/>
      <point x="459" y="583"/>
      <point x="459" y="541" type="qcurve"/>
      <point x="459" y="434"/>
      <point x="378" y="378" type="qcurve"/>
      <point x="314" y="334"/>
      <point x="224" y="334" type="qcurve"/>
      <point x="227" y="334" type="line"/>
      <point x="318" y="227"/>
      <point x="392" y="110" type="qcurve"/>
      <point x="429" y="57"/>
      <point x="455" y="37" type="qcurve"/>
      <point x="489" y="10"/>
      <point x="489" y="-5" type="qcurve"/>
      <point x="489" y="-17"/>
    </contour>
  </outline>
</glyph>
<glyph name="S" format="2">
  <advance height="1000" width="500"/>
  <unicode hex="0053"/>
  <outline>
    <contour>
      <point x="246" y="-24" type="qcurve"/>
      <point x="169" y="-24"/>
      <point x="68" y="39"/>
      <point x="27" y="95" type="qcurve"/>
      <point x="21" y="104"/>
      <point x="21" y="112" type="qcurve"/>
      <point x="21" y="130"/>
      <point x="49" y="171"/>
      <point x="65" y="171" type="qcurve"/>
      <point x="80" y="171"/>
      <point x="84" y="160" type="qcurve"/>
      <point x="139" y="66"/>
      <point x="192" y="58" type="qcurve"/>
      <point x="221" y="51"/>
      <point x="247" y="51" type="qcurve"/>
      <point x="328" y="51"/>
      <point x="374" y="116" type="qcurve"/>
      <point x="394" y="146"/>
      <point x="394" y="184" type="qcurve"/>
      <point x="394" y="245"/>
      <point x="342" y="314"/>
      <point x="287" y="332" type="qcurve"/>
      <point x="184" y="365" type="line"/>
      <point x="47" y="409"/>
      <point x="47" y="526" type="qcurve"/>
      <point x="47" y="575"/>
      <point x="99" y="662"/>
      <point x="195" y="719"/>
      <point x="258" y="719" type="qcurve"/>
      <point x="324" y="719"/>
      <point x="443" y="641"/>
      <point x="443" y="609" type="qcurve"/>
      <point x="443" y="607"/>
      <point x="438" y="581"/>
      <point x="427" y="551"/>
      <point x="410" y="551" type="qcurve"/>
      <point x="399" y="551"/>
      <point x="384" y="569"/>
      <point x="380" y="573" type="qcurve"/>
      <point x="326" y="644"/>
      <point x="261" y="644" type="qcurve"/>
      <point x="221" y="644"/>
      <point x="162" y="610"/>
      <point x="128" y="555"/>
      <point x="128" y="524" type="qcurve"/>
      <point x="128" y="464"/>
      <point x="215" y="435" type="qcurve"/>
      <point x="311" y="405" type="line"/>
      <point x="475" y="357"/>
      <point x="475" y="192" type="qcurve"/>
      <point x="475" y="133"/>
      <point x="425" y="35"/>
      <point x="322" y="-24"/>
    </contour>
  </outline>
</glyph>
<glyph name="T" format="2">
  <advance height="1000" width="500"/>
  <unicode hex="0054"/>
  <outline>
    <contour>
      <point x="263" y="-17" type="qcurve"/>
      <point x="246" y="-17"/>
      <point x="206" y="2"/>
      <point x="206" y="18" type="qcurve"/>
      <point x="208" y="107" type="line"/>
      <point x="208" y="623" type="line"/>
      <point x="106" y="617"/>
      <point x="64" y="610" type="qcurve"/>
      <point x="45" y="610"/>
      <point x="24" y="651"/>
      <point x="24" y="667" type="qcurve"/>
      <point x="24" y="691"/>
      <point x="45" y="691" type="qcurve"/>
      <point x="52" y="691"/>
      <point x="89" y="689"/>
      <point x="109" y="689" type="qcurve"/>
      <point x="122" y="689"/>
      <point x="365" y="706" type="qcurve"/>
      <point x="443" y="714" type="line"/>
      <point x="461" y="714"/>
      <point x="479" y="673"/>
      <point x="479" y="657" type="qcurve"/>
      <point x="479" y="633"/>
      <point x="459" y="633" type="qcurve"/>
      <point x="402" y="636"/>
      <point x="388" y="636" type="qcurve"/>
      <point x="289" y="630" type="line"/>
      <point x="290" y="74"/>
      <point x="293" y="17"/>
      <point x="293" y="0" type="qcurve"/>
      <point x="293" y="-17"/>
    </contour>
  </outline>
</glyph>
<glyph name="U" format="2">
  <advance height="1000" width="500"/>
  <unicode hex="0055"/>
  <outline>
    <contour>
      <point x="240" y="-24" type="qcurve"/>
      <point x="167" y="-24"/>
      <point x="125" y="3" type="qcurve"/>
      <point x="49" y="51"/>
      <point x="49" y="198" type="qcurve"/>
      <point x="49" y="618"/>
      <point x="46" y="678"/>
      <point x="46" y="695" type="qcurve"/>
      <point x="46" y="713"/>
      <point x="78" y="713" type="qcurve"/>
      <point x="95" y="713"/>
      <point x="133" y="696"/>
      <point x="133" y="680" type="qcurve"/>
      <point x="133" y="668"/>
      <point x="132" y="610"/>
      <point x="132" y="210" type="qcurve"/>
      <point x="132" y="150"/>
      <point x="152" y="80"/>
      <point x="196" y="51"/>
      <point x="240" y="51" type="qcurve"/>
      <point x="303" y="51"/>
      <point x="370" y="158"/>
      <point x="370" y="242" type="qcurve"/>
      <point x="370" y="595"/>
      <point x="367" y="697" type="qcurve"/>
      <point x="367" y="715"/>
      <point x="399" y="715" type="qcurve"/>
      <point x="417" y="715"/>
      <point x="455" y="698"/>
      <point x="455" y="682" type="qcurve"/>
      <point x="455" y="670"/>
      <point x="453" y="620"/>
      <point x="453" y="230" type="qcurve"/>
      <point x="453" y="117"/>
      <point x="346" y="-24"/>
    </contour>
  </outline>
</glyph>
<glyph name="V" format="2">
  <advance height="1000" width="500"/>
  <unicode hex="0056"/>
  <outline>
    <contour>
      <point x="256" y="-24" type="qcurve"/>
      <point x="235" y="-24"/>
      <point x="201" y="12"/>
      <point x="192" y="47" type="qcurve"/>
      <point x="140" y="269"/>
      <point x="45" y="614" type="qcurve"/>
      <point x="40" y="634"/>
      <point x="26" y="669"/>
      <point x="23" y="682" type="qcurve"/>
      <point x="21" y="684"/>
      <point x="21" y="688" type="qcurve"/>
      <point x="21" y="699"/>
      <point x="48" y="710"/>
      <point x="62" y="710" type="qcurve"/>
      <point x="77" y="710"/>
      <point x="107" y="698"/>
      <point x="114" y="672"/>
      <point x="117" y="656" type="qcurve"/>
      <point x="119" y="644"/>
      <point x="142" y="560" type="qcurve"/>
      <point x="204" y="342"/>
      <point x="249" y="140" type="qcurve"/>
      <point x="320" y="413"/>
      <point x="379" y="620" type="qcurve"/>
      <point x="387" y="655"/>
      <point x="395" y="699" type="qcurve"/>
      <point x="399" y="717"/>
      <point x="420" y="717" type="qcurve"/>
      <point x="434" y="717"/>
      <point x="462" y="702"/>
      <point x="481" y="682"/>
      <point x="481" y="670" type="qcurve"/>
      <point x="481" y="665"/>
      <point x="479" y="663" type="qcurve"/>
      <point x="467" y="633"/>
      <point x="456" y="599" type="qcurve"/>
      <point x="436" y="526"/>
      <point x="410" y="439" type="qcurve"/>
      <point x="357" y="259"/>
      <point x="308" y="80" type="qcurve"/>
      <point x="302" y="38"/>
      <point x="290" y="-6"/>
      <point x="274" y="-24"/>
    </contour>
  </outline>
</glyph>
<glyph name="W" format="2">
  <advance height="1000" width="500"/>
  <unicode hex="0057"/>
  <outline>
    <contour>
      <point x="352" y="202" type="qcurve"/>
      <point x="368" y="408"/>
      <point x="388" y="577" type="qcurve"/>
      <point x="397" y="640"/>
      <point x="397" y="691" type="qcurve"/>
      <point x="400" y="712"/>
      <point x="427" y="712" type="qcurve"/>
      <point x="445" y="712"/>
      <point x="483" y="691"/>
      <point x="483" y="671" type="qcurve"/>
      <point x="456" y="551"/>
      <point x="405" y="6" type="qcurve"/>
      <point x="403" y="-22"/>
      <point x="370" y="-22" type="qcurve"/>
      <point x="346" y="-22"/>
      <point x="300" y="16"/>
      <point x="294" y="45" type="qcurve"/>
      <point x="264" y="374"/>
      <point x="247" y="508" type="qcurve"/>
      <point x="236" y="394" type="line"/>
      <point x="202" y="50"/>
      <point x="201" y="7" type="qcurve"/>
      <point x="198" y="-21"/>
      <point x="166" y="-21" type="qcurve"/>
      <point x="142" y="-21"/>
      <point x="95" y="15"/>
      <point x="92" y="45" type="qcurve"/>
      <point x="44" y="634"/>
      <point x="17" y="689" type="qcurve"/>
      <point x="17" y="711"/>
      <point x="47" y="711" type="qcurve"/>
      <point x="65" y="711"/>
      <point x="106" y="692"/>
      <point x="109" y="678" type="qcurve"/>
      <point x="110" y="670"/>
      <point x="110" y="655"/>
      <point x="112" y="641"/>
      <point x="112" y="622" type="qcurve"/>
      <point x="128" y="469"/>
      <point x="148" y="216" type="qcurve"/>
      <point x="168" y="424"/>
      <point x="188" y="601" type="qcurve"/>
      <point x="193" y="635"/>
      <point x="193" y="664"/>
      <point x="195" y="684"/>
      <point x="222" y="695"/>
      <point x="238" y="695" type="qcurve"/>
      <point x="258" y="695"/>
      <point x="295" y="680"/>
      <point x="298" y="668" type="qcurve"/>
      <point x="298" y="664"/>
      <point x="299" y="663" type="qcurve"/>
      <point x="301" y="624" type="line"/>
      <point x="336" y="372"/>
    </contour>
  </outline>
</glyph>
<glyph name="X" format="2">
  <advance height="1000" width="500"/>
  <unicode hex="0058"/>
  <outline>
    <contour>
      <point x="398" y="-16" type="qcurve"/>
      <point x="378" y="-16"/>
      <point x="370" y="-1" type="qcurve"/>
      <point x="354" y="40"/>
      <point x="252" y="260" type="qcurve"/>
      <point x="161" y="71"/>
      <point x="155" y="54" type="qcurve"/>
      <point x="141" y="20"/>
      <point x="131" y="-1" type="qcurve"/>
      <point x="125" y="-16"/>
      <point x="99" y="-16" type="qcurve"/>
      <point x="81" y="-16"/>
      <point x="40" y="3"/>
      <point x="40" y="17" type="qcurve"/>
      <point x="40" y="22"/>
      <point x="43" y="27" type="qcurve"/>
      <point x="85" y="94"/>
      <point x="99" y="122" type="qcurve"/>
      <point x="210" y="353" type="line"/>
      <point x="84" y="627"/>
      <point x="57" y="669" type="qcurve"/>
      <point x="54" y="675"/>
      <point x="54" y="679" type="qcurve"/>
      <point x="54" y="693"/>
      <point x="95" y="713"/>
      <point x="112" y="713" type="qcurve"/>
      <point x="135" y="713"/>
      <point x="139" y="700" type="qcurve"/>
      <point x="153" y="664"/>
      <point x="254" y="445" type="qcurve"/>
      <point x="354" y="653"/>
      <point x="371" y="694" type="qcurve"/>
      <point x="375" y="706"/>
      <point x="393" y="706" type="qcurve"/>
      <point x="411" y="706"/>
      <point x="452" y="679"/>
      <point x="452" y="665" type="qcurve"/>
      <point x="450" y="657" type="line"/>
      <point x="427" y="625"/>
      <point x="408" y="583" type="qcurve"/>
      <point x="296" y="352" type="line"/>
      <point x="402" y="121" type="line"/>
      <point x="421" y="82"/>
      <point x="458" y="27" type="qcurve"/>
      <point x="460" y="21" type="line"/>
      <point x="460" y="7"/>
      <point x="418" y="-16"/>
    </contour>
  </outline>
</glyph>
<glyph name="Y" format="2">
  <advance height="1000" width="500"/>
  <unicode hex="0059"/>
  <outline>
    <contour>
      <point x="260" y="-15" type="qcurve"/>
      <point x="243" y="-15"/>
      <point x="201" y="3"/>
      <point x="201" y="19" type="qcurve"/>
      <point x="204" y="108"/>
      <point x="204" y="292" type="qcurve"/>
      <point x="81" y="593"/>
      <point x="24" y="668" type="qcurve"/>
      <point x="19" y="675"/>
      <point x="19" y="679" type="qcurve"/>
      <point x="19" y="693"/>
      <point x="59" y="707"/>
      <point x="76" y="707" type="qcurve"/>
      <point x="101" y="707"/>
      <point x="107" y="697" type="qcurve"/>
      <point x="140" y="630"/>
      <point x="245" y="381" type="qcurve"/>
      <point x="270" y="433"/>
      <point x="330" y="577" type="qcurve"/>
      <point x="360" y="646"/>
      <point x="365" y="659" type="qcurve"/>
      <point x="378" y="692"/>
      <point x="390" y="715"/>
      <point x="412" y="715" type="qcurve"/>
      <point x="431" y="715"/>
      <point x="471" y="695"/>
      <point x="471" y="682" type="qcurve"/>
      <point x="470" y="676" type="line"/>
      <point x="446" y="643"/>
      <point x="401" y="549" type="qcurve"/>
      <point x="285" y="293" type="line"/>
      <point x="285" y="95"/>
      <point x="286" y="74" type="qcurve"/>
      <point x="288" y="25"/>
      <point x="288" y="1" type="qcurve"/>
      <point x="288" y="-15"/>
    </contour>
  </outline>
</glyph>
<glyph name="Z" format="2">
  <advance height="1000" width="500"/>
  <unicode hex="005A"/>
  <outline>
    <contour>
      <point x="67" y="-13" type="qcurve"/>
      <point x="51" y="-13"/>
      <point x="22" y="25"/>
      <point x="22" y="43" type="qcurve"/>
      <point x="22" y="59"/>
      <point x="39" y="74" type="qcurve"/>
      <point x="53" y="90" type="line"/>
      <point x="194" y="368"/>
      <point x="347" y="628" type="qcurve"/>
      <point x="146" y="610"/>
      <point x="117" y="606" type="qcurve"/>
      <point x="102" y="606"/>
      <point x="83" y="630"/>
      <point x="71" y="661"/>
      <point x="71" y="671" type="qcurve"/>
      <point x="72" y="689"/>
      <point x="89" y="689" type="qcurve"/>
      <point x="141" y="685" type="line"/>
      <point x="162" y="685"/>
      <point x="370" y="703"/>
      <point x="411" y="709"/>
      <point x="423" y="709" type="qcurve"/>
      <point x="442" y="709"/>
      <point x="470" y="666"/>
      <point x="470" y="650" type="qcurve"/>
      <point x="470" y="638"/>
      <point x="460" y="632" type="qcurve"/>
      <point x="440" y="624"/>
      <point x="428" y="606" type="qcurve"/>
      <point x="259" y="337"/>
      <point x="130" y="71" type="qcurve"/>
      <point x="161" y="74"/>
      <point x="248" y="74" type="qcurve"/>
      <point x="321" y="74"/>
      <point x="356" y="73" type="qcurve"/>
      <point x="418" y="73"/>
      <point x="432" y="74" type="qcurve"/>
      <point x="450" y="74"/>
      <point x="470" y="31"/>
      <point x="470" y="15" type="qcurve"/>
      <point x="470" y="-7"/>
      <point x="447" y="-7" type="qcurve"/>
      <point x="398" y="-2"/>
      <point x="357" y="-1" type="qcurve"/>
      <point x="169" y="-1"/>
      <point x="99" y="-6" type="qcurve"/>
      <point x="79" y="-13"/>
    </contour>
  </outline>
</glyph>
<glyph name="bracketleft" format="2">
  <advance height="1000" width="500"/>
  <unicode hex="005B"/>
  <outline>
    <contour>
      <point x="208" y="-157" type="qcurve"/>
      <point x="193" y="-157"/>
      <point x="164" y="-129"/>
      <point x="164" y="-114" type="qcurve"/>
      <point x="168" y="-75"/>
      <point x="168" y="314" type="qcurve"/>
      <point x="168" y="697"/>
      <point x="162" y="726"/>
      <point x="162" y="737" type="qcurve"/>
      <point x="162" y="755"/>
      <point x="185" y="770"/>
      <point x="216" y="770" type="qcurve"/>
      <point x="253" y="770"/>
      <point x="312" y="772" type="qcurve"/>
      <point x="342" y="772" type="line"/>
      <point x="357" y="772"/>
      <point x="378" y="744"/>
      <point x="378" y="729" type="qcurve"/>
      <point x="378" y="705"/>
      <point x="358" y="705" type="qcurve"/>
      <point x="245" y="705" type="line"/>
      <point x="245" y="-89" type="line"/>
      <point x="321" y="-86"/>
      <point x="338" y="-86" type="qcurve"/>
      <point x="353" y="-86"/>
      <point x="375" y="-115"/>
      <point x="375" y="-130" type="qcurve"/>
      <point x="375" y="-153"/>
      <point x="356" y="-153" type="qcurve"/>
      <point x="230" y="-153"/>
    </contour>
  </outline>
</glyph>
<glyph name="backslash" format="2">
  <advance height="1000" width="500"/>
  <unicode hex="005C"/>
  <outline>
    <contour>
      <point x="423" y="-77" type="qcurve"/>
      <point x="408" y="-77"/>
      <point x="403" y="-64" type="qcurve"/>
      <point x="393" y="-33"/>
      <point x="377" y="1" type="qcurve"/>
      <point x="78" y="673" type="line"/>
      <point x="63" y="704"/>
      <point x="40" y="741" type="qcurve"/>
      <point x="40" y="747" type="line"/>
      <point x="40" y="756"/>
      <point x="53" y="778"/>
      <point x="76" y="796"/>
      <point x="87" y="796" type="qcurve"/>
      <point x="105" y="796"/>
      <point x="109" y="781" type="qcurve"/>
      <point x="141" y="704"/>
      <point x="437" y="34" type="qcurve"/>
      <point x="449" y="8"/>
      <point x="465" y="-17" type="qcurve"/>
      <point x="468" y="-22"/>
      <point x="468" y="-29" type="qcurve"/>
      <point x="468" y="-43"/>
      <point x="439" y="-77"/>
    </contour>
  </outline>
</glyph>
<glyph name="bracketright" format="2">
  <advance height="1000" width="500"/>
  <unicode hex="005D"/>
  <outline>
    <contour>
      <point x="160" y="-156" type="qcurve"/>
      <point x="143" y="-156"/>
      <point x="122" y="-128"/>
      <point x="122" y="-113" type="qcurve"/>
      <point x="122" y="-89"/>
      <point x="142" y="-89" type="qcurve"/>
      <point x="255" y="-89" type="line"/>
      <point x="255" y="705" type="line"/>
      <point x="181" y="702"/>
      <point x="162" y="702" type="qcurve"/>
      <point x="147" y="702"/>
      <point x="126" y="731"/>
      <point x="126" y="746" type="qcurve"/>
      <point x="126" y="769"/>
      <point x="144" y="769" type="qcurve"/>
      <point x="281" y="769"/>
      <point x="291" y="773" type="qcurve"/>
      <point x="308" y="773"/>
      <point x="336" y="745"/>
      <point x="336" y="730" type="qcurve"/>
      <point x="336" y="714"/>
      <point x="333" y="689" type="qcurve"/>
      <point x="332" y="676"/>
      <point x="332" y="-62" type="qcurve"/>
      <point x="332" y="-80"/>
      <point x="338" y="-109"/>
      <point x="338" y="-121" type="qcurve"/>
      <point x="338" y="-138"/>
      <point x="315" y="-154"/>
      <point x="285" y="-154" type="qcurve"/>
      <point x="238" y="-154" type="line"/>
      <point x="211" y="-155"/>
      <point x="168" y="-155"/>
    </contour>
  </outline>
</glyph>
<glyph name="asciicircum" format="2">
  <advance height="1000" width="500"/>
  <unicode hex="005E"/>
  <outline>
    <contour>
      <point x="110" y="457" type="qcurve"/>
      <point x="94" y="457"/>
      <point x="57" y="474"/>
      <point x="57" y="488" type="qcurve"/>
      <point x="59" y="494" type="line"/>
      <point x="82" y="526"/>
      <point x="98" y="554" type="qcurve"/>
      <point x="206" y="742" type="line"/>
      <point x="212" y="753"/>
      <point x="214" y="765" type="qcurve"/>
      <point x="218" y="790"/>
      <point x="257" y="790" type="qcurve"/>
      <point x="277" y="790"/>
      <point x="288" y="767"/>
      <point x="294" y="755" type="qcurve"/>
      <point x="409" y="551" type="line"/>
      <point x="450" y="482" type="line"/>
      <point x="450" y="471"/>
      <point x="421" y="459"/>
      <point x="406" y="459" type="qcurve"/>
      <point x="376" y="459"/>
      <point x="368" y="475" type="qcurve"/>
      <point x="357" y="501"/>
      <point x="339" y="534" type="qcurve"/>
      <point x="253" y="689" type="line"/>
      <point x="162" y="526"/>
      <point x="134" y="467" type="qcurve"/>
      <point x="129" y="457"/>
    </contour>
  </outline>
</glyph>
<glyph name="grave" format="2">
  <advance height="1000" width="500"/>
  <unicode hex="0060"/>
  <unicode hex="0300"/>
  <unicode hex="02CB"/>
  <outline>
    <contour>
      <point x="300" y="558" type="qcurve"/>
      <point x="288" y="558"/>
      <point x="279" y="567" type="qcurve"/>
      <point x="159" y="670" type="line"/>
      <point x="149" y="679"/>
      <point x="149" y="692" type="qcurve"/>
      <point x="149" y="709"/>
      <point x="183" y="738"/>
      <point x="201" y="738" type="qcurve"/>
      <point x="218" y="738"/>
      <point x="227" y="727" type="qcurve"/>
      <point x="330" y="621" type="line"/>
      <point x="339" y="614"/>
      <point x="339" y="600" type="qcurve"/>
      <point x="339" y="585"/>
      <point x="316" y="558"/>
    </contour>
  </outline>
</glyph>
<glyph name="a" format="2">
  <advance height="1000" width="500"/>
  <unicode hex="0061"/>
  <outline>
    <contour>
      <point x="194" y="48" type="qcurve"/>
      <point x="234" y="48"/>
      <point x="270" y="77" type="qcurve"/>
      <point x="361" y="150"/>
      <point x="361" y="330" type="qcurve"/>
      <point x="361" y="358" type="line"/>
      <point x="363" y="360"/>
      <point x="363" y="362" type="qcurve"/>
      <point x="363" y="365"/>
      <point x="346" y="365"/>
      <point x="341" y="373" type="qcurve"/>
      <point x="314" y="422"/>
      <point x="273" y="422" type="qcurve"/>
      <point x="223" y="422"/>
      <point x="121" y="286"/>
      <point x="121" y="180" type="qcurve"/>
      <point x="121" y="48"/>
    </contour>
    <contour>
      <point x="195" y="-24" type="qcurve"/>
      <point x="124" y="-24"/>
      <point x="41" y="80"/>
      <point x="41" y="175" type="qcurve"/>
      <point x="41" y="304"/>
      <point x="185" y="492"/>
      <point x="273" y="492" type="qcurve"/>
      <point x="349" y="492"/>
      <point x="363" y="461" type="qcurve"/>
      <point x="363" y="475" type="line"/>
      <point x="363" y="491"/>
      <point x="391" y="491" type="qcurve"/>
      <point x="408" y="491"/>
      <point x="449" y="474"/>
      <point x="449" y="458" type="qcurve"/>
      <point x="444" y="411"/>
      <point x="440" y="306" type="qcurve"/>
      <point x="437" y="225"/>
      <point x="437" y="193" type="qcurve"/>
      <point x="437" y="93"/>
      <point x="469" y="36" type="qcurve"/>
      <point x="471" y="29" type="line"/>
      <point x="471" y="17"/>
      <point x="443" y="-19"/>
      <point x="422" y="-19" type="qcurve"/>
      <point x="402" y="-19"/>
      <point x="379" y="28"/>
      <point x="373" y="57" type="qcurve"/>
      <point x="368" y="86" type="line"/>
      <point x="348" y="45"/>
      <point x="249" y="-24"/>
    </contour>
  </outline>
</glyph>
<glyph name="b" format="2">
  <advance height="1000" width="500"/>
  <unicode hex="0062"/>
  <outline>
    <contour>
      <point x="133" y="109" type="qcurve"/>
      <point x="148" y="107"/>
      <point x="157" y="89" type="qcurve"/>
      <point x="185" y="47"/>
      <point x="231" y="47" type="qcurve"/>
      <point x="274" y="47"/>
      <point x="325" y="105" type="qcurve"/>
      <point x="378" y="169"/>
      <point x="378" y="276" type="qcurve"/>
      <point x="378" y="328"/>
      <point x="353" y="391"/>
      <point x="314" y="420"/>
      <point x="295" y="420" type="qcurve"/>
      <point x="225" y="420"/>
      <point x="173" y="341" type="qcurve"/>
      <point x="150" y="303"/>
      <point x="140" y="253" type="qcurve"/>
      <point x="133" y="213"/>
    </contour>
    <contour>
      <point x="228" y="-23" type="qcurve"/>
      <point x="190" y="-23"/>
      <point x="131" y="14"/>
      <point x="128" y="19" type="qcurve"/>
      <point x="127" y="15"/>
      <point x="95" y="-11"/>
      <point x="79" y="-11" type="qcurve"/>
      <point x="55" y="-9"/>
      <point x="55" y="15" type="qcurve"/>
      <point x="55" y="27"/>
      <point x="57" y="81"/>
      <point x="57" y="350" type="qcurve"/>
      <point x="57" y="591"/>
      <point x="54" y="699" type="qcurve"/>
      <point x="56" y="715"/>
      <point x="81" y="715" type="qcurve"/>
      <point x="98" y="715"/>
      <point x="138" y="697"/>
      <point x="138" y="681" type="qcurve"/>
      <point x="135" y="589"/>
      <point x="135" y="403" type="qcurve"/>
      <point x="182" y="492"/>
      <point x="295" y="492" type="qcurve"/>
      <point x="367" y="492"/>
      <point x="458" y="381"/>
      <point x="458" y="278" type="qcurve"/>
      <point x="458" y="193"/>
      <point x="398" y="58"/>
      <point x="293" y="-23"/>
    </contour>
  </outline>
</glyph>
<glyph name="c" format="2">
  <advance height="1000" width="500"/>
  <unicode hex="0063"/>
  <outline>
    <contour>
      <point x="237" y="-24" type="qcurve"/>
      <point x="187" y="-24"/>
      <point x="103" y="28"/>
      <point x="53" y="127"/>
      <point x="53" y="194" type="qcurve"/>
      <point x="53" y="311"/>
      <point x="128" y="403" type="qcurve"/>
      <point x="207" y="492"/>
      <point x="294" y="492" type="qcurve"/>
      <point x="365" y="492"/>
      <point x="404" y="450" type="qcurve"/>
      <point x="433" y="420"/>
      <point x="433" y="401" type="qcurve"/>
      <point x="433" y="384"/>
      <point x="402" y="349"/>
      <point x="386" y="349" type="qcurve"/>
      <point x="373" y="349"/>
      <point x="367" y="363" type="qcurve"/>
      <point x="347" y="421"/>
      <point x="296" y="421" type="qcurve"/>
      <point x="246" y="421"/>
      <point x="190" y="357" type="qcurve"/>
      <point x="133" y="288"/>
      <point x="133" y="199" type="qcurve"/>
      <point x="133" y="147"/>
      <point x="166" y="79"/>
      <point x="215" y="46"/>
      <point x="237" y="46" type="qcurve"/>
      <point x="326" y="46"/>
      <point x="412" y="143" type="qcurve"/>
      <point x="428" y="161"/>
      <point x="442" y="161" type="qcurve"/>
      <point x="458" y="161"/>
      <point x="458" y="143" type="qcurve"/>
      <point x="458" y="137"/>
      <point x="432" y="84"/>
      <point x="379" y="23"/>
      <point x="296" y="-24"/>
    </contour>
  </outline>
</glyph>
<glyph name="d" format="2">
  <advance height="1000" width="500"/>
  <unicode hex="0064"/>
  <outline>
    <contour>
      <point x="197" y="48" type="qcurve"/>
      <point x="247" y="48"/>
      <point x="365" y="184"/>
      <point x="365" y="276" type="qcurve"/>
      <point x="365" y="376" type="line"/>
      <point x="365" y="371"/>
      <point x="361" y="371" type="qcurve"/>
      <point x="356" y="371"/>
      <point x="349" y="379" type="qcurve"/>
      <point x="316" y="422"/>
      <point x="274" y="422" type="qcurve"/>
      <point x="214" y="422"/>
      <point x="119" y="277"/>
      <point x="119" y="189" type="qcurve"/>
      <point x="119" y="117"/>
      <point x="164" y="48"/>
    </contour>
    <contour>
      <point x="197" y="-24" type="qcurve"/>
      <point x="126" y="-24"/>
      <point x="40" y="87"/>
      <point x="40" y="186" type="qcurve"/>
      <point x="40" y="306"/>
      <point x="181" y="492"/>
      <point x="273" y="492" type="qcurve"/>
      <point x="348" y="492"/>
      <point x="365" y="465" type="qcurve"/>
      <point x="365" y="555"/>
      <point x="361" y="699" type="qcurve"/>
      <point x="361" y="715"/>
      <point x="388" y="715" type="qcurve"/>
      <point x="405" y="715"/>
      <point x="444" y="697"/>
      <point x="444" y="681" type="qcurve"/>
      <point x="444" y="669"/>
      <point x="442" y="618"/>
      <point x="442" y="185" type="qcurve"/>
      <point x="442" y="84"/>
      <point x="473" y="41" type="qcurve"/>
      <point x="475" y="33" type="line"/>
      <point x="475" y="19"/>
      <point x="446" y="-18"/>
      <point x="426" y="-18" type="qcurve"/>
      <point x="398" y="-18"/>
      <point x="383" y="37" type="qcurve"/>
      <point x="370" y="85"/>
      <point x="368" y="85" type="qcurve"/>
      <point x="368" y="83" type="line"/>
      <point x="311" y="-24"/>
    </contour>
  </outline>
</glyph>
<glyph name="f" format="2">
  <advance height="1000" width="500"/>
  <unicode hex="0066"/>
  <outline>
    <contour>
      <point x="253" y="-17" type="qcurve"/>
      <point x="236" y="-17"/>
      <point x="192" y="-2"/>
      <point x="192" y="17" type="qcurve"/>
      <point x="192" y="29"/>
      <point x="195" y="91"/>
      <point x="195" y="419" type="qcurve"/>
      <point x="97" y="419"/>
      <point x="80" y="416" type="qcurve"/>
      <point x="51" y="416"/>
      <point x="51" y="461" type="qcurve"/>
      <point x="51" y="491"/>
      <point x="74" y="491" type="qcurve"/>
      <point x="105" y="489"/>
      <point x="195" y="489" type="qcurve"/>
      <point x="195" y="589" type="line"/>
      <point x="195" y="670"/>
      <point x="268" y="701" type="qcurve"/>
      <point x="299" y="714"/>
      <point x="331" y="714" type="qcurve"/>
      <point x="372" y="714"/>
      <point x="427" y="693"/>
      <point x="457" y="662"/>
      <point x="457" y="646" type="qcurve"/>
      <point x="457" y="627"/>
      <point x="433" y="594"/>
      <point x="421" y="594" type="qcurve"/>
      <point x="416" y="594"/>
      <point x="406" y="604" type="qcurve"/>
      <point x="382" y="641"/>
      <point x="330" y="641" type="qcurve"/>
      <point x="306" y="641"/>
      <point x="273" y="612"/>
      <point x="273" y="585" type="qcurve"/>
      <point x="273" y="489" type="line"/>
      <point x="382" y="489"/>
      <point x="421" y="492" type="qcurve"/>
      <point x="451" y="492"/>
      <point x="451" y="446" type="qcurve"/>
      <point x="451" y="417"/>
      <point x="429" y="417" type="qcurve"/>
      <point x="408" y="417"/>
      <point x="372" y="419"/>
      <point x="273" y="419" type="qcurve"/>
      <point x="273" y="74"/>
      <point x="277" y="16"/>
      <point x="277" y="-1" type="qcurve"/>
      <point x="277" y="-17"/>
    </contour>
  </outline>
</glyph>
<glyph name="h" format="2">
  <advance height="1000" width="500"/>
  <unicode hex="0068"/>
  <outline>
    <contour>
      <point x="421" y="-17" type="qcurve"/>
      <point x="404" y="-17"/>
      <point x="365" y="1"/>
      <point x="365" y="17" type="qcurve"/>
      <point x="367" y="84" type="line"/>
      <point x="367" y="293" type="line"/>
      <point x="367" y="351"/>
      <point x="340" y="417"/>
      <point x="302" y="417" type="qcurve"/>
      <point x="236" y="417"/>
      <point x="192" y="364" type="qcurve"/>
      <point x="150" y="311"/>
      <point x="145" y="229" type="qcurve"/>
      <point x="141" y="187"/>
      <point x="140" y="115" type="qcurve"/>
      <point x="140" y="55"/>
      <point x="141" y="23" type="qcurve"/>
      <point x="142" y="-2" type="line"/>
      <point x="142" y="-17"/>
      <point x="116" y="-17" type="qcurve"/>
      <point x="99" y="-17"/>
      <point x="61" y="1"/>
      <point x="61" y="17" type="qcurve"/>
      <point x="62" y="88" type="line"/>
      <point x="62" y="600"/>
      <point x="61" y="642"/>
      <point x="60" y="687"/>
      <point x="60" y="697" type="qcurve"/>
      <point x="60" y="713"/>
      <point x="86" y="713" type="qcurve"/>
      <point x="103" y="713"/>
      <point x="142" y="695"/>
      <point x="142" y="679" type="qcurve"/>
      <point x="140" y="547"/>
      <point x="140" y="409" type="qcurve"/>
      <point x="153" y="432"/>
      <point x="249" y="491"/>
      <point x="302" y="491" type="qcurve"/>
      <point x="388" y="491"/>
      <point x="421" y="424" type="qcurve"/>
      <point x="444" y="376"/>
      <point x="444" y="297" type="qcurve"/>
      <point x="444" y="118"/>
      <point x="447" y="-2" type="qcurve"/>
      <point x="447" y="-17"/>
    </contour>
  </outline>
</glyph>
<glyph name="k" format="2">
  <advance height="1000" width="500"/>
  <unicode hex="006B"/>
  <outline>
    <contour>
      <point x="407" y="-20" type="qcurve"/>
      <point x="391" y="-20"/>
      <point x="344" y="31" type="qcurve"/>
      <point x="306" y="75"/>
      <point x="196" y="209"/>
      <point x="161" y="248" type="qcurve"/>
      <point x="150" y="241" type="line"/>
      <point x="150" y="103"/>
      <point x="151" y="95" type="qcurve"/>
      <point x="155" y="46"/>
      <point x="155" y="0" type="qcurve"/>
      <point x="155" y="-16"/>
      <point x="128" y="-16" type="qcurve"/>
      <point x="111" y="-16"/>
      <point x="71" y="2"/>
      <point x="71" y="18" type="qcurve"/>
      <point x="73" y="81" type="line"/>
      <point x="73" y="600"/>
      <point x="72" y="642"/>
      <point x="70" y="687"/>
      <point x="70" y="697" type="qcurve"/>
      <point x="72" y="713"/>
      <point x="97" y="713" type="qcurve"/>
      <point x="114" y="713"/>
      <point x="154" y="695"/>
      <point x="154" y="679" type="qcurve"/>
      <point x="150" y="583"/>
      <point x="150" y="330" type="qcurve"/>
      <point x="303" y="448" type="line"/>
      <point x="315" y="456"/>
      <point x="334" y="476"/>
      <point x="345" y="490"/>
      <point x="360" y="490" type="qcurve"/>
      <point x="373" y="490"/>
      <point x="402" y="479"/>
      <point x="424" y="462"/>
      <point x="424" y="452" type="qcurve"/>
      <point x="424" y="444"/>
      <point x="379" y="416" type="qcurve"/>
      <point x="358" y="401"/>
      <point x="218" y="292" type="qcurve"/>
      <point x="240" y="268"/>
      <point x="308" y="187"/>
      <point x="409" y="72" type="qcurve"/>
      <point x="431" y="51"/>
      <point x="459" y="34" type="qcurve"/>
      <point x="467" y="31"/>
      <point x="467" y="23" type="qcurve"/>
      <point x="467" y="15"/>
      <point x="448" y="-5"/>
      <point x="421" y="-20"/>
    </contour>
  </outline>
</glyph>
<glyph name="l" format="2">
  <advance height="1000" width="500"/>
  <unicode hex="006C"/>
  <outline>
    <contour>
      <point x="287" y="-24" type="qcurve"/>
      <point x="231" y="-24"/>
      <point x="183" y="43"/>
      <point x="183" y="110" type="qcurve"/>
      <point x="182" y="640" type="line"/>
      <point x="149" y="635"/>
      <point x="98" y="635"/>
      <point x="85" y="634" type="qcurve"/>
      <point x="69" y="634"/>
      <point x="48" y="677"/>
      <point x="48" y="693" type="qcurve"/>
      <point x="48" y="716"/>
      <point x="63" y="716" type="qcurve"/>
      <point x="101" y="710"/>
      <point x="112" y="710" type="qcurve"/>
      <point x="182" y="710"/>
      <point x="222" y="720" type="qcurve"/>
      <point x="246" y="720"/>
      <point x="261" y="690" type="qcurve"/>
      <point x="269" y="678"/>
      <point x="269" y="668" type="qcurve"/>
      <point x="269" y="658"/>
      <point x="262" y="645"/>
      <point x="262" y="108" type="qcurve"/>
      <point x="262" y="71"/>
      <point x="274" y="52"/>
      <point x="297" y="52" type="qcurve"/>
      <point x="342" y="52"/>
      <point x="403" y="92" type="qcurve"/>
      <point x="421" y="106"/>
      <point x="432" y="106" type="qcurve"/>
      <point x="446" y="106"/>
      <point x="446" y="89" type="qcurve"/>
      <point x="446" y="77"/>
      <point x="419" y="41"/>
      <point x="374" y="3"/>
      <point x="312" y="-24"/>
    </contour>
  </outline>
</glyph>
<glyph name="m" format="2">
  <advance height="1000" width="500"/>
  <unicode hex="006D"/>
  <outline>
    <contour>
      <point x="108" y="459" type="line"/>
      <point x="109" y="475" type="line"/>
      <point x="106" y="467"/>
      <point x="106" y="463" type="qcurve"/>
      <point x="107" y="461"/>
      <point x="107" y="459" type="qcurve"/>
    </contour>
    <contour>
      <point x="108" y="459" type="line"/>
      <point x="112" y="460"/>
      <point x="127" y="476" type="qcurve"/>
      <point x="143" y="493"/>
      <point x="179" y="493" type="qcurve"/>
      <point x="218" y="493"/>
      <point x="265" y="438"/>
      <point x="265" y="435" type="qcurve"/>
      <point x="266" y="435"/>
      <point x="312" y="493"/>
      <point x="352" y="493" type="qcurve"/>
      <point x="467" y="493"/>
      <point x="467" y="102"/>
      <point x="468" y="81" type="qcurve"/>
      <point x="470" y="23"/>
      <point x="470" y="0" type="qcurve"/>
      <point x="470" y="-17"/>
      <point x="443" y="-17" type="qcurve"/>
      <point x="426" y="-17"/>
      <point x="388" y="2"/>
      <point x="388" y="18" type="qcurve"/>
      <point x="390" y="82"/>
      <point x="390" y="293" type="qcurve"/>
      <point x="390" y="350"/>
      <point x="373" y="415"/>
      <point x="348" y="415" type="qcurve"/>
      <point x="329" y="415"/>
      <point x="293" y="331"/>
      <point x="288" y="262" type="qcurve"/>
      <point x="287" y="228"/>
      <point x="287" y="142" type="qcurve"/>
      <point x="290" y="0" type="line"/>
      <point x="290" y="-17"/>
      <point x="263" y="-17" type="qcurve"/>
      <point x="246" y="-17"/>
      <point x="209" y="2"/>
      <point x="209" y="18" type="qcurve"/>
      <point x="211" y="82"/>
      <point x="211" y="293" type="qcurve"/>
      <point x="211" y="415"/>
      <point x="172" y="415" type="qcurve"/>
      <point x="148" y="415"/>
      <point x="129" y="354" type="qcurve"/>
      <point x="109" y="299"/>
      <point x="109" y="215" type="qcurve"/>
      <point x="109" y="165"/>
      <point x="112" y="0" type="qcurve"/>
      <point x="112" y="-17"/>
      <point x="85" y="-17" type="qcurve"/>
      <point x="68" y="-17"/>
      <point x="30" y="2"/>
      <point x="30" y="18" type="qcurve"/>
      <point x="32" y="83" type="line"/>
      <point x="32" y="369"/>
      <point x="31" y="412"/>
      <point x="29" y="461"/>
      <point x="29" y="471" type="qcurve"/>
      <point x="29" y="488"/>
      <point x="55" y="488" type="qcurve"/>
      <point x="71" y="488"/>
      <point x="90" y="479" type="qcurve"/>
      <point x="102" y="472"/>
      <point x="106" y="463" type="qcurve"/>
      <point x="106" y="462" type="line"/>
      <point x="106" y="460"/>
      <point x="107" y="459" type="qcurve"/>
      <point x="108" y="456"/>
      <point x="108" y="453" type="qcurve"/>
    </contour>
  </outline>
</glyph>
<glyph name="n" format="2">
  <advance height="1000" width="500"/>
  <unicode hex="006E"/>
  <outline>
    <contour>
      <point x="419" y="-17" type="qcurve"/>
      <point x="402" y="-17"/>
      <point x="363" y="1"/>
      <point x="363" y="17" type="qcurve"/>
      <point x="364" y="25"/>
      <point x="364" y="64"/>
      <point x="365" y="84" type="qcurve"/>
      <point x="365" y="293" type="line"/>
      <point x="365" y="352"/>
      <point x="338" y="417"/>
      <point x="300" y="417" type="qcurve"/>
      <point x="234" y="417"/>
      <point x="190" y="364" type="qcurve"/>
      <point x="148" y="311"/>
      <point x="143" y="229" type="qcurve"/>
      <point x="139" y="183"/>
      <point x="139" y="79" type="qcurve"/>
      <point x="139" y="56"/>
      <point x="141" y="-2" type="qcurve"/>
      <point x="141" y="-17"/>
      <point x="115" y="-17" type="qcurve"/>
      <point x="98" y="-17"/>
      <point x="59" y="1"/>
      <point x="59" y="17" type="qcurve"/>
      <point x="59" y="44"/>
      <point x="61" y="88" type="qcurve"/>
      <point x="61" y="395" type="line"/>
      <point x="58" y="458"/>
      <point x="58" y="471" type="qcurve"/>
      <point x="58" y="487"/>
      <point x="84" y="487" type="qcurve"/>
      <point x="101" y="487"/>
      <point x="140" y="469"/>
      <point x="140" y="453" type="qcurve"/>
      <point x="139" y="411" type="line"/>
      <point x="151" y="432"/>
      <point x="247" y="491"/>
      <point x="300" y="491" type="qcurve"/>
      <point x="387" y="491"/>
      <point x="419" y="424" type="qcurve"/>
      <point x="442" y="375"/>
      <point x="442" y="297" type="qcurve"/>
      <point x="442" y="99"/>
      <point x="443" y="78" type="qcurve"/>
      <point x="445" y="33"/>
      <point x="445" y="-2" type="qcurve"/>
      <point x="445" y="-17"/>
    </contour>
  </outline>
</glyph>
<glyph name="p" format="2">
  <advance height="1000" width="500"/>
  <unicode hex="0070"/>
  <outline>
    <contour>
      <point x="136" y="109" type="qcurve"/>
      <point x="150" y="107"/>
      <point x="161" y="89" type="qcurve"/>
      <point x="188" y="47"/>
      <point x="234" y="47" type="qcurve"/>
      <point x="278" y="47"/>
      <point x="329" y="105" type="qcurve"/>
      <point x="382" y="169"/>
      <point x="382" y="276" type="qcurve"/>
      <point x="382" y="328"/>
      <point x="357" y="391"/>
      <point x="318" y="420"/>
      <point x="298" y="420" type="qcurve"/>
      <point x="228" y="420"/>
      <point x="177" y="341" type="qcurve"/>
      <point x="153" y="303"/>
      <point x="143" y="253" type="qcurve"/>
      <point x="136" y="213"/>
    </contour>
    <contour>
      <point x="140" y="408" type="qcurve"/>
      <point x="186" y="492"/>
      <point x="298" y="492" type="qcurve"/>
      <point x="371" y="492"/>
      <point x="461" y="381"/>
      <point x="461" y="278" type="qcurve"/>
      <point x="461" y="108"/>
      <point x="354" y="18" type="qcurve"/>
      <point x="302" y="-23"/>
      <point x="237" y="-23" type="qcurve"/>
      <point x="203" y="-23"/>
      <point x="136" y="12"/>
      <point x="137" y="11" type="qcurve"/>
      <point x="137" y="-87"/>
      <point x="142" y="-145"/>
      <point x="142" y="-162" type="qcurve"/>
      <point x="142" y="-178"/>
      <point x="115" y="-178" type="qcurve"/>
      <point x="98" y="-178"/>
      <point x="58" y="-160"/>
      <point x="58" y="-144" type="qcurve"/>
      <point x="58" y="-132"/>
      <point x="60" y="-80"/>
      <point x="60" y="157" type="qcurve"/>
      <point x="60" y="403"/>
      <point x="57" y="472" type="qcurve"/>
      <point x="57" y="488"/>
      <point x="83" y="488" type="qcurve"/>
      <point x="101" y="488"/>
      <point x="142" y="470"/>
      <point x="142" y="454" type="qcurve"/>
      <point x="142" y="448"/>
      <point x="141" y="432" type="qcurve"/>
      <point x="140" y="420"/>
    </contour>
  </outline>
</glyph>
<glyph name="q" format="2">
  <advance height="1000" width="500"/>
  <unicode hex="0071"/>
  <outline>
    <contour>
      <point x="197" y="48" type="qcurve"/>
      <point x="248" y="48"/>
      <point x="366" y="184"/>
      <point x="366" y="276" type="qcurve"/>
      <point x="366" y="375" type="line"/>
      <point x="366" y="371"/>
      <point x="362" y="371" type="qcurve"/>
      <point x="358" y="371"/>
      <point x="349" y="379" type="qcurve"/>
      <point x="317" y="422"/>
      <point x="275" y="422" type="qcurve"/>
      <point x="215" y="422"/>
      <point x="120" y="277"/>
      <point x="120" y="189" type="qcurve"/>
      <point x="120" y="117"/>
      <point x="164" y="48"/>
    </contour>
    <contour>
      <point x="364" y="467" type="qcurve"/>
      <point x="364" y="475" type="line"/>
      <point x="364" y="491"/>
      <point x="391" y="491" type="qcurve"/>
      <point x="408" y="491"/>
      <point x="447" y="473"/>
      <point x="447" y="457" type="qcurve"/>
      <point x="447" y="445"/>
      <point x="445" y="394"/>
      <point x="445" y="-60" type="qcurve"/>
      <point x="445" y="-91"/>
      <point x="448" y="-149"/>
      <point x="448" y="-166" type="qcurve"/>
      <point x="448" y="-182"/>
      <point x="421" y="-182" type="qcurve"/>
      <point x="404" y="-182"/>
      <point x="364" y="-164"/>
      <point x="364" y="-148" type="qcurve"/>
      <point x="367" y="-46"/>
      <point x="368" y="75" type="qcurve"/>
      <point x="352" y="42"/>
      <point x="254" y="-24"/>
      <point x="197" y="-24" type="qcurve"/>
      <point x="126" y="-24"/>
      <point x="41" y="87"/>
      <point x="41" y="186" type="qcurve"/>
      <point x="41" y="306"/>
      <point x="181" y="492"/>
      <point x="274" y="492" type="qcurve"/>
      <point x="344" y="492"/>
    </contour>
  </outline>
</glyph>
<glyph name="r" format="2">
  <advance height="1000" width="500"/>
  <unicode hex="0072"/>
  <outline>
    <contour>
      <point x="180" y="429" type="qcurve"/>
      <point x="221" y="492"/>
      <point x="320" y="492" type="qcurve"/>
      <point x="382" y="492"/>
      <point x="423" y="457" type="qcurve"/>
      <point x="441" y="441"/>
      <point x="441" y="426" type="qcurve"/>
      <point x="441" y="408"/>
      <point x="415" y="368"/>
      <point x="399" y="368" type="qcurve"/>
      <point x="389" y="368"/>
      <point x="380" y="381" type="qcurve"/>
      <point x="370" y="398"/>
      <point x="331" y="415"/>
      <point x="317" y="415" type="qcurve"/>
      <point x="277" y="415"/>
      <point x="243" y="390" type="qcurve"/>
      <point x="178" y="343"/>
      <point x="178" y="201" type="qcurve"/>
      <point x="177" y="163"/>
      <point x="177" y="106" type="qcurve"/>
      <point x="177" y="75"/>
      <point x="182" y="17"/>
      <point x="182" y="0" type="qcurve"/>
      <point x="182" y="-16"/>
      <point x="156" y="-16" type="qcurve"/>
      <point x="139" y="-16"/>
      <point x="97" y="1"/>
      <point x="97" y="18" type="qcurve"/>
      <point x="99" y="81" type="line"/>
      <point x="99" y="378"/>
      <point x="98" y="398" type="qcurve"/>
      <point x="96" y="454"/>
      <point x="96" y="474" type="qcurve"/>
      <point x="98" y="490"/>
      <point x="122" y="490" type="qcurve"/>
      <point x="139" y="490"/>
      <point x="181" y="473"/>
      <point x="181" y="456" type="qcurve"/>
      <point x="181" y="436"/>
    </contour>
  </outline>
</glyph>
<glyph name="s" format="2">
  <advance height="1000" width="500"/>
  <unicode hex="0073"/>
  <outline>
    <contour>
      <point x="255" y="-24" type="qcurve"/>
      <point x="200" y="-24"/>
      <point x="127" y="6"/>
      <point x="85" y="45"/>
      <point x="65" y="80"/>
      <point x="65" y="85" type="qcurve"/>
      <point x="65" y="101"/>
      <point x="95" y="139"/>
      <point x="110" y="139" type="qcurve"/>
      <point x="125" y="139"/>
      <point x="128" y="127" type="qcurve"/>
      <point x="135" y="107"/>
      <point x="160" y="70"/>
      <point x="209" y="46"/>
      <point x="255" y="46" type="qcurve"/>
      <point x="305" y="46"/>
      <point x="359" y="94"/>
      <point x="359" y="126" type="qcurve"/>
      <point x="359" y="160"/>
      <point x="329" y="201"/>
      <point x="238" y="224"/>
      <point x="194" y="236" type="qcurve"/>
      <point x="87" y="261"/>
      <point x="87" y="356" type="qcurve"/>
      <point x="87" y="396"/>
      <point x="134" y="457"/>
      <point x="214" y="492"/>
      <point x="260" y="492" type="qcurve"/>
      <point x="317" y="492"/>
      <point x="386" y="460"/>
      <point x="416" y="422"/>
      <point x="416" y="413" type="qcurve"/>
      <point x="416" y="406"/>
      <point x="408" y="385"/>
      <point x="391" y="363"/>
      <point x="377" y="363" type="qcurve"/>
      <point x="366" y="363"/>
      <point x="355" y="380" type="qcurve"/>
      <point x="332" y="417"/>
      <point x="288" y="423" type="qcurve"/>
      <point x="274" y="425"/>
      <point x="260" y="425" type="qcurve"/>
      <point x="212" y="425"/>
      <point x="163" y="384"/>
      <point x="163" y="354" type="qcurve"/>
      <point x="163" y="335"/>
      <point x="185" y="311"/>
      <point x="218" y="302" type="qcurve"/>
      <point x="305" y="279" type="line"/>
      <point x="437" y="248"/>
      <point x="437" y="128" type="qcurve"/>
      <point x="437" y="46"/>
      <point x="352" y="-3" type="qcurve"/>
      <point x="311" y="-24"/>
    </contour>
  </outline>
</glyph>
<glyph name="u" format="2">
  <advance height="1000" width="500"/>
  <unicode hex="0075"/>
  <outline>
    <contour>
      <point x="205" y="-24" type="qcurve"/>
      <point x="61" y="-24"/>
      <point x="61" y="171" type="qcurve"/>
      <point x="61" y="371"/>
      <point x="58" y="474" type="qcurve"/>
      <point x="60" y="490"/>
      <point x="85" y="490" type="qcurve"/>
      <point x="102" y="490"/>
      <point x="142" y="472"/>
      <point x="142" y="456" type="qcurve"/>
      <point x="140" y="340"/>
      <point x="140" y="175" type="qcurve"/>
      <point x="140" y="118"/>
      <point x="175" y="48"/>
      <point x="205" y="48" type="qcurve"/>
      <point x="238" y="48"/>
      <point x="307" y="110"/>
      <point x="357" y="226"/>
      <point x="361" y="301" type="qcurve"/>
      <point x="362" y="318"/>
      <point x="362" y="475" type="qcurve"/>
      <point x="362" y="491"/>
      <point x="390" y="491" type="qcurve"/>
      <point x="407" y="491"/>
      <point x="446" y="474"/>
      <point x="446" y="458" type="qcurve"/>
      <point x="436" y="382"/>
      <point x="436" y="237" type="qcurve"/>
      <point x="436" y="98"/>
      <point x="470" y="36" type="qcurve"/>
      <point x="471" y="29" type="line"/>
      <point x="471" y="17"/>
      <point x="443" y="-19"/>
      <point x="422" y="-19" type="qcurve"/>
      <point x="393" y="-19"/>
      <point x="370" y="78"/>
      <point x="369" y="78" type="qcurve"/>
      <point x="359" y="55"/>
      <point x="265" y="-24"/>
    </contour>
  </outline>
</glyph>
<glyph name="v" format="2">
  <advance height="1000" width="500"/>
  <unicode hex="0076"/>
  <outline>
    <contour>
      <point x="254" y="-24" type="qcurve"/>
      <point x="241" y="-24"/>
      <point x="230" y="-16" type="qcurve"/>
      <point x="208" y="-2"/>
      <point x="202" y="17" type="qcurve"/>
      <point x="67" y="416"/>
      <point x="48" y="460" type="qcurve"/>
      <point x="48" y="487"/>
      <point x="95" y="487" type="qcurve"/>
      <point x="130" y="487"/>
      <point x="136" y="468" type="qcurve"/>
      <point x="151" y="410"/>
      <point x="245" y="116" type="qcurve"/>
      <point x="353" y="406" type="line"/>
      <point x="365" y="440"/>
      <point x="374" y="477" type="qcurve"/>
      <point x="379" y="492"/>
      <point x="401" y="492" type="qcurve"/>
      <point x="419" y="492"/>
      <point x="458" y="472"/>
      <point x="458" y="456" type="qcurve"/>
      <point x="435" y="405"/>
      <point x="305" y="64" type="qcurve"/>
      <point x="294" y="35"/>
      <point x="277" y="-24"/>
    </contour>
  </outline>
</glyph>
<glyph name="x" format="2">
  <advance height="1000" width="500"/>
  <unicode hex="0078"/>
  <outline>
    <contour>
      <point x="103" y="-17" type="qcurve"/>
      <point x="85" y="-17"/>
      <point x="48" y="-1"/>
      <point x="48" y="10" type="qcurve"/>
      <point x="48" y="17"/>
      <point x="53" y="21" type="qcurve"/>
      <point x="73" y="44"/>
      <point x="108" y="92" type="qcurve"/>
      <point x="209" y="244" type="line"/>
      <point x="114" y="390" type="line"/>
      <point x="96" y="416"/>
      <point x="67" y="448" type="qcurve"/>
      <point x="63" y="454" type="line"/>
      <point x="63" y="464"/>
      <point x="86" y="478"/>
      <point x="113" y="485"/>
      <point x="124" y="485" type="qcurve"/>
      <point x="144" y="485"/>
      <point x="148" y="474" type="qcurve"/>
      <point x="159" y="452"/>
      <point x="252" y="310" type="qcurve"/>
      <point x="345" y="452"/>
      <point x="359" y="479" type="qcurve"/>
      <point x="367" y="489"/>
      <point x="384" y="489" type="qcurve"/>
      <point x="401" y="489"/>
      <point x="442" y="471"/>
      <point x="442" y="459" type="qcurve"/>
      <point x="439" y="453" type="line"/>
      <point x="412" y="422"/>
      <point x="392" y="394" type="qcurve"/>
      <point x="294" y="245" type="line"/>
      <point x="394" y="94" type="line"/>
      <point x="405" y="79"/>
      <point x="436" y="40" type="qcurve"/>
      <point x="453" y="19"/>
      <point x="453" y="13" type="qcurve"/>
      <point x="453" y="1"/>
      <point x="415" y="-15"/>
      <point x="397" y="-15" type="qcurve"/>
      <point x="377" y="-15"/>
      <point x="362" y="2"/>
      <point x="350" y="26"/>
      <point x="251" y="179" type="qcurve"/>
      <point x="162" y="45"/>
      <point x="140" y="2"/>
      <point x="123" y="-17"/>
    </contour>
  </outline>
</glyph>
<glyph name="y" format="2">
  <advance height="1000" width="500"/>
  <unicode hex="0079"/>
  <outline>
    <contour>
      <point x="137" y="-170" type="qcurve"/>
      <point x="128" y="-170" type="line"/>
      <point x="75" y="-170"/>
      <point x="39" y="-140" type="qcurve"/>
      <point x="34" y="-132"/>
      <point x="34" y="-124" type="qcurve"/>
      <point x="34" y="-109"/>
      <point x="54" y="-69"/>
      <point x="72" y="-69" type="qcurve"/>
      <point x="85" y="-69"/>
      <point x="92" y="-79" type="qcurve"/>
      <point x="107" y="-95"/>
      <point x="134" y="-95" type="qcurve"/>
      <point x="159" y="-95"/>
      <point x="180" y="-45" type="qcurve"/>
      <point x="220" y="46" type="line"/>
      <point x="70" y="423"/>
      <point x="52" y="457" type="qcurve"/>
      <point x="50" y="464" type="line"/>
      <point x="50" y="486"/>
      <point x="95" y="486" type="qcurve"/>
      <point x="132" y="486"/>
      <point x="139" y="468" type="qcurve"/>
      <point x="149" y="436"/>
      <point x="262" y="147" type="qcurve"/>
      <point x="363" y="384" type="line"/>
      <point x="382" y="428"/>
      <point x="395" y="477" type="qcurve"/>
      <point x="401" y="491"/>
      <point x="420" y="491" type="qcurve"/>
      <point x="437" y="491"/>
      <point x="473" y="465"/>
      <point x="473" y="447" type="qcurve"/>
      <point x="473" y="440"/>
      <point x="469" y="432" type="qcurve"/>
      <point x="443" y="379"/>
      <point x="245" y="-83" type="qcurve"/>
      <point x="226" y="-127"/>
      <point x="176" y="-170"/>
    </contour>
  </outline>
</glyph>
<glyph name="z" format="2">
  <advance height="1000" width="500"/>
  <unicode hex="007A"/>
  <outline>
    <contour>
      <point x="85" y="-16" type="qcurve"/>
      <point x="69" y="-16"/>
      <point x="50" y="21"/>
      <point x="50" y="37" type="qcurve"/>
      <point x="50" y="60"/>
      <point x="69" y="75" type="qcurve"/>
      <point x="77" y="82"/>
      <point x="84" y="91" type="qcurve"/>
      <point x="208" y="277"/>
      <point x="314" y="408" type="qcurve"/>
      <point x="154" y="394"/>
      <point x="136" y="391" type="qcurve"/>
      <point x="119" y="391"/>
      <point x="100" y="415"/>
      <point x="88" y="444"/>
      <point x="88" y="454" type="qcurve"/>
      <point x="88" y="471"/>
      <point x="105" y="471" type="qcurve"/>
      <point x="130" y="469"/>
      <point x="177" y="469" type="qcurve"/>
      <point x="187" y="469"/>
      <point x="342" y="481"/>
      <point x="359" y="487"/>
      <point x="373" y="487" type="qcurve"/>
      <point x="400" y="485"/>
      <point x="418" y="451" type="qcurve"/>
      <point x="425" y="437"/>
      <point x="425" y="428" type="qcurve"/>
      <point x="425" y="419"/>
      <point x="410" y="409" type="qcurve"/>
      <point x="385" y="394"/>
      <point x="228" y="171" type="qcurve"/>
      <point x="184" y="109"/>
      <point x="154" y="63" type="qcurve"/>
      <point x="181" y="66"/>
      <point x="225" y="66" type="qcurve"/>
      <point x="324" y="66"/>
      <point x="347" y="65" type="qcurve"/>
      <point x="365" y="65"/>
      <point x="403" y="67" type="qcurve"/>
      <point x="420" y="67"/>
      <point x="439" y="25"/>
      <point x="439" y="9" type="qcurve"/>
      <point x="439" y="-13"/>
      <point x="419" y="-13" type="qcurve"/>
      <point x="383" y="-8"/>
      <point x="347" y="-7" type="qcurve"/>
      <point x="138" y="-7"/>
      <point x="106" y="-14" type="qcurve"/>
      <point x="97" y="-16"/>
    </contour>
  </outline>
</glyph>
<glyph name="braceleft" format="2">
  <advance height="1000" width="500"/>
  <unicode hex="007B"/>
  <outline>
    <contour>
      <point x="387" y="-165" type="qcurve"/>
      <point x="380" y="-165"/>
      <point x="371" y="-163" type="qcurve"/>
      <point x="215" y="-126"/>
      <point x="215" y="-4" type="qcurve"/>
      <point x="215" y="29"/>
      <point x="233" y="117"/>
      <point x="233" y="189" type="qcurve"/>
      <point x="233" y="277"/>
      <point x="133" y="282" type="qcurve"/>
      <point x="118" y="284"/>
      <point x="95" y="311"/>
      <point x="95" y="327" type="qcurve"/>
      <point x="95" y="352"/>
      <point x="116" y="352" type="qcurve"/>
      <point x="129" y="352" type="line"/>
      <point x="232" y="352"/>
      <point x="232" y="472" type="qcurve"/>
      <point x="232" y="510"/>
      <point x="226" y="592" type="qcurve"/>
      <point x="225" y="629" type="line"/>
      <point x="225" y="674"/>
      <point x="290" y="750"/>
      <point x="371" y="782" type="qcurve"/>
      <point x="380" y="785"/>
      <point x="385" y="785" type="qcurve"/>
      <point x="405" y="785"/>
      <point x="405" y="765" type="qcurve"/>
      <point x="405" y="750"/>
      <point x="390" y="743" type="qcurve"/>
      <point x="307" y="704"/>
      <point x="307" y="627" type="qcurve"/>
      <point x="308" y="599" type="line"/>
      <point x="314" y="515"/>
      <point x="314" y="469" type="qcurve"/>
      <point x="314" y="347"/>
      <point x="240" y="314" type="qcurve"/>
      <point x="269" y="306"/>
      <point x="314" y="236"/>
      <point x="314" y="193" type="qcurve"/>
      <point x="314" y="113"/>
      <point x="296" y="10"/>
      <point x="296" y="-4" type="qcurve"/>
      <point x="296" y="-84"/>
      <point x="389" y="-125" type="qcurve"/>
      <point x="406" y="-133"/>
      <point x="406" y="-149" type="qcurve"/>
      <point x="406" y="-165"/>
    </contour>
  </outline>
</glyph>
<glyph name="bar" format="2">
  <advance height="1000" width="500"/>
  <unicode hex="007C"/>
  <outline>
    <contour>
      <point x="273" y="-119" type="qcurve"/>
      <point x="257" y="-119"/>
      <point x="217" y="-103"/>
      <point x="217" y="-88" type="qcurve"/>
      <point x="219" y="-29" type="line"/>
      <point x="218" y="719" type="line"/>
      <point x="216" y="751"/>
      <point x="216" y="771" type="qcurve"/>
      <point x="216" y="786"/>
      <point x="242" y="786" type="qcurve"/>
      <point x="259" y="786"/>
      <point x="297" y="772"/>
      <point x="297" y="757" type="qcurve"/>
      <point x="296" y="720"/>
      <point x="295" y="-3" type="qcurve"/>
      <point x="296" y="-8"/>
      <point x="296" y="-25"/>
      <point x="297" y="-33" type="qcurve"/>
      <point x="298" y="-105" type="line"/>
      <point x="298" y="-119"/>
    </contour>
  </outline>
</glyph>
<glyph name="braceright" format="2">
  <advance height="1000" width="500"/>
  <unicode hex="007D"/>
  <outline>
    <contour>
      <point x="115" y="-162" type="line"/>
      <point x="95" y="-162"/>
      <point x="95" y="-143" type="qcurve"/>
      <point x="95" y="-127"/>
      <point x="111" y="-120" type="qcurve"/>
      <point x="195" y="-81"/>
      <point x="195" y="-4" type="qcurve"/>
      <point x="192" y="60" type="line"/>
      <point x="187" y="114"/>
      <point x="187" y="154" type="qcurve"/>
      <point x="187" y="183"/>
      <point x="202" y="245"/>
      <point x="241" y="300"/>
      <point x="261" y="309" type="qcurve"/>
      <point x="233" y="317"/>
      <point x="187" y="387"/>
      <point x="187" y="430" type="qcurve"/>
      <point x="187" y="511"/>
      <point x="205" y="613"/>
      <point x="205" y="627" type="qcurve"/>
      <point x="205" y="708"/>
      <point x="112" y="748" type="qcurve"/>
      <point x="95" y="757"/>
      <point x="95" y="773" type="qcurve"/>
      <point x="97" y="788"/>
      <point x="114" y="788" type="qcurve"/>
      <point x="124" y="788"/>
      <point x="129" y="786"/>
      <point x="130" y="786" type="qcurve"/>
      <point x="286" y="749"/>
      <point x="286" y="627" type="qcurve"/>
      <point x="286" y="595"/>
      <point x="268" y="507"/>
      <point x="268" y="434" type="qcurve"/>
      <point x="268" y="386"/>
      <point x="305" y="359" type="qcurve"/>
      <point x="327" y="343"/>
      <point x="368" y="341" type="qcurve"/>
      <point x="385" y="340"/>
      <point x="406" y="312"/>
      <point x="406" y="294" type="qcurve"/>
      <point x="406" y="271"/>
      <point x="385" y="271" type="qcurve"/>
      <point x="372" y="271" type="line"/>
      <point x="269" y="271"/>
      <point x="269" y="151" type="qcurve"/>
      <point x="269" y="116"/>
      <point x="275" y="42" type="qcurve"/>
      <point x="277" y="-6" type="line"/>
      <point x="277" y="-83"/>
      <point x="197" y="-128" type="qcurve"/>
      <point x="157" y="-152"/>
      <point x="131" y="-157" type="qcurve"/>
    </contour>
  </outline>
</glyph>
<glyph name="exclamdown" format="2">
  <advance height="1000" width="500"/>
  <unicode hex="00A1"/>
  <outline>
    <contour>
      <point x="265" y="-217" type="qcurve"/>
      <point x="246" y="-217"/>
      <point x="200" y="-197"/>
      <point x="200" y="-179" type="qcurve"/>
      <point x="205" y="-148"/>
      <point x="206" y="-108" type="qcurve"/>
      <point x="218" y="278"/>
      <point x="218" y="328" type="qcurve"/>
      <point x="218" y="342"/>
      <point x="240" y="342" type="qcurve"/>
      <point x="254" y="342"/>
      <point x="288" y="328"/>
      <point x="288" y="314" type="qcurve"/>
      <point x="288" y="-122"/>
      <point x="297" y="-193" type="qcurve"/>
      <point x="293" y="-217"/>
    </contour>
    <contour>
      <point x="252" y="394" type="qcurve"/>
      <point x="230" y="394"/>
      <point x="194" y="439"/>
      <point x="194" y="464" type="qcurve"/>
      <point x="194" y="516"/>
      <point x="252" y="516" type="qcurve"/>
      <point x="276" y="516"/>
      <point x="311" y="474"/>
      <point x="311" y="450" type="qcurve"/>
      <point x="311" y="427"/>
      <point x="282" y="394"/>
    </contour>
  </outline>
</glyph>
<glyph name="cent" format="2">
  <advance height="1000" width="500"/>
  <unicode hex="00A2"/>
  <outline>
    <contour>
      <point x="165" y="75" type="qcurve"/>
      <point x="284" y="425" type="line"/>
      <point x="236" y="425"/>
      <point x="174" y="359" type="qcurve"/>
      <point x="111" y="288"/>
      <point x="111" y="200" type="qcurve"/>
      <point x="111" y="152"/>
      <point x="149" y="85"/>
    </contour>
    <contour>
      <point x="174" y="-90" type="qcurve"/>
      <point x="158" y="-90"/>
      <point x="124" y="-62"/>
      <point x="124" y="-44" type="qcurve"/>
      <point x="139" y="1" type="line"/>
      <point x="95" y="22"/>
      <point x="31" y="123"/>
      <point x="31" y="195" type="qcurve"/>
      <point x="31" y="313"/>
      <point x="113" y="406" type="qcurve"/>
      <point x="198" y="496"/>
      <point x="284" y="496" type="qcurve"/>
      <point x="300" y="496"/>
      <point x="308" y="495" type="qcurve"/>
      <point x="319" y="527"/>
      <point x="329" y="569" type="qcurve"/>
      <point x="334" y="582"/>
      <point x="347" y="582" type="qcurve"/>
      <point x="364" y="582"/>
      <point x="397" y="549"/>
      <point x="397" y="532" type="qcurve"/>
      <point x="397" y="527"/>
      <point x="379" y="478" type="qcurve"/>
      <point x="415" y="463"/>
      <point x="451" y="416"/>
      <point x="451" y="404" type="qcurve"/>
      <point x="451" y="387"/>
      <point x="420" y="351"/>
      <point x="405" y="351" type="qcurve"/>
      <point x="393" y="351"/>
      <point x="388" y="360" type="qcurve"/>
      <point x="368" y="409"/>
      <point x="357" y="412" type="qcurve"/>
      <point x="233" y="47" type="line"/>
      <point x="357" y="47"/>
      <point x="415" y="123" type="qcurve"/>
      <point x="430" y="141"/>
      <point x="445" y="141" type="qcurve"/>
      <point x="462" y="141"/>
      <point x="462" y="123" type="qcurve"/>
      <point x="462" y="112"/>
      <point x="449" y="88" type="qcurve"/>
      <point x="422" y="36"/>
      <point x="337" y="-4" type="qcurve"/>
      <point x="292" y="-23"/>
      <point x="233" y="-23" type="qcurve"/>
      <point x="218" y="-23"/>
      <point x="209" y="-21" type="qcurve"/>
      <point x="193" y="-77" type="line"/>
      <point x="189" y="-90"/>
    </contour>
  </outline>
</glyph>
<glyph name="sterling" format="2">
  <advance height="1000" width="500"/>
  <unicode hex="00A3"/>
  <outline>
    <contour>
      <point x="352" y="-23" type="qcurve"/>
      <point x="314" y="-23"/>
      <point x="264" y="-6" type="qcurve"/>
      <point x="223" y="9"/>
      <point x="163" y="9" type="qcurve"/>
      <point x="138" y="9"/>
      <point x="107" y="-5"/>
      <point x="77" y="-23"/>
      <point x="52" y="-23" type="qcurve"/>
      <point x="15" y="-23"/>
      <point x="15" y="-4" type="qcurve"/>
      <point x="17" y="12" type="line"/>
      <point x="25" y="54"/>
      <point x="78" y="54"/>
      <point x="112" y="136"/>
      <point x="112" y="217" type="qcurve"/>
      <point x="112" y="283"/>
      <point x="109" y="309" type="qcurve"/>
      <point x="83" y="308"/>
      <point x="71" y="302"/>
      <point x="61" y="302" type="qcurve"/>
      <point x="44" y="302"/>
      <point x="24" y="341"/>
      <point x="24" y="355" type="qcurve"/>
      <point x="24" y="377"/>
      <point x="44" y="377" type="qcurve"/>
      <point x="79" y="377"/>
      <point x="100" y="378" type="qcurve"/>
      <point x="103" y="378" type="line"/>
      <point x="97" y="478" type="line"/>
      <point x="97" y="623"/>
      <point x="186" y="689" type="qcurve"/>
      <point x="229" y="720"/>
      <point x="284" y="720" type="qcurve"/>
      <point x="293" y="720"/>
      <point x="343" y="715"/>
      <point x="411" y="682"/>
      <point x="448" y="646" type="qcurve"/>
      <point x="455" y="638"/>
      <point x="455" y="628" type="qcurve"/>
      <point x="455" y="613"/>
      <point x="428" y="578"/>
      <point x="411" y="578" type="qcurve"/>
      <point x="400" y="578"/>
      <point x="394" y="585" type="qcurve"/>
      <point x="364" y="617"/>
      <point x="317" y="648"/>
      <point x="283" y="648" type="qcurve"/>
      <point x="246" y="648"/>
      <point x="199" y="599"/>
      <point x="178" y="518"/>
      <point x="178" y="476" type="qcurve"/>
      <point x="178" y="455"/>
      <point x="183" y="381" type="qcurve"/>
      <point x="358" y="391" type="line"/>
      <point x="377" y="391"/>
      <point x="396" y="352"/>
      <point x="396" y="337" type="qcurve"/>
      <point x="396" y="316"/>
      <point x="376" y="316" type="qcurve"/>
      <point x="365" y="317"/>
      <point x="311" y="317" type="qcurve"/>
      <point x="284" y="317"/>
      <point x="188" y="312" type="qcurve"/>
      <point x="191" y="290"/>
      <point x="191" y="260" type="qcurve"/>
      <point x="191" y="129"/>
      <point x="170" y="81" type="qcurve"/>
      <point x="202" y="81"/>
      <point x="231" y="74" type="qcurve"/>
      <point x="265" y="65"/>
      <point x="324" y="46"/>
      <point x="349" y="46" type="qcurve"/>
      <point x="399" y="46"/>
      <point x="434" y="67" type="qcurve"/>
      <point x="449" y="75"/>
      <point x="461" y="75" type="qcurve"/>
      <point x="484" y="75"/>
      <point x="484" y="57" type="qcurve"/>
      <point x="484" y="46"/>
      <point x="449" y="7"/>
      <point x="390" y="-23"/>
    </contour>
  </outline>
</glyph>
<glyph name="currency" format="2">
  <advance height="1000" width="500"/>
  <unicode hex="00A4"/>
  <outline>
    <contour>
      <point x="258" y="219" type="qcurve"/>
      <point x="305" y="219"/>
      <point x="370" y="284"/>
      <point x="370" y="331" type="qcurve"/>
      <point x="370" y="379"/>
      <point x="306" y="443"/>
      <point x="258" y="443" type="qcurve"/>
      <point x="211" y="443"/>
      <point x="146" y="378"/>
      <point x="146" y="331" type="qcurve"/>
      <point x="146" y="284"/>
      <point x="211" y="219"/>
    </contour>
    <contour>
      <point x="428" y="116" type="qcurve"/>
      <point x="420" y="116"/>
      <point x="412" y="123" type="qcurve"/>
      <point x="393" y="151"/>
      <point x="363" y="178" type="qcurve"/>
      <point x="320" y="146"/>
      <point x="258" y="146" type="qcurve"/>
      <point x="195" y="146"/>
      <point x="148" y="182" type="qcurve"/>
      <point x="116" y="152"/>
      <point x="95" y="123" type="qcurve"/>
      <point x="89" y="116"/>
      <point x="78" y="116" type="qcurve"/>
      <point x="62" y="116"/>
      <point x="23" y="148"/>
      <point x="23" y="164" type="qcurve"/>
      <point x="23" y="172"/>
      <point x="30" y="180" type="qcurve"/>
      <point x="68" y="209"/>
      <point x="98" y="239" type="qcurve"/>
      <point x="73" y="277"/>
      <point x="73" y="331" type="qcurve"/>
      <point x="73" y="384"/>
      <point x="96" y="419" type="qcurve"/>
      <point x="69" y="448"/>
      <point x="35" y="473" type="qcurve"/>
      <point x="28" y="479"/>
      <point x="28" y="488" type="qcurve"/>
      <point x="28" y="505"/>
      <point x="67" y="536"/>
      <point x="83" y="536" type="qcurve"/>
      <point x="94" y="536"/>
      <point x="100" y="529" type="qcurve"/>
      <point x="119" y="504"/>
      <point x="145" y="478" type="qcurve"/>
      <point x="195" y="516"/>
      <point x="258" y="516" type="qcurve"/>
      <point x="320" y="516"/>
      <point x="365" y="481" type="qcurve"/>
      <point x="389" y="505"/>
      <point x="407" y="529" type="qcurve"/>
      <point x="415" y="536"/>
      <point x="424" y="536" type="qcurve"/>
      <point x="440" y="536"/>
      <point x="479" y="506"/>
      <point x="479" y="489" type="qcurve"/>
      <point x="479" y="479"/>
      <point x="472" y="473" type="qcurve"/>
      <point x="445" y="452"/>
      <point x="417" y="425" type="qcurve"/>
      <point x="443" y="384"/>
      <point x="443" y="331" type="qcurve"/>
      <point x="443" y="275"/>
      <point x="415" y="234" type="qcurve"/>
      <point x="428" y="221"/>
      <point x="448" y="205" type="qcurve"/>
      <point x="459" y="196"/>
      <point x="473" y="183"/>
      <point x="484" y="175"/>
      <point x="484" y="164" type="qcurve"/>
      <point x="484" y="148"/>
      <point x="445" y="116"/>
    </contour>
  </outline>
</glyph>
<glyph name="yen" format="2">
  <advance height="1000" width="500"/>
  <unicode hex="00A5"/>
  <outline>
    <contour>
      <point x="260" y="-15" type="qcurve"/>
      <point x="243" y="-15"/>
      <point x="202" y="3"/>
      <point x="202" y="19" type="qcurve"/>
      <point x="203" y="42"/>
      <point x="204" y="164" type="qcurve"/>
      <point x="151" y="161"/>
      <point x="88" y="156" type="qcurve"/>
      <point x="68" y="156"/>
      <point x="48" y="197"/>
      <point x="48" y="212" type="qcurve"/>
      <point x="48" y="231"/>
      <point x="67" y="231" type="qcurve"/>
      <point x="92" y="229"/>
      <point x="128" y="229" type="qcurve"/>
      <point x="144" y="229"/>
      <point x="204" y="232" type="qcurve"/>
      <point x="204" y="304" type="line"/>
      <point x="121" y="300"/>
      <point x="88" y="296" type="qcurve"/>
      <point x="68" y="296"/>
      <point x="48" y="337"/>
      <point x="48" y="352" type="qcurve"/>
      <point x="48" y="371"/>
      <point x="67" y="371" type="qcurve"/>
      <point x="92" y="369"/>
      <point x="144" y="369" type="qcurve"/>
      <point x="188" y="371" type="line"/>
      <point x="86" y="587"/>
      <point x="18" y="668" type="qcurve"/>
      <point x="15" y="672"/>
      <point x="15" y="676" type="qcurve"/>
      <point x="15" y="687"/>
      <point x="55" y="708"/>
      <point x="75" y="708" type="qcurve"/>
      <point x="93" y="708"/>
      <point x="110" y="687"/>
      <point x="116" y="672" type="qcurve"/>
      <point x="125" y="652"/>
      <point x="139" y="626" type="qcurve"/>
      <point x="217" y="476"/>
      <point x="244" y="418" type="qcurve"/>
      <point x="278" y="484"/>
      <point x="337" y="592" type="qcurve"/>
      <point x="375" y="659"/>
      <point x="383" y="678" type="qcurve"/>
      <point x="388" y="693"/>
      <point x="405" y="715"/>
      <point x="424" y="715" type="qcurve"/>
      <point x="442" y="715"/>
      <point x="482" y="695"/>
      <point x="482" y="683" type="qcurve"/>
      <point x="482" y="679"/>
      <point x="477" y="672"/>
      <point x="468" y="659" type="qcurve"/>
      <point x="407" y="576"/>
      <point x="304" y="377" type="qcurve"/>
      <point x="350" y="379"/>
      <point x="394" y="384" type="qcurve"/>
      <point x="414" y="385" type="line"/>
      <point x="433" y="385"/>
      <point x="453" y="350"/>
      <point x="453" y="335" type="qcurve"/>
      <point x="453" y="314"/>
      <point x="433" y="314" type="qcurve"/>
      <point x="284" y="308" type="line"/>
      <point x="284" y="235" type="line"/>
      <point x="350" y="238"/>
      <point x="380" y="242" type="qcurve"/>
      <point x="405" y="245"/>
      <point x="415" y="245" type="qcurve"/>
      <point x="433" y="245"/>
      <point x="453" y="210"/>
      <point x="453" y="195" type="qcurve"/>
      <point x="453" y="174"/>
      <point x="433" y="174" type="qcurve"/>
      <point x="284" y="168" type="line"/>
      <point x="288" y="1" type="line"/>
      <point x="288" y="-15"/>
    </contour>
  </outline>
</glyph>
<glyph name="brokenbar" format="2">
  <advance height="1000" width="350"/>
  <unicode hex="00A6"/>
  <outline>
    <contour>
      <point x="215" y="428" type="line"/>
      <point x="134" y="428" type="line"/>
      <point x="134" y="723" type="line"/>
      <point x="215" y="723" type="line"/>
    </contour>
    <contour>
      <point x="215" y="-22" type="line"/>
      <point x="134" y="-22" type="line"/>
      <point x="134" y="273" type="line"/>
      <point x="215" y="273" type="line"/>
    </contour>
  </outline>
</glyph>
<glyph name="section" format="2">
  <advance height="1000" width="500"/>
  <unicode hex="00A7"/>
  <outline>
    <contour>
      <point x="361" y="272" type="qcurve"/>
      <point x="416" y="301"/>
      <point x="416" y="368" type="qcurve"/>
      <point x="416" y="420"/>
      <point x="355" y="470"/>
      <point x="284" y="486" type="qcurve"/>
      <point x="248" y="494"/>
      <point x="245" y="494" type="qcurve"/>
      <point x="95" y="494"/>
      <point x="95" y="405" type="qcurve"/>
      <point x="95" y="384"/>
      <point x="109" y="352"/>
      <point x="153" y="327"/>
      <point x="244" y="305"/>
      <point x="290" y="295" type="qcurve"/>
      <point x="332" y="288"/>
    </contour>
    <contour>
      <point x="244" y="-85" type="qcurve"/>
      <point x="99" y="-85"/>
      <point x="9" y="20" type="qcurve"/>
      <point x="1" y="30"/>
      <point x="1" y="42" type="qcurve"/>
      <point x="1" y="61"/>
      <point x="26" y="98"/>
      <point x="40" y="98" type="qcurve"/>
      <point x="49" y="98"/>
      <point x="56" y="88" type="qcurve"/>
      <point x="66" y="68"/>
      <point x="113" y="31" type="qcurve"/>
      <point x="164" y="-10"/>
      <point x="244" y="-10" type="qcurve"/>
      <point x="317" y="-10"/>
      <point x="398" y="52"/>
      <point x="398" y="101" type="qcurve"/>
      <point x="398" y="151"/>
      <point x="335" y="206"/>
      <point x="266" y="222" type="qcurve"/>
      <point x="173" y="244" type="line"/>
      <point x="17" y="283"/>
      <point x="17" y="403" type="qcurve"/>
      <point x="17" y="449"/>
      <point x="72" y="522"/>
      <point x="109" y="536" type="qcurve"/>
      <point x="34" y="570"/>
      <point x="34" y="661" type="qcurve"/>
      <point x="34" y="702"/>
      <point x="87" y="775"/>
      <point x="183" y="820"/>
      <point x="246" y="820" type="qcurve"/>
      <point x="370" y="820"/>
      <point x="446" y="751" type="qcurve"/>
      <point x="456" y="740"/>
      <point x="456" y="723" type="qcurve"/>
      <point x="456" y="705"/>
      <point x="437" y="670"/>
      <point x="424" y="670" type="qcurve"/>
      <point x="416" y="670"/>
      <point x="408" y="678" type="qcurve"/>
      <point x="392" y="705"/>
      <point x="327" y="734" type="qcurve"/>
      <point x="296" y="746"/>
      <point x="245" y="746" type="qcurve"/>
      <point x="178" y="746"/>
      <point x="112" y="693"/>
      <point x="112" y="663" type="qcurve"/>
      <point x="112" y="642"/>
      <point x="127" y="613"/>
      <point x="170" y="591"/>
      <point x="262" y="570"/>
      <point x="308" y="559" type="qcurve"/>
      <point x="399" y="540"/>
      <point x="494" y="446"/>
      <point x="494" y="369" type="qcurve"/>
      <point x="494" y="282"/>
      <point x="425" y="230" type="qcurve"/>
      <point x="476" y="183"/>
      <point x="476" y="102" type="qcurve"/>
      <point x="476" y="-8"/>
      <point x="367" y="-61" type="qcurve"/>
      <point x="315" y="-85"/>
    </contour>
  </outline>
</glyph>
<glyph name="dieresis" format="2">
  <advance height="1000" width="1000"/>
  <unicode hex="00A8"/>
  <outline>
    <contour>
      <point x="413" y="727" type="qcurve"/>
      <point x="388" y="727"/>
      <point x="351" y="772"/>
      <point x="351" y="794" type="qcurve"/>
      <point x="354" y="848"/>
      <point x="403" y="848" type="qcurve"/>
      <point x="426" y="848"/>
      <point x="464" y="805"/>
      <point x="464" y="780" type="qcurve"/>
      <point x="460" y="727"/>
    </contour>
    <contour>
      <point x="596" y="727" type="qcurve"/>
      <point x="571" y="727"/>
      <point x="534" y="772"/>
      <point x="534" y="794" type="qcurve"/>
      <point x="537" y="848"/>
      <point x="586" y="848" type="qcurve"/>
      <point x="609" y="848"/>
      <point x="647" y="805"/>
      <point x="647" y="780" type="qcurve"/>
      <point x="643" y="727"/>
    </contour>
  </outline>
</glyph>
<glyph name="copyright" format="2">
  <advance height="1000" width="1000"/>
  <unicode hex="00A9"/>
  <outline>
    <contour>
      <point x="479" y="115" type="qcurve"/>
      <point x="431" y="115"/>
      <point x="351" y="161"/>
      <point x="301" y="246"/>
      <point x="301" y="306" type="qcurve"/>
      <point x="301" y="411"/>
      <point x="376" y="491" type="qcurve"/>
      <point x="450" y="567"/>
      <point x="535" y="567" type="qcurve"/>
      <point x="584" y="567"/>
      <point x="643" y="534"/>
      <point x="669" y="495"/>
      <point x="669" y="485" type="qcurve"/>
      <point x="669" y="469"/>
      <point x="639" y="435"/>
      <point x="625" y="435" type="qcurve"/>
      <point x="612" y="435"/>
      <point x="598" y="467" type="qcurve"/>
      <point x="595" y="475"/>
      <point x="586" y="481" type="qcurve"/>
      <point x="562" y="498"/>
      <point x="537" y="498" type="qcurve"/>
      <point x="499" y="498"/>
      <point x="428" y="450"/>
      <point x="379" y="365"/>
      <point x="379" y="311" type="qcurve"/>
      <point x="379" y="265"/>
      <point x="410" y="208"/>
      <point x="458" y="183"/>
      <point x="479" y="183" type="qcurve"/>
      <point x="573" y="183"/>
      <point x="634" y="238" type="qcurve"/>
      <point x="647" y="247"/>
      <point x="656" y="247" type="qcurve"/>
      <point x="674" y="247"/>
      <point x="674" y="230" type="qcurve"/>
      <point x="674" y="221"/>
      <point x="666" y="209" type="qcurve"/>
      <point x="633" y="159"/>
      <point x="545" y="115"/>
    </contour>
    <contour>
      <point x="502" y="52" type="qcurve"/>
      <point x="620" y="52"/>
      <point x="786" y="218"/>
      <point x="786" y="336" type="qcurve"/>
      <point x="786" y="454"/>
      <point x="620" y="620"/>
      <point x="502" y="620" type="qcurve"/>
      <point x="384" y="620"/>
      <point x="218" y="454"/>
      <point x="218" y="336" type="qcurve"/>
      <point x="218" y="218"/>
      <point x="384" y="52"/>
    </contour>
    <contour>
      <point x="501" y="-13" type="qcurve"/>
      <point x="357" y="-13"/>
      <point x="152" y="192"/>
      <point x="152" y="336" type="qcurve"/>
      <point x="152" y="481"/>
      <point x="357" y="685"/>
      <point x="501" y="685" type="qcurve"/>
      <point x="646" y="685"/>
      <point x="851" y="480"/>
      <point x="851" y="336" type="qcurve"/>
      <point x="851" y="193"/>
      <point x="646" y="-13"/>
    </contour>
  </outline>
</glyph>
<glyph name="ordfeminine" format="2">
  <advance height="1000" width="500"/>
  <unicode hex="00AA"/>
  <outline>
    <contour>
      <point x="220" y="529" type="qcurve"/>
      <point x="250" y="529"/>
      <point x="295" y="581"/>
      <point x="299" y="630" type="qcurve"/>
      <point x="299" y="643"/>
      <point x="301" y="665" type="qcurve"/>
      <point x="295" y="667"/>
      <point x="289" y="673" type="qcurve"/>
      <point x="280" y="688"/>
      <point x="263" y="688" type="qcurve"/>
      <point x="230" y="688"/>
      <point x="202" y="636" type="qcurve"/>
      <point x="191" y="612"/>
      <point x="191" y="581" type="qcurve"/>
      <point x="192" y="529"/>
    </contour>
    <contour>
      <point x="313" y="755" type="qcurve"/>
      <point x="313" y="786" type="line"/>
      <point x="311" y="775"/>
      <point x="311" y="768" type="qcurve"/>
      <point x="311" y="760"/>
    </contour>
    <contour>
      <point x="313" y="755" type="line"/>
      <point x="317" y="746"/>
      <point x="328" y="746" type="qcurve"/>
      <point x="344" y="746"/>
      <point x="376" y="733"/>
      <point x="376" y="719" type="qcurve"/>
      <point x="369" y="613"/>
      <point x="369" y="594" type="qcurve"/>
      <point x="369" y="572"/>
      <point x="373" y="539"/>
      <point x="384" y="519" type="qcurve"/>
      <point x="384" y="518"/>
      <point x="386" y="515"/>
      <point x="386" y="509" type="qcurve"/>
      <point x="386" y="496"/>
      <point x="362" y="464"/>
      <point x="346" y="464" type="qcurve"/>
      <point x="322" y="464"/>
      <point x="312" y="508" type="qcurve"/>
      <point x="301" y="492"/>
      <point x="247" y="462"/>
      <point x="220" y="462" type="qcurve"/>
      <point x="175" y="462"/>
      <point x="119" y="522"/>
      <point x="119" y="579" type="qcurve"/>
      <point x="119" y="628"/>
      <point x="161" y="705"/>
      <point x="230" y="754"/>
      <point x="263" y="754" type="qcurve"/>
      <point x="281" y="754"/>
      <point x="310" y="745"/>
      <point x="313" y="739" type="qcurve"/>
    </contour>
  </outline>
</glyph>
<glyph name="guillemotleft" format="2">
  <advance height="1000" width="500"/>
  <unicode hex="00AB"/>
  <outline>
    <contour>
      <point x="251" y="-22" type="qcurve"/>
      <point x="240" y="-22"/>
      <point x="214" y="18" type="qcurve"/>
      <point x="203" y="33"/>
      <point x="189" y="49" type="qcurve"/>
      <point x="93" y="164"/>
      <point x="41" y="205" type="qcurve"/>
      <point x="26" y="219"/>
      <point x="26" y="251" type="qcurve"/>
      <point x="26" y="264"/>
      <point x="31" y="270" type="qcurve"/>
      <point x="59" y="294" type="line"/>
      <point x="189" y="419"/>
      <point x="235" y="488" type="qcurve"/>
      <point x="240" y="496"/>
      <point x="250" y="496" type="qcurve"/>
      <point x="265" y="496"/>
      <point x="285" y="458"/>
      <point x="285" y="441" type="qcurve"/>
      <point x="285" y="427"/>
      <point x="277" y="420" type="qcurve"/>
      <point x="236" y="373"/>
      <point x="106" y="241" type="qcurve"/>
      <point x="170" y="178"/>
      <point x="236" y="103" type="qcurve"/>
      <point x="278" y="57" type="line"/>
      <point x="285" y="49"/>
      <point x="285" y="36" type="qcurve"/>
      <point x="285" y="19"/>
      <point x="267" y="-22"/>
    </contour>
    <contour>
      <point x="436" y="-22" type="qcurve"/>
      <point x="425" y="-22"/>
      <point x="399" y="18" type="qcurve"/>
      <point x="296" y="149"/>
      <point x="225" y="205" type="qcurve"/>
      <point x="211" y="219"/>
      <point x="211" y="251" type="qcurve"/>
      <point x="211" y="264"/>
      <point x="216" y="270" type="qcurve"/>
      <point x="243" y="294" type="line"/>
      <point x="373" y="419"/>
      <point x="419" y="488" type="qcurve"/>
      <point x="425" y="496"/>
      <point x="434" y="496" type="qcurve"/>
      <point x="449" y="496"/>
      <point x="469" y="458"/>
      <point x="469" y="441" type="qcurve"/>
      <point x="469" y="427"/>
      <point x="461" y="420" type="qcurve"/>
      <point x="421" y="373"/>
      <point x="291" y="241" type="qcurve"/>
      <point x="354" y="178"/>
      <point x="420" y="103" type="qcurve"/>
      <point x="462" y="57" type="line"/>
      <point x="469" y="49"/>
      <point x="469" y="36" type="qcurve"/>
      <point x="469" y="19"/>
      <point x="452" y="-22"/>
    </contour>
  </outline>
</glyph>
<glyph name="logicalnot" format="2">
  <advance height="1000" width="500"/>
  <unicode hex="00AC"/>
  <outline>
    <contour>
      <point x="412" y="173" type="qcurve"/>
      <point x="397" y="173"/>
      <point x="374" y="188"/>
      <point x="374" y="200" type="qcurve"/>
      <point x="374" y="382" type="line"/>
      <point x="61" y="382" type="line"/>
      <point x="33" y="382"/>
      <point x="33" y="420" type="qcurve"/>
      <point x="33" y="458"/>
      <point x="61" y="458" type="qcurve"/>
      <point x="395" y="458" type="line"/>
      <point x="450" y="455"/>
      <point x="450" y="401" type="qcurve"/>
      <point x="450" y="200" type="line"/>
      <point x="450" y="188"/>
      <point x="426" y="173"/>
    </contour>
  </outline>
</glyph>
<glyph name="uni00AD" format="2">
  <advance height="1000" width="500"/>
  <unicode hex="00AD"/>
  <outline>
    <contour>
      <point x="495" y="344" type="qcurve"/>
      <point x="5" y="344" type="line"/>
      <point x="-20" y="344"/>
      <point x="-20" y="379" type="qcurve"/>
      <point x="-20" y="414"/>
      <point x="5" y="414" type="qcurve"/>
      <point x="495" y="414" type="line"/>
      <point x="520" y="414"/>
      <point x="520" y="379" type="qcurve"/>
      <point x="520" y="344"/>
    </contour>
  </outline>
</glyph>
<glyph name="registered" format="2">
  <advance height="1000" width="1000"/>
  <unicode hex="00AE"/>
  <outline>
    <contour>
      <point x="472" y="382" type="qcurve"/>
      <point x="533" y="382"/>
      <point x="591" y="429"/>
      <point x="591" y="456" type="qcurve"/>
      <point x="591" y="505"/>
      <point x="514" y="505" type="qcurve"/>
      <point x="472" y="505"/>
      <point x="441" y="496" type="qcurve"/>
      <point x="441" y="390" type="line"/>
      <point x="438" y="387"/>
      <point x="438" y="386" type="qcurve"/>
      <point x="438" y="384"/>
      <point x="449" y="384"/>
      <point x="454" y="382"/>
    </contour>
    <contour>
      <point x="707" y="139" type="qcurve"/>
      <point x="786" y="221"/>
      <point x="786" y="336" type="qcurve"/>
      <point x="786" y="454"/>
      <point x="620" y="620"/>
      <point x="502" y="620" type="qcurve"/>
      <point x="384" y="620"/>
      <point x="218" y="454"/>
      <point x="218" y="336" type="qcurve"/>
      <point x="218" y="218"/>
      <point x="384" y="52"/>
      <point x="502" y="52" type="qcurve"/>
      <point x="604" y="52"/>
      <point x="680" y="114" type="qcurve"/>
      <point x="670" y="114" type="line"/>
      <point x="630" y="114"/>
      <point x="598" y="137" type="qcurve"/>
      <point x="543" y="187"/>
      <point x="492" y="252" type="qcurve"/>
      <point x="449" y="306"/>
      <point x="441" y="310" type="qcurve"/>
      <point x="441" y="184"/>
      <point x="442" y="164" type="qcurve"/>
      <point x="442" y="133" type="line"/>
      <point x="442" y="117"/>
      <point x="414" y="117" type="qcurve"/>
      <point x="400" y="117"/>
      <point x="367" y="130"/>
      <point x="367" y="144" type="qcurve"/>
      <point x="368" y="169"/>
      <point x="368" y="492" type="qcurve"/>
      <point x="361" y="497"/>
      <point x="348" y="523"/>
      <point x="348" y="534" type="qcurve"/>
      <point x="348" y="554"/>
      <point x="376" y="555"/>
      <point x="424" y="565" type="qcurve"/>
      <point x="454" y="573"/>
      <point x="515" y="573" type="qcurve"/>
      <point x="569" y="573"/>
      <point x="634" y="540"/>
      <point x="664" y="487"/>
      <point x="664" y="458" type="qcurve"/>
      <point x="664" y="419"/>
      <point x="620" y="362"/>
      <point x="547" y="327"/>
      <point x="516" y="325" type="qcurve"/>
      <point x="534" y="306"/>
      <point x="569" y="265" type="qcurve"/>
      <point x="643" y="173"/>
      <point x="673" y="162" type="qcurve"/>
      <point x="702" y="154"/>
    </contour>
    <contour>
      <point x="501" y="-13" type="qcurve"/>
      <point x="357" y="-13"/>
      <point x="152" y="192"/>
      <point x="152" y="336" type="qcurve"/>
      <point x="152" y="481"/>
      <point x="357" y="685"/>
      <point x="501" y="685" type="qcurve"/>
      <point x="646" y="685"/>
      <point x="851" y="480"/>
      <point x="851" y="336" type="qcurve"/>
      <point x="851" y="193"/>
      <point x="646" y="-13"/>
    </contour>
  </outline>
</glyph>
<glyph name="degree" format="2">
  <advance height="1000" width="1000"/>
  <unicode hex="00B0"/>
  <outline>
    <contour>
      <point x="162" y="651" type="qcurve"/>
      <point x="185" y="651"/>
      <point x="217" y="683"/>
      <point x="217" y="706" type="qcurve"/>
      <point x="217" y="730"/>
      <point x="186" y="761"/>
      <point x="162" y="761" type="qcurve"/>
      <point x="139" y="761"/>
      <point x="107" y="729"/>
      <point x="107" y="706" type="qcurve"/>
      <point x="107" y="683"/>
      <point x="139" y="651"/>
    </contour>
    <contour>
      <point x="162" y="593" type="qcurve"/>
      <point x="115" y="593"/>
      <point x="49" y="659"/>
      <point x="49" y="706" type="qcurve"/>
      <point x="49" y="753"/>
      <point x="115" y="819"/>
      <point x="162" y="819" type="qcurve"/>
      <point x="209" y="819"/>
      <point x="275" y="753"/>
      <point x="275" y="706" type="qcurve"/>
      <point x="275" y="659"/>
      <point x="209" y="593"/>
    </contour>
  </outline>
</glyph>
<glyph name="plusminus" format="2">
  <advance height="1000" width="1000"/>
  <unicode hex="00B1"/>
  <outline>
    <contour>
      <point x="186" y="49" type="qcurve"/>
      <point x="172" y="49"/>
      <point x="159" y="82"/>
      <point x="159" y="97" type="qcurve"/>
      <point x="159" y="128"/>
      <point x="181" y="128" type="qcurve"/>
      <point x="221" y="126"/>
      <point x="268" y="126" type="qcurve"/>
      <point x="672" y="131"/>
      <point x="812" y="135" type="qcurve"/>
      <point x="826" y="135"/>
      <point x="840" y="105"/>
      <point x="840" y="90" type="qcurve"/>
      <point x="840" y="79"/>
      <point x="829" y="57"/>
      <point x="817" y="57" type="qcurve"/>
      <point x="770" y="58" type="line"/>
      <point x="204" y="52"/>
    </contour>
    <contour>
      <point x="505" y="198" type="qcurve"/>
      <point x="490" y="198"/>
      <point x="460" y="211"/>
      <point x="460" y="226" type="qcurve"/>
      <point x="463" y="256"/>
      <point x="463" y="421" type="qcurve"/>
      <point x="201" y="418"/>
      <point x="186" y="416" type="qcurve"/>
      <point x="172" y="416"/>
      <point x="159" y="449"/>
      <point x="159" y="464" type="qcurve"/>
      <point x="159" y="495"/>
      <point x="181" y="495" type="qcurve"/>
      <point x="221" y="493"/>
      <point x="268" y="493" type="qcurve"/>
      <point x="463" y="496" type="line"/>
      <point x="463" y="648"/>
      <point x="461" y="688" type="qcurve"/>
      <point x="461" y="710"/>
      <point x="493" y="710" type="qcurve"/>
      <point x="508" y="710"/>
      <point x="540" y="697"/>
      <point x="540" y="684" type="qcurve"/>
      <point x="537" y="634"/>
      <point x="537" y="496" type="qcurve"/>
      <point x="665" y="498"/>
      <point x="812" y="502" type="qcurve"/>
      <point x="826" y="502"/>
      <point x="840" y="472"/>
      <point x="840" y="457" type="qcurve"/>
      <point x="840" y="446"/>
      <point x="829" y="424"/>
      <point x="817" y="424" type="qcurve"/>
      <point x="770" y="425" type="line"/>
      <point x="537" y="422" type="line"/>
      <point x="537" y="290"/>
      <point x="538" y="266" type="qcurve"/>
      <point x="538" y="220" type="line"/>
      <point x="538" y="198"/>
    </contour>
  </outline>
</glyph>
<glyph name="uni00B2" format="2">
  <advance height="1000" width="500"/>
  <unicode hex="00B2"/>
  <outline>
    <contour>
      <point x="149" y="320" type="qcurve"/>
      <point x="128" y="320"/>
      <point x="106" y="353"/>
      <point x="106" y="368" type="qcurve"/>
      <point x="106" y="386"/>
      <point x="120" y="395" type="qcurve"/>
      <point x="123" y="399" type="line"/>
      <point x="157" y="456"/>
      <point x="245" y="529" type="qcurve"/>
      <point x="276" y="553"/>
      <point x="315" y="593"/>
      <point x="315" y="617" type="qcurve"/>
      <point x="315" y="645"/>
      <point x="265" y="645" type="qcurve"/>
      <point x="239" y="645"/>
      <point x="210" y="623"/>
      <point x="187" y="576"/>
      <point x="168" y="576" type="qcurve"/>
      <point x="159" y="576"/>
      <point x="149" y="585" type="qcurve"/>
      <point x="130" y="604"/>
      <point x="130" y="621" type="qcurve"/>
      <point x="130" y="633"/>
      <point x="162" y="676"/>
      <point x="223" y="715"/>
      <point x="268" y="715" type="qcurve"/>
      <point x="327" y="715"/>
      <point x="388" y="661"/>
      <point x="388" y="613" type="qcurve"/>
      <point x="388" y="573"/>
      <point x="331" y="506"/>
      <point x="289" y="473" type="qcurve"/>
      <point x="233" y="431"/>
      <point x="206" y="396" type="qcurve"/>
      <point x="289" y="396" type="line"/>
      <point x="322" y="395" type="line"/>
      <point x="355" y="397" type="line"/>
      <point x="371" y="397"/>
      <point x="389" y="367"/>
      <point x="389" y="352" type="qcurve"/>
      <point x="389" y="324"/>
      <point x="365" y="324" type="qcurve"/>
      <point x="349" y="325" type="line"/>
      <point x="308" y="325"/>
      <point x="264" y="327"/>
      <point x="229" y="327" type="qcurve"/>
      <point x="170" y="327"/>
    </contour>
  </outline>
</glyph>
<glyph name="uni00B3" format="2">
  <advance height="1000" width="500"/>
  <unicode hex="00B3"/>
  <outline>
    <contour>
      <point x="238" y="315" type="qcurve"/>
      <point x="176" y="315"/>
      <point x="127" y="352" type="qcurve"/>
      <point x="106" y="368"/>
      <point x="106" y="383" type="qcurve"/>
      <point x="106" y="398"/>
      <point x="128" y="428"/>
      <point x="142" y="428" type="qcurve"/>
      <point x="153" y="428"/>
      <point x="160" y="419" type="qcurve"/>
      <point x="192" y="385"/>
      <point x="238" y="385" type="qcurve"/>
      <point x="314" y="385"/>
      <point x="314" y="447" type="qcurve"/>
      <point x="313" y="497"/>
      <point x="260" y="497" type="qcurve"/>
      <point x="245" y="497"/>
      <point x="213" y="489" type="qcurve"/>
      <point x="199" y="489"/>
      <point x="179" y="519"/>
      <point x="179" y="533" type="qcurve"/>
      <point x="179" y="556"/>
      <point x="197" y="556" type="qcurve"/>
      <point x="250" y="562"/>
      <point x="284" y="586" type="qcurve"/>
      <point x="302" y="600"/>
      <point x="302" y="620" type="qcurve"/>
      <point x="302" y="648"/>
      <point x="259" y="648" type="qcurve"/>
      <point x="213" y="648"/>
      <point x="189" y="613" type="qcurve"/>
      <point x="175" y="596"/>
      <point x="161" y="596" type="qcurve"/>
      <point x="150" y="596"/>
      <point x="127" y="628"/>
      <point x="127" y="643" type="qcurve"/>
      <point x="127" y="656"/>
      <point x="163" y="690"/>
      <point x="221" y="716"/>
      <point x="258" y="716" type="qcurve"/>
      <point x="313" y="716"/>
      <point x="372" y="666"/>
      <point x="372" y="621" type="qcurve"/>
      <point x="372" y="569"/>
      <point x="330" y="541" type="qcurve"/>
      <point x="348" y="535"/>
      <point x="385" y="484"/>
      <point x="385" y="451" type="qcurve"/>
      <point x="385" y="315"/>
    </contour>
  </outline>
</glyph>
<glyph name="mu" format="2">
  <advance height="1000" width="500"/>
  <unicode hex="00B5"/>
  <outline>
    <contour>
      <point x="111" y="-185" type="qcurve"/>
      <point x="94" y="-185"/>
      <point x="57" y="-167"/>
      <point x="57" y="-151" type="qcurve"/>
      <point x="58" y="-88" type="line"/>
      <point x="58" y="355"/>
      <point x="56" y="474" type="qcurve"/>
      <point x="56" y="490"/>
      <point x="82" y="490" type="qcurve"/>
      <point x="100" y="490"/>
      <point x="138" y="472"/>
      <point x="138" y="456" type="qcurve"/>
      <point x="137" y="340"/>
      <point x="137" y="183" type="qcurve"/>
      <point x="137" y="104"/>
      <point x="170" y="67" type="qcurve"/>
      <point x="185" y="50"/>
      <point x="208" y="50" type="qcurve"/>
      <point x="282" y="50"/>
      <point x="331" y="168" type="qcurve"/>
      <point x="354" y="226"/>
      <point x="357" y="301" type="qcurve"/>
      <point x="360" y="370"/>
      <point x="360" y="475" type="qcurve"/>
      <point x="360" y="491"/>
      <point x="387" y="491" type="qcurve"/>
      <point x="405" y="491"/>
      <point x="444" y="474"/>
      <point x="444" y="457" type="qcurve"/>
      <point x="433" y="385"/>
      <point x="433" y="237" type="qcurve"/>
      <point x="433" y="98"/>
      <point x="467" y="36" type="qcurve"/>
      <point x="469" y="29" type="line"/>
      <point x="469" y="17"/>
      <point x="441" y="-19"/>
      <point x="420" y="-19" type="qcurve"/>
      <point x="389" y="-19"/>
      <point x="371" y="54" type="qcurve"/>
      <point x="365" y="75"/>
      <point x="364" y="75" type="qcurve"/>
      <point x="364" y="72" type="line"/>
      <point x="355" y="50"/>
      <point x="269" y="-24"/>
      <point x="208" y="-24" type="qcurve"/>
      <point x="178" y="-24"/>
      <point x="155" y="-8" type="qcurve"/>
      <point x="138" y="5"/>
      <point x="136" y="5" type="qcurve"/>
      <point x="135" y="4" type="line"/>
      <point x="136" y="3" type="line"/>
      <point x="136" y="-50"/>
      <point x="138" y="-169" type="qcurve"/>
      <point x="138" y="-185"/>
    </contour>
  </outline>
</glyph>
<glyph name="paragraph" format="2">
  <advance height="1000" width="1000"/>
  <unicode hex="00B6"/>
  <outline>
    <contour>
      <point x="438" y="-62" type="qcurve"/>
      <point x="423" y="-62"/>
      <point x="391" y="-49"/>
      <point x="391" y="-34" type="qcurve"/>
      <point x="394" y="-3"/>
      <point x="394" y="380" type="qcurve"/>
      <point x="380" y="377"/>
      <point x="356" y="377" type="qcurve"/>
      <point x="313" y="377"/>
      <point x="236" y="414"/>
      <point x="186" y="489"/>
      <point x="186" y="546" type="qcurve"/>
      <point x="186" y="612"/>
      <point x="247" y="710"/>
      <point x="347" y="769"/>
      <point x="406" y="770" type="qcurve"/>
      <point x="620" y="780" type="line"/>
      <point x="646" y="780"/>
      <point x="674" y="747"/>
      <point x="674" y="726" type="qcurve"/>
      <point x="674" y="-5"/>
      <point x="675" y="-29" type="qcurve"/>
      <point x="675" y="-51"/>
      <point x="641" y="-51" type="qcurve"/>
      <point x="626" y="-51"/>
      <point x="594" y="-38"/>
      <point x="594" y="-23" type="qcurve"/>
      <point x="597" y="8"/>
      <point x="597" y="708" type="qcurve"/>
      <point x="471" y="701" type="line"/>
      <point x="471" y="-17"/>
      <point x="472" y="-40" type="qcurve"/>
      <point x="472" y="-62"/>
    </contour>
  </outline>
</glyph>
<glyph name="cedilla" format="2">
  <advance height="1000" width="500"/>
  <unicode hex="00B8"/>
  <unicode hex="0327"/>
  <outline>
    <contour>
      <point x="254" y="-186" type="qcurve"/>
      <point x="208" y="-186"/>
      <point x="162" y="-163" type="qcurve"/>
      <point x="149" y="-155"/>
      <point x="149" y="-134" type="qcurve"/>
      <point x="149" y="-120"/>
      <point x="161" y="-91"/>
      <point x="172" y="-91" type="qcurve"/>
      <point x="181" y="-91"/>
      <point x="183" y="-95" type="qcurve"/>
      <point x="201" y="-108"/>
      <point x="230" y="-119"/>
      <point x="254" y="-119" type="qcurve"/>
      <point x="274" y="-119"/>
      <point x="291" y="-110"/>
      <point x="291" y="-97" type="qcurve"/>
      <point x="291" y="-78"/>
      <point x="260" y="-78" type="qcurve"/>
      <point x="248" y="-78"/>
      <point x="224" y="-82" type="qcurve"/>
      <point x="206" y="-82"/>
      <point x="183" y="-61"/>
      <point x="183" y="-45" type="qcurve"/>
      <point x="183" y="-40"/>
      <point x="185" y="-35"/>
      <point x="185" y="-34" type="qcurve"/>
      <point x="197" y="-3"/>
      <point x="207" y="29" type="qcurve"/>
      <point x="285" y="23" type="line"/>
      <point x="272" y="-15" type="line"/>
      <point x="269" y="-17"/>
      <point x="269" y="-18" type="qcurve"/>
      <point x="269" y="-20"/>
      <point x="282" y="-20" type="qcurve"/>
      <point x="366" y="-20"/>
      <point x="366" y="-97" type="qcurve"/>
      <point x="361" y="-186"/>
    </contour>
  </outline>
</glyph>
<glyph name="uni00B9" format="2">
  <advance height="1000" width="500"/>
  <unicode hex="00B9"/>
  <outline>
    <contour>
      <point x="276" y="320" type="qcurve"/>
      <point x="260" y="320"/>
      <point x="227" y="340"/>
      <point x="227" y="357" type="qcurve"/>
      <point x="227" y="369"/>
      <point x="229" y="414"/>
      <point x="229" y="607" type="qcurve"/>
      <point x="207" y="592"/>
      <point x="187" y="589" type="qcurve"/>
      <point x="185" y="588"/>
      <point x="178" y="588" type="qcurve"/>
      <point x="164" y="588"/>
      <point x="137" y="609"/>
      <point x="137" y="621" type="qcurve"/>
      <point x="137" y="633"/>
      <point x="150" y="638" type="qcurve"/>
      <point x="205" y="663"/>
      <point x="237" y="702" type="qcurve"/>
      <point x="248" y="716"/>
      <point x="260" y="716" type="qcurve"/>
      <point x="272" y="716"/>
      <point x="304" y="692"/>
      <point x="304" y="676" type="qcurve"/>
      <point x="303" y="655" type="line"/>
      <point x="300" y="632"/>
      <point x="300" y="619" type="qcurve"/>
      <point x="300" y="388"/>
      <point x="302" y="342" type="qcurve"/>
      <point x="302" y="320"/>
    </contour>
  </outline>
</glyph>
<glyph name="ordmasculine" format="2">
  <advance height="1000" width="500"/>
  <unicode hex="00BA"/>
  <outline>
    <contour>
      <point x="244" y="529" type="qcurve"/>
      <point x="273" y="529"/>
      <point x="313" y="580"/>
      <point x="313" y="615" type="qcurve"/>
      <point x="313" y="688"/>
      <point x="264" y="688" type="qcurve"/>
      <point x="220" y="688"/>
      <point x="200" y="639" type="qcurve"/>
      <point x="190" y="617"/>
      <point x="190" y="595" type="qcurve"/>
      <point x="192" y="529"/>
    </contour>
    <contour>
      <point x="244" y="462" type="qcurve"/>
      <point x="185" y="462"/>
      <point x="119" y="536"/>
      <point x="119" y="596" type="qcurve"/>
      <point x="119" y="627"/>
      <point x="144" y="692"/>
      <point x="182" y="739"/>
      <point x="198" y="739" type="qcurve"/>
      <point x="208" y="739"/>
      <point x="209" y="738" type="qcurve"/>
      <point x="228" y="754"/>
      <point x="267" y="754" type="qcurve"/>
      <point x="318" y="754"/>
      <point x="384" y="681"/>
      <point x="384" y="615" type="qcurve"/>
      <point x="384" y="578"/>
      <point x="352" y="508"/>
      <point x="290" y="462"/>
    </contour>
  </outline>
</glyph>
<glyph name="guillemotright" format="2">
  <advance height="1000" width="500"/>
  <unicode hex="00BB"/>
  <outline>
    <contour>
      <point x="63" y="-28" type="qcurve"/>
      <point x="47" y="-28"/>
      <point x="30" y="13"/>
      <point x="30" y="30" type="qcurve"/>
      <point x="30" y="43"/>
      <point x="37" y="51" type="qcurve"/>
      <point x="79" y="97" type="line"/>
      <point x="145" y="172"/>
      <point x="208" y="235" type="qcurve"/>
      <point x="119" y="326"/>
      <point x="66" y="384" type="qcurve"/>
      <point x="41" y="410"/>
      <point x="30" y="421"/>
      <point x="30" y="435" type="qcurve"/>
      <point x="30" y="452"/>
      <point x="50" y="490"/>
      <point x="65" y="490" type="qcurve"/>
      <point x="76" y="490"/>
      <point x="80" y="482" type="qcurve"/>
      <point x="126" y="413"/>
      <point x="256" y="288" type="qcurve"/>
      <point x="283" y="264" type="line"/>
      <point x="288" y="258"/>
      <point x="288" y="245" type="qcurve"/>
      <point x="288" y="213"/>
      <point x="274" y="199" type="qcurve"/>
      <point x="226" y="161"/>
      <point x="125" y="43" type="qcurve"/>
      <point x="117" y="34"/>
      <point x="83" y="-12" type="qcurve"/>
      <point x="74" y="-28"/>
    </contour>
    <contour>
      <point x="248" y="-28" type="qcurve"/>
      <point x="232" y="-28"/>
      <point x="214" y="13"/>
      <point x="214" y="30" type="qcurve"/>
      <point x="214" y="43"/>
      <point x="221" y="51" type="qcurve"/>
      <point x="263" y="97" type="line"/>
      <point x="329" y="172"/>
      <point x="393" y="235" type="qcurve"/>
      <point x="304" y="326"/>
      <point x="251" y="384" type="qcurve"/>
      <point x="226" y="410"/>
      <point x="214" y="421"/>
      <point x="214" y="435" type="qcurve"/>
      <point x="214" y="452"/>
      <point x="234" y="490"/>
      <point x="249" y="490" type="qcurve"/>
      <point x="261" y="490"/>
      <point x="264" y="482" type="qcurve"/>
      <point x="310" y="413"/>
      <point x="440" y="288" type="qcurve"/>
      <point x="467" y="264" type="line"/>
      <point x="473" y="258"/>
      <point x="473" y="245" type="qcurve"/>
      <point x="473" y="213"/>
      <point x="458" y="199" type="qcurve"/>
      <point x="411" y="161"/>
      <point x="309" y="43" type="qcurve"/>
      <point x="301" y="34"/>
      <point x="268" y="-12" type="qcurve"/>
      <point x="258" y="-28"/>
    </contour>
  </outline>
</glyph>
<glyph name="questiondown" format="2">
  <advance height="1000" width="500"/>
  <unicode hex="00BF"/>
  <outline>
    <contour>
      <point x="207" y="-220" type="qcurve"/>
      <point x="134" y="-220"/>
      <point x="48" y="-142"/>
      <point x="48" y="-75" type="qcurve"/>
      <point x="48" y="17"/>
      <point x="110" y="79" type="qcurve"/>
      <point x="135" y="106"/>
      <point x="162" y="130" type="qcurve"/>
      <point x="230" y="187"/>
      <point x="230" y="245" type="qcurve"/>
      <point x="230" y="275"/>
      <point x="221" y="315" type="qcurve"/>
      <point x="221" y="326"/>
      <point x="243" y="337"/>
      <point x="256" y="337" type="qcurve"/>
      <point x="295" y="337"/>
      <point x="308" y="300"/>
      <point x="308" y="275" type="qcurve"/>
      <point x="308" y="162"/>
      <point x="235" y="102" type="qcurve"/>
      <point x="222" y="89" type="line"/>
      <point x="132" y="12"/>
      <point x="132" y="-69" type="qcurve"/>
      <point x="132" y="-104"/>
      <point x="169" y="-149"/>
      <point x="206" y="-149" type="qcurve"/>
      <point x="338" y="-149"/>
      <point x="378" y="-19" type="qcurve"/>
      <point x="385" y="-1"/>
      <point x="403" y="-1" type="qcurve"/>
      <point x="421" y="-1"/>
      <point x="455" y="-32"/>
      <point x="455" y="-49" type="qcurve"/>
      <point x="455" y="-56"/>
      <point x="452" y="-60" type="qcurve"/>
      <point x="370" y="-220"/>
    </contour>
    <contour>
      <point x="265" y="392" type="qcurve"/>
      <point x="242" y="392"/>
      <point x="209" y="438"/>
      <point x="209" y="462" type="qcurve"/>
      <point x="209" y="514"/>
      <point x="265" y="514" type="qcurve"/>
      <point x="289" y="514"/>
      <point x="322" y="471"/>
      <point x="322" y="448" type="qcurve"/>
      <point x="322" y="426"/>
      <point x="294" y="392"/>
    </contour>
  </outline>
</glyph>
<glyph name="Agrave" format="2">
  <advance height="1000" width="500"/>
  <unicode hex="00C0"/>
  <outline>
    <contour>
      <point x="178" y="288" type="line"/>
      <point x="321" y="296" type="line"/>
      <point x="255" y="568" type="line"/>
    </contour>
    <contour>
      <point x="432" y="-14" type="qcurve"/>
      <point x="409" y="-14"/>
      <point x="398" y="2" type="qcurve"/>
      <point x="390" y="37"/>
      <point x="338" y="230" type="qcurve"/>
      <point x="160" y="219" type="line"/>
      <point x="151" y="186"/>
      <point x="124" y="97" type="qcurve"/>
      <point x="102" y="9" type="line"/>
      <point x="94" y="-13"/>
      <point x="56" y="-13" type="qcurve"/>
      <point x="42" y="-13"/>
      <point x="15" y="-1"/>
      <point x="15" y="12" type="qcurve"/>
      <point x="15" y="17"/>
      <point x="19" y="25" type="qcurve"/>
      <point x="53" y="101"/>
      <point x="84" y="211" type="qcurve"/>
      <point x="85" y="211"/>
      <point x="85" y="212" type="qcurve"/>
      <point x="81" y="212" type="line"/>
      <point x="69" y="212"/>
      <point x="55" y="234"/>
      <point x="46" y="259"/>
      <point x="46" y="270" type="qcurve"/>
      <point x="46" y="291"/>
      <point x="65" y="291" type="qcurve"/>
      <point x="106" y="285" type="line"/>
      <point x="204" y="626"/>
      <point x="211" y="683" type="qcurve"/>
      <point x="214" y="700"/>
      <point x="226" y="717"/>
      <point x="243" y="717" type="qcurve"/>
      <point x="260" y="717"/>
      <point x="302" y="697"/>
      <point x="306" y="686" type="qcurve"/>
      <point x="308" y="684"/>
      <point x="308" y="679" type="qcurve"/>
      <point x="308" y="674"/>
      <point x="305" y="663"/>
      <point x="305" y="659" type="qcurve"/>
      <point x="305" y="655"/>
      <point x="321" y="591" type="qcurve"/>
      <point x="442" y="92"/>
      <point x="481" y="28" type="qcurve"/>
      <point x="485" y="23"/>
      <point x="485" y="17" type="qcurve"/>
      <point x="485" y="2"/>
      <point x="449" y="-14"/>
    </contour>
    <contour>
      <point x="329" y="735" type="qcurve"/>
      <point x="323" y="735"/>
      <point x="314" y="739" type="qcurve"/>
      <point x="283" y="759"/>
      <point x="198" y="793"/>
      <point x="153" y="811" type="qcurve"/>
      <point x="142" y="816"/>
      <point x="142" y="826" type="qcurve"/>
      <point x="142" y="837"/>
      <point x="162" y="864"/>
      <point x="192" y="886"/>
      <point x="204" y="886" type="qcurve"/>
      <point x="213" y="886"/>
      <point x="217" y="882" type="qcurve"/>
      <point x="353" y="783"/>
      <point x="353" y="758" type="qcurve"/>
      <point x="353" y="735"/>
    </contour>
  </outline>
</glyph>
<glyph name="Aacute" format="2">
  <advance height="1000" width="500"/>
  <unicode hex="00C1"/>
  <outline>
    <contour>
      <point x="178" y="288" type="line"/>
      <point x="321" y="296" type="line"/>
      <point x="255" y="568" type="line"/>
    </contour>
    <contour>
      <point x="432" y="-14" type="qcurve"/>
      <point x="409" y="-14"/>
      <point x="398" y="2" type="qcurve"/>
      <point x="390" y="37"/>
      <point x="338" y="230" type="qcurve"/>
      <point x="160" y="219" type="line"/>
      <point x="151" y="186"/>
      <point x="124" y="97" type="qcurve"/>
      <point x="102" y="9" type="line"/>
      <point x="94" y="-13"/>
      <point x="56" y="-13" type="qcurve"/>
      <point x="42" y="-13"/>
      <point x="15" y="-1"/>
      <point x="15" y="12" type="qcurve"/>
      <point x="15" y="17"/>
      <point x="19" y="25" type="qcurve"/>
      <point x="53" y="101"/>
      <point x="84" y="211" type="qcurve"/>
      <point x="85" y="211"/>
      <point x="85" y="212" type="qcurve"/>
      <point x="81" y="212" type="line"/>
      <point x="69" y="212"/>
      <point x="55" y="234"/>
      <point x="46" y="259"/>
      <point x="46" y="270" type="qcurve"/>
      <point x="46" y="291"/>
      <point x="65" y="291" type="qcurve"/>
      <point x="106" y="285" type="line"/>
      <point x="204" y="626"/>
      <point x="211" y="683" type="qcurve"/>
      <point x="214" y="700"/>
      <point x="226" y="717"/>
      <point x="243" y="717" type="qcurve"/>
      <point x="260" y="717"/>
      <point x="302" y="697"/>
      <point x="306" y="686" type="qcurve"/>
      <point x="308" y="684"/>
      <point x="308" y="679" type="qcurve"/>
      <point x="308" y="674"/>
      <point x="305" y="663"/>
      <point x="305" y="659" type="qcurve"/>
      <point x="305" y="655"/>
      <point x="321" y="591" type="qcurve"/>
      <point x="442" y="92"/>
      <point x="481" y="28" type="qcurve"/>
      <point x="485" y="23"/>
      <point x="485" y="17" type="qcurve"/>
      <point x="485" y="2"/>
      <point x="449" y="-14"/>
    </contour>
    <contour>
      <point x="182" y="735" type="qcurve"/>
      <point x="170" y="735"/>
      <point x="157" y="750"/>
      <point x="157" y="758" type="qcurve"/>
      <point x="157" y="782"/>
      <point x="295" y="883" type="qcurve"/>
      <point x="300" y="886"/>
      <point x="307" y="886" type="qcurve"/>
      <point x="320" y="886"/>
      <point x="346" y="864"/>
      <point x="369" y="838"/>
      <point x="369" y="826" type="qcurve"/>
      <point x="369" y="816"/>
      <point x="358" y="811" type="qcurve"/>
      <point x="314" y="793"/>
      <point x="227" y="759"/>
      <point x="197" y="740" type="qcurve"/>
      <point x="189" y="735"/>
    </contour>
  </outline>
</glyph>
<glyph name="Acircumflex" format="2">
  <advance height="1000" width="500"/>
  <unicode hex="00C2"/>
  <outline>
    <contour>
      <point x="178" y="288" type="line"/>
      <point x="321" y="296" type="line"/>
      <point x="255" y="568" type="line"/>
    </contour>
    <contour>
      <point x="432" y="-14" type="qcurve"/>
      <point x="409" y="-14"/>
      <point x="398" y="2" type="qcurve"/>
      <point x="390" y="37"/>
      <point x="338" y="230" type="qcurve"/>
      <point x="160" y="219" type="line"/>
      <point x="151" y="186"/>
      <point x="124" y="97" type="qcurve"/>
      <point x="102" y="9" type="line"/>
      <point x="94" y="-13"/>
      <point x="56" y="-13" type="qcurve"/>
      <point x="42" y="-13"/>
      <point x="15" y="-1"/>
      <point x="15" y="12" type="qcurve"/>
      <point x="15" y="17"/>
      <point x="19" y="25" type="qcurve"/>
      <point x="53" y="101"/>
      <point x="84" y="211" type="qcurve"/>
      <point x="85" y="211"/>
      <point x="85" y="212" type="qcurve"/>
      <point x="81" y="212" type="line"/>
      <point x="69" y="212"/>
      <point x="55" y="234"/>
      <point x="46" y="259"/>
      <point x="46" y="270" type="qcurve"/>
      <point x="46" y="291"/>
      <point x="65" y="291" type="qcurve"/>
      <point x="106" y="285" type="line"/>
      <point x="204" y="626"/>
      <point x="211" y="683" type="qcurve"/>
      <point x="214" y="700"/>
      <point x="226" y="717"/>
      <point x="243" y="717" type="qcurve"/>
      <point x="260" y="717"/>
      <point x="302" y="697"/>
      <point x="306" y="686" type="qcurve"/>
      <point x="308" y="684"/>
      <point x="308" y="679" type="qcurve"/>
      <point x="308" y="674"/>
      <point x="305" y="663"/>
      <point x="305" y="659" type="qcurve"/>
      <point x="305" y="655"/>
      <point x="321" y="591" type="qcurve"/>
      <point x="442" y="92"/>
      <point x="481" y="28" type="qcurve"/>
      <point x="485" y="23"/>
      <point x="485" y="17" type="qcurve"/>
      <point x="485" y="2"/>
      <point x="449" y="-14"/>
    </contour>
    <contour>
      <point x="388" y="726" type="qcurve"/>
      <point x="377" y="726"/>
      <point x="369" y="734" type="qcurve"/>
      <point x="322" y="776"/>
      <point x="261" y="815" type="qcurve"/>
      <point x="264" y="817" type="line"/>
      <point x="198" y="774"/>
      <point x="152" y="734" type="qcurve"/>
      <point x="145" y="726"/>
      <point x="133" y="726" type="qcurve"/>
      <point x="108" y="726"/>
      <point x="108" y="748" type="qcurve"/>
      <point x="108" y="754"/>
      <point x="119" y="770" type="qcurve"/>
      <point x="153" y="820"/>
      <point x="217" y="887" type="qcurve"/>
      <point x="233" y="898"/>
      <point x="258" y="898" type="qcurve"/>
      <point x="291" y="898"/>
      <point x="305" y="883" type="qcurve"/>
      <point x="316" y="871" type="line"/>
      <point x="413" y="771"/>
      <point x="413" y="748" type="qcurve"/>
      <point x="413" y="726"/>
    </contour>
  </outline>
</glyph>
<glyph name="Atilde" format="2">
  <advance height="1000" width="500"/>
  <unicode hex="00C3"/>
  <outline>
    <contour>
      <point x="178" y="288" type="line"/>
      <point x="321" y="296" type="line"/>
      <point x="255" y="568" type="line"/>
    </contour>
    <contour>
      <point x="432" y="-14" type="qcurve"/>
      <point x="409" y="-14"/>
      <point x="398" y="2" type="qcurve"/>
      <point x="390" y="37"/>
      <point x="338" y="230" type="qcurve"/>
      <point x="160" y="219" type="line"/>
      <point x="151" y="186"/>
      <point x="124" y="97" type="qcurve"/>
      <point x="102" y="9" type="line"/>
      <point x="94" y="-13"/>
      <point x="56" y="-13" type="qcurve"/>
      <point x="42" y="-13"/>
      <point x="15" y="-1"/>
      <point x="15" y="12" type="qcurve"/>
      <point x="15" y="17"/>
      <point x="19" y="25" type="qcurve"/>
      <point x="53" y="101"/>
      <point x="84" y="211" type="qcurve"/>
      <point x="85" y="211"/>
      <point x="85" y="212" type="qcurve"/>
      <point x="81" y="212" type="line"/>
      <point x="69" y="212"/>
      <point x="55" y="234"/>
      <point x="46" y="259"/>
      <point x="46" y="270" type="qcurve"/>
      <point x="46" y="291"/>
      <point x="65" y="291" type="qcurve"/>
      <point x="106" y="285" type="line"/>
      <point x="204" y="626"/>
      <point x="211" y="683" type="qcurve"/>
      <point x="214" y="700"/>
      <point x="226" y="717"/>
      <point x="243" y="717" type="qcurve"/>
      <point x="260" y="717"/>
      <point x="302" y="697"/>
      <point x="306" y="686" type="qcurve"/>
      <point x="308" y="684"/>
      <point x="308" y="679" type="qcurve"/>
      <point x="308" y="674"/>
      <point x="305" y="663"/>
      <point x="305" y="659" type="qcurve"/>
      <point x="305" y="655"/>
      <point x="321" y="591" type="qcurve"/>
      <point x="442" y="92"/>
      <point x="481" y="28" type="qcurve"/>
      <point x="485" y="23"/>
      <point x="485" y="17" type="qcurve"/>
      <point x="485" y="2"/>
      <point x="449" y="-14"/>
    </contour>
    <contour>
      <point x="138" y="750" type="qcurve"/>
      <point x="128" y="750"/>
      <point x="115" y="763"/>
      <point x="115" y="772" type="qcurve"/>
      <point x="115" y="778"/>
      <point x="116" y="780" type="qcurve"/>
      <point x="123" y="814"/>
      <point x="171" y="869"/>
      <point x="211" y="869" type="qcurve"/>
      <point x="241" y="869"/>
      <point x="280" y="847"/>
      <point x="306" y="826"/>
      <point x="317" y="826" type="qcurve"/>
      <point x="333" y="826"/>
      <point x="356" y="837"/>
      <point x="364" y="857" type="qcurve"/>
      <point x="370" y="872"/>
      <point x="386" y="872" type="qcurve"/>
      <point x="409" y="872"/>
      <point x="409" y="850" type="qcurve"/>
      <point x="409" y="845"/>
      <point x="408" y="843" type="qcurve"/>
      <point x="402" y="810"/>
      <point x="353" y="753"/>
      <point x="313" y="753" type="qcurve"/>
      <point x="285" y="753"/>
      <point x="247" y="774"/>
      <point x="221" y="796"/>
      <point x="208" y="796" type="qcurve"/>
      <point x="191" y="796"/>
      <point x="169" y="785"/>
      <point x="160" y="765" type="qcurve"/>
      <point x="156" y="750"/>
    </contour>
  </outline>
</glyph>
